<svg width="75" height="59" viewBox="0 0 75 59" fill="none" xmlns="http://www.w3.org/2000/svg">
<g clip-path="url(#clip0_107_72545)">
<path d="M-0.000366211 4.77075V18.3909C-0.000366211 22.5392 5.05425 24.7516 8.14319 21.8478L22.8858 8.22764C26.1152 5.25471 24.0091 0.000244141 19.5863 0.000244141H4.84365C2.17593 0.000244141 -0.000366211 2.14351 -0.000366211 4.77075Z" fill="white"/>
<path d="M69.7803 0.000244141H55.0377C50.6851 0.000244141 48.5088 5.25471 51.7381 8.22764L66.4808 21.8478C69.5697 24.6824 74.6244 22.5392 74.6244 18.3909V4.77075C74.6244 2.14351 72.4481 0.000244141 69.7803 0.000244141Z" fill="white"/>
<path d="M40.6472 33.2554L66.4819 57.1771C69.5709 60.0117 74.6255 57.8685 74.6255 53.7202V39.9618C74.6255 38.6482 74.0639 37.4037 73.081 36.5049L40.6472 6.43C38.7517 4.70156 35.8734 4.70156 33.9779 6.43L1.5441 36.5049C0.561258 37.4037 -0.000366211 38.6482 -0.000366211 39.9618V53.7202C-0.000366211 57.8685 5.05425 60.0809 8.14319 57.1771L33.9779 33.2554C35.8734 31.527 38.7517 31.527 40.6472 33.2554Z" fill="white"/>
</g>
<defs>
<clipPath id="clip0_107_72545">
<rect width="74.6259" height="58.4905" fill="white"/>
</clipPath>
</defs>
</svg>
