<svg width="352" height="62" viewBox="0 0 352 62" fill="none" xmlns="http://www.w3.org/2000/svg">
<g clip-path="url(#clip0_9_16247)">
<path d="M0 8.97247V21.4266C0 25.2198 4.62192 27.2428 7.44642 24.5876L20.927 12.1334C23.8799 9.41501 21.9541 4.61035 17.9099 4.61035H4.42934C1.98999 4.61035 0 6.57015 0 8.97247Z" fill="white"/>
<path d="M63.8078 4.61035H50.3273C46.3473 4.61035 44.3573 9.41501 47.3102 12.1334L60.7908 24.5876C63.6153 27.1796 68.2372 25.2198 68.2372 21.4266V8.97247C68.2372 6.57015 66.2472 4.61035 63.8078 4.61035Z" fill="white"/>
<path d="M37.1679 35.0196L60.791 56.8934C63.6155 59.4854 68.2374 57.5256 68.2374 53.7324V41.1518C68.2374 39.9507 67.7239 38.8127 66.8252 37.9909L37.1679 10.4905C35.4347 8.91006 32.8028 8.91006 31.0695 10.4905L1.41225 37.9909C0.513546 38.8127 0 39.9507 0 41.1518V53.7324C0 57.5256 4.62192 59.5486 7.44642 56.8934L31.0695 35.0196C32.8028 33.4391 35.4347 33.4391 37.1679 35.0196Z" fill="white"/>
</g>
<path d="M95.3539 50L87.6888 21.8332H95.5923L99.9567 40.7578H100.213L104.761 21.8332H112.518L117.139 40.6477H117.378L121.669 21.8332H129.554L121.907 50H113.637L108.796 32.2857H108.447L103.606 50H95.3539ZM141.533 33.7161V50H133.721V12.4443H141.313V26.8027H141.643C142.279 25.1401 143.306 23.8381 144.724 22.8968C146.142 21.9432 147.921 21.4664 150.06 21.4664C152.016 21.4664 153.722 21.8943 155.176 22.7501C156.643 23.5936 157.78 24.81 158.587 26.3993C159.406 27.9763 159.81 29.8651 159.797 32.0657V50H151.986V33.4593C151.998 31.7234 151.558 30.3725 150.665 29.4067C149.785 28.4409 148.55 27.958 146.961 27.958C145.897 27.958 144.956 28.1842 144.137 28.6365C143.33 29.0888 142.694 29.749 142.23 30.617C141.778 31.4727 141.545 32.5058 141.533 33.7161ZM165.945 50V21.8332H173.757V50H165.945ZM169.869 18.2023C168.708 18.2023 167.712 17.8172 166.88 17.047C166.061 16.2646 165.652 15.3294 165.652 14.2414C165.652 13.1655 166.061 12.2425 166.88 11.4724C167.712 10.6899 168.708 10.2987 169.869 10.2987C171.031 10.2987 172.021 10.6899 172.84 11.4724C173.671 12.2425 174.087 13.1655 174.087 14.2414C174.087 15.3294 173.671 16.2646 172.84 17.047C172.021 17.8172 171.031 18.2023 169.869 18.2023ZM194.997 21.8332V27.7013H178.034V21.8332H194.997ZM181.885 15.0849H189.697V41.3446C189.697 42.0659 189.807 42.6282 190.027 43.0316C190.247 43.4229 190.553 43.6979 190.944 43.8568C191.348 44.0158 191.812 44.0952 192.338 44.0952C192.705 44.0952 193.071 44.0647 193.438 44.0036C193.805 43.9302 194.086 43.8752 194.282 43.8385L195.51 49.6516C195.119 49.7738 194.569 49.9144 193.86 50.0734C193.151 50.2445 192.289 50.3484 191.274 50.3851C189.392 50.4584 187.741 50.2078 186.323 49.6332C184.917 49.0587 183.823 48.1662 183.041 46.9559C182.258 45.7456 181.873 44.2175 181.885 42.3715V15.0849ZM212.619 50.5501C209.722 50.5501 207.228 49.9633 205.138 48.7897C203.059 47.6039 201.458 45.929 200.333 43.7652C199.208 41.5891 198.646 39.0157 198.646 36.045C198.646 33.1476 199.208 30.6048 200.333 28.4165C201.458 26.2281 203.041 24.5227 205.083 23.3002C207.136 22.0777 209.545 21.4664 212.308 21.4664C214.166 21.4664 215.896 21.766 217.497 22.365C219.111 22.9518 220.517 23.8381 221.715 25.024C222.925 26.2098 223.867 27.7013 224.539 29.4984C225.211 31.2833 225.547 33.3738 225.547 35.7699V37.9154H201.763V33.0742H218.194C218.194 31.9495 217.95 30.9532 217.461 30.0852C216.972 29.2172 216.293 28.5387 215.425 28.0497C214.569 27.5485 213.573 27.2978 212.436 27.2978C211.25 27.2978 210.199 27.5729 209.282 28.123C208.377 28.661 207.668 29.3884 207.155 30.3052C206.641 31.2099 206.378 32.2185 206.366 33.331V37.9338C206.366 39.3274 206.623 40.5316 207.136 41.5463C207.662 42.561 208.402 43.3434 209.355 43.8935C210.309 44.4437 211.44 44.7187 212.748 44.7187C213.616 44.7187 214.41 44.5965 215.132 44.352C215.853 44.1075 216.47 43.7407 216.984 43.2517C217.497 42.7627 217.888 42.1637 218.157 41.4546L225.382 41.9314C225.016 43.6674 224.264 45.1833 223.127 46.4791C222.002 47.7628 220.547 48.7653 218.763 49.4865C216.99 50.1956 214.942 50.5501 212.619 50.5501ZM230.645 60.5626V21.8332H238.347V26.5643H238.696C239.038 25.8064 239.533 25.0362 240.181 24.2538C240.841 23.4591 241.697 22.799 242.748 22.2733C243.812 21.7354 245.132 21.4664 246.709 21.4664C248.763 21.4664 250.658 22.0043 252.394 23.0802C254.13 24.1438 255.517 25.7514 256.557 27.903C257.596 30.0424 258.115 32.7258 258.115 35.9533C258.115 39.0951 257.608 41.748 256.593 43.9119C255.591 46.0635 254.222 47.6956 252.486 48.808C250.762 49.9083 248.83 50.4584 246.691 50.4584C245.175 50.4584 243.885 50.2078 242.822 49.7066C241.77 49.2054 240.908 48.5758 240.236 47.8178C239.564 47.0476 239.05 46.2713 238.696 45.4889H238.457V60.5626H230.645ZM238.292 35.9166C238.292 37.5914 238.525 39.0524 238.989 40.2993C239.454 41.5463 240.126 42.5182 241.006 43.215C241.886 43.8996 242.956 44.2419 244.215 44.2419C245.487 44.2419 246.563 43.8935 247.443 43.1967C248.323 42.4876 248.989 41.5096 249.442 40.2626C249.906 39.0035 250.138 37.5548 250.138 35.9166C250.138 34.2906 249.912 32.8603 249.46 31.6256C249.008 30.3908 248.341 29.425 247.461 28.7282C246.581 28.0314 245.499 27.6829 244.215 27.6829C242.944 27.6829 241.868 28.0191 240.988 28.6915C240.12 29.3639 239.454 30.3175 238.989 31.5522C238.525 32.787 238.292 34.2417 238.292 35.9166ZM271.355 50.5318C269.558 50.5318 267.957 50.2201 266.551 49.5966C265.145 48.9609 264.032 48.0256 263.213 46.7909C262.406 45.5439 262.003 43.9913 262.003 42.1331C262.003 40.5683 262.29 39.2541 262.865 38.1905C263.439 37.1269 264.222 36.2711 265.212 35.6232C266.202 34.9753 267.327 34.4863 268.586 34.1562C269.858 33.8261 271.19 33.5938 272.584 33.4593C274.222 33.2882 275.542 33.1293 276.545 32.9826C277.547 32.8236 278.275 32.5913 278.727 32.2857C279.179 31.9801 279.405 31.5278 279.405 30.9287V30.8187C279.405 29.6573 279.039 28.7588 278.305 28.123C277.584 27.4873 276.557 27.1695 275.224 27.1695C273.819 27.1695 272.7 27.4812 271.869 28.1047C271.037 28.716 270.487 29.4862 270.218 30.4153L262.993 29.8285C263.36 28.1169 264.081 26.6377 265.157 25.3907C266.233 24.1315 267.62 23.1657 269.32 22.4934C271.031 21.8087 273.012 21.4664 275.261 21.4664C276.826 21.4664 278.324 21.6498 279.754 22.0166C281.196 22.3833 282.474 22.9518 283.587 23.722C284.711 24.4922 285.598 25.4824 286.245 26.6927C286.893 27.8908 287.217 29.3272 287.217 31.0021V50H279.809V46.0941H279.589C279.137 46.9743 278.531 47.7506 277.773 48.423C277.015 49.0831 276.105 49.6027 275.041 49.9817C273.978 50.3484 272.749 50.5318 271.355 50.5318ZM273.592 45.1405C274.742 45.1405 275.756 44.9143 276.636 44.462C277.517 43.9974 278.207 43.374 278.709 42.5915C279.21 41.8091 279.461 40.9228 279.461 39.9326V36.9435C279.216 37.1024 278.88 37.2491 278.452 37.3836C278.036 37.5059 277.566 37.622 277.04 37.732C276.514 37.8298 275.989 37.9215 275.463 38.0071C274.937 38.0805 274.46 38.1477 274.033 38.2088C273.116 38.3433 272.315 38.5572 271.63 38.8506C270.946 39.144 270.414 39.5414 270.035 40.0426C269.656 40.5316 269.466 41.1429 269.466 41.8764C269.466 42.94 269.852 43.7529 270.622 44.3153C271.404 44.8654 272.394 45.1405 273.592 45.1405ZM306.004 50.5501C303.119 50.5501 300.638 49.9389 298.559 48.7164C296.493 47.4816 294.904 45.7701 293.791 43.5818C292.691 41.3935 292.141 38.8751 292.141 36.0266C292.141 33.1415 292.697 30.6109 293.81 28.4348C294.935 26.2465 296.53 24.5411 298.596 23.3186C300.662 22.0838 303.119 21.4664 305.968 21.4664C308.425 21.4664 310.577 21.9127 312.423 22.8051C314.269 23.6975 315.73 24.9506 316.805 26.5643C317.881 28.1781 318.474 30.073 318.584 32.249H311.212C311.005 30.8431 310.454 29.7123 309.562 28.8566C308.682 27.9886 307.526 27.5546 306.096 27.5546C304.886 27.5546 303.828 27.8847 302.924 28.5448C302.031 29.1927 301.334 30.1402 300.833 31.3872C300.332 32.6341 300.081 34.1439 300.081 35.9166C300.081 37.7137 300.326 39.2418 300.815 40.501C301.316 41.7602 302.019 42.7199 302.924 43.3801C303.828 44.0402 304.886 44.3703 306.096 44.3703C306.989 44.3703 307.789 44.1869 308.498 43.8202C309.22 43.4534 309.813 42.9216 310.277 42.2248C310.754 41.5157 311.066 40.6661 311.212 39.6758H318.584C318.462 41.8275 317.875 43.7224 316.824 45.3605C315.785 46.9865 314.348 48.2579 312.514 49.1748C310.681 50.0917 308.511 50.5501 306.004 50.5501ZM336.422 50.5501C333.525 50.5501 331.031 49.9633 328.94 48.7897C326.862 47.6039 325.261 45.929 324.136 43.7652C323.011 41.5891 322.449 39.0157 322.449 36.045C322.449 33.1476 323.011 30.6048 324.136 28.4165C325.261 26.2281 326.844 24.5227 328.885 23.3002C330.939 22.0777 333.348 21.4664 336.11 21.4664C337.969 21.4664 339.699 21.766 341.3 22.365C342.914 22.9518 344.32 23.8381 345.518 25.024C346.728 26.2098 347.669 27.7013 348.342 29.4984C349.014 31.2833 349.35 33.3738 349.35 35.7699V37.9154H325.566V33.0742H341.997C341.997 31.9495 341.752 30.9532 341.263 30.0852C340.774 29.2172 340.096 28.5387 339.228 28.0497C338.372 27.5485 337.376 27.2978 336.239 27.2978C335.053 27.2978 334.002 27.5729 333.085 28.123C332.18 28.661 331.471 29.3884 330.958 30.3052C330.444 31.2099 330.181 32.2185 330.169 33.331V37.9338C330.169 39.3274 330.426 40.5316 330.939 41.5463C331.465 42.561 332.205 43.3434 333.158 43.8935C334.112 44.4437 335.242 44.7187 336.551 44.7187C337.419 44.7187 338.213 44.5965 338.934 44.352C339.656 44.1075 340.273 43.7407 340.787 43.2517C341.3 42.7627 341.691 42.1637 341.96 41.4546L349.185 41.9314C348.819 43.6674 348.067 45.1833 346.93 46.4791C345.805 47.7628 344.35 48.7653 342.565 49.4865C340.793 50.1956 338.745 50.5501 336.422 50.5501Z" fill="white"/>
<defs>
<clipPath id="clip0_9_16247">
<rect width="68.2374" height="53.4834" fill="white" transform="translate(0 4.61035)"/>
</clipPath>
</defs>
</svg>
