<svg width="1485" height="694" viewBox="0 0 1485 694" fill="none" xmlns="http://www.w3.org/2000/svg">
<g opacity="0.3">
<path d="M568.213 693.485C562.909 693.485 557.747 692.918 552.785 691.788C542.38 689.416 532.767 684.546 524.213 677.312C515.019 669.539 506.955 658.948 500.244 645.834C486.755 619.474 480.006 587.907 473.479 557.378C472.197 551.383 470.871 545.184 469.525 539.17C460.341 498.178 448.699 462.271 433.936 429.397C404.486 363.821 363.07 307.856 314.162 267.553C257.601 220.946 196.788 197.729 142.925 202.18C111.267 204.798 69.4383 229.69 50.744 272.2C39.6497 297.429 38.7551 325.427 48.1587 353.162L47.9719 353.28C43.0414 338.734 40.8931 324.152 41.5886 309.938C42.2268 296.899 45.2471 284.153 50.5675 272.055C59.0293 252.812 72.9839 235.757 90.9232 222.732C107.5 210.698 125.963 203.299 142.913 201.898C171.101 199.571 201.081 204.737 232.018 217.256C260.063 228.607 287.736 245.447 314.269 267.31C363.205 307.635 404.646 363.631 434.113 429.247C448.884 462.142 460.532 498.069 469.722 539.083C471.07 545.098 472.396 551.299 473.676 557.294C480.197 587.801 486.942 619.346 500.412 645.666C513.439 671.124 531.073 686.547 552.82 691.503C582.937 698.369 619.509 684.01 650.648 653.09C695.522 608.534 726.665 543.68 756.784 480.964C762.063 469.971 767.521 458.604 772.926 447.627C786.956 419.124 805.958 382.19 828.541 349.286C851.624 315.653 875.081 290.943 900.253 273.74C915.66 263.21 931.989 256.116 948.785 252.655C964.299 249.457 980.72 249.259 997.592 252.061C1026.53 256.87 1057.71 270.453 1092.91 293.583C1162.23 339.133 1231.46 394.42 1298.7 457.912C1362.61 518.258 1425.29 586.545 1485 660.868L1484.86 661.075C1361.09 507.005 1229.19 383.449 1092.82 293.834C1015.78 243.206 954.621 236.898 900.345 273.989C845.128 311.721 806.555 379.815 773.096 447.781C767.693 458.754 762.235 470.122 756.956 481.115C726.829 543.853 695.676 608.726 650.771 653.313C636.26 667.722 619.936 678.961 603.564 685.813C594.916 689.432 586.318 691.799 578.009 692.848C574.697 693.275 571.428 693.485 568.213 693.485Z" fill="#FFE492"/>
<path d="M573.399 677.854C559.873 677.854 547.344 674.351 536.148 667.438C523.662 659.73 512.888 647.785 504.122 631.938C503.347 630.535 502.577 629.083 501.835 627.621C488.489 601.376 481.441 570.219 474.627 540.086C473.248 533.996 471.824 527.697 470.38 521.585C461.776 485.193 451.417 453.117 438.705 423.532C437.14 419.889 435.519 416.239 433.884 412.683C404.001 347.671 362.248 292.414 313.139 252.888C256.169 207.076 195.184 184.819 141.418 190.219C109.99 193.409 68.3537 218.708 49.5793 260.892C38.3373 286.152 37.0651 314.205 45.8963 342.022L45.7075 342.133C41.0785 327.554 39.1765 312.944 40.0567 298.713C40.8652 285.644 44.0086 272.87 49.4029 260.747C57.9509 241.537 71.8644 224.463 89.6354 211.371C106.06 199.27 124.443 191.659 141.399 189.94C169.553 187.113 199.565 191.785 230.601 203.824C258.714 214.731 286.518 231.158 313.241 252.648C362.379 292.197 404.154 347.486 434.056 412.536C435.691 416.094 437.314 419.747 438.88 423.392C451.599 452.997 461.965 485.089 470.573 521.502C472.019 527.614 473.443 533.913 474.822 540.005C481.634 570.118 488.676 601.253 502.003 627.462C502.744 628.919 503.513 630.37 504.287 631.771C522.4 664.527 547.289 677.854 573.462 677.854C573.606 677.854 573.748 677.854 573.891 677.854C573.727 677.851 573.563 677.854 573.399 677.854ZM578.982 677.658C603.315 675.959 628.423 663.241 649.963 644.321C696.427 603.343 729.821 540.052 762.117 478.846C763.447 476.323 764.776 473.806 766.106 471.289C769.026 465.763 772.487 459.221 776.021 452.626C791.871 423.051 811.054 388.64 833.146 357.667C856.652 324.71 880.135 300.254 904.936 282.898C920.175 272.245 936.28 264.74 952.803 260.593C968.112 256.75 984.291 255.664 1000.88 257.364C1029.55 260.303 1060.37 271.444 1095.12 291.426C1128.99 310.879 1156.83 329.19 1182.74 349.052C1219.44 377.217 1254.4 409.669 1283.76 437.698C1352.02 503.049 1418.99 577.254 1482.82 658.256L1482.68 658.46C1418.86 577.469 1351.9 503.269 1283.65 437.927C1254.29 409.901 1219.34 377.455 1182.64 349.298C1156.74 329.441 1128.9 311.135 1095.04 291.689C1019.35 248.157 958.977 245.442 905.03 283.149C849.039 322.327 809.166 391.258 776.187 452.794C772.651 459.388 769.192 465.927 766.272 471.456C764.943 473.971 763.613 476.491 762.283 479.014C729.977 540.239 696.571 603.553 650.074 644.561C638.545 654.687 626.277 662.73 613.609 668.465C601.817 673.798 590.193 676.882 578.982 677.658Z" fill="#FFE492"/>
<path d="M579.12 662.579C577.493 662.579 575.876 662.531 574.272 662.434C560.758 661.621 548.252 657.404 537.103 649.894C524.909 641.681 514.344 629.515 505.703 613.733C504.936 612.327 504.171 610.873 503.432 609.41C490.237 583.293 482.895 552.552 475.798 522.827C474.318 516.631 472.788 510.223 471.236 504.005C462.208 467.735 451.576 435.917 438.727 406.73C437.137 403.121 435.491 399.502 433.831 395.974C403.515 331.528 361.426 276.98 312.116 238.229C254.74 193.213 193.583 171.913 139.911 178.262C109.691 181.893 68.1762 205.75 48.4375 249.544C37.0333 274.845 35.3734 302.974 43.6361 330.889L43.4453 330.992C39.1159 316.368 37.4642 301.724 38.5312 287.468C39.5119 274.357 42.7867 261.55 48.2631 249.398C56.9013 230.234 70.7697 213.154 88.3705 200C104.642 187.841 122.94 180.023 139.892 177.986C168.013 174.662 198.058 178.837 229.191 190.397C257.373 200.863 285.307 216.874 312.219 237.989C361.557 276.766 403.669 331.343 434.004 395.826C435.664 399.357 437.311 402.976 438.901 406.59C451.756 435.794 462.395 467.632 471.427 503.921C472.978 510.142 474.509 516.55 475.989 522.746C483.084 552.454 490.419 583.173 503.598 609.259C504.337 610.722 505.098 612.173 505.865 613.574C540.975 677.702 603.195 670.817 649.281 635.549C697.684 598.183 733.655 536.078 768.442 476.019L768.799 475.402C772.168 469.58 775.652 463.563 779.12 457.621C815.71 394.939 855.929 330.52 909.625 292.048C924.7 281.27 940.584 273.355 956.83 268.524C971.942 264.031 987.875 262.058 1004.18 262.661C1032.62 263.71 1063.09 272.412 1097.32 289.263C1133.31 306.91 1160.38 323.13 1185.12 341.859C1220.36 368.599 1254.5 402.387 1284.62 432.199C1351.69 498.931 1417.64 574.106 1480.65 655.629L1480.51 655.83C1417.51 574.315 1351.56 499.149 1284.5 432.423C1254.39 402.616 1220.25 368.833 1185.02 342.102C1160.29 323.378 1133.22 307.164 1097.25 289.523C1023.04 252.996 963.451 253.875 909.72 292.291C856.058 330.738 815.856 395.128 779.28 457.789C775.812 463.73 772.328 469.75 768.959 475.569L768.602 476.186C751.266 506.115 733.341 537.063 713.984 564.706C692.23 595.771 671.098 619.022 649.38 635.786C626.658 653.173 601.906 662.579 579.12 662.579Z" fill="#FFE492"/>
<path d="M1478.33 653.199C1416.15 571.159 1351.22 495.027 1285.36 426.919C1282.57 424.056 1279.77 421.179 1276.97 418.293C1248.44 388.927 1218.94 358.563 1187.4 334.908C1156.79 312.023 1125.78 298.029 1099.47 287.36C1026.86 257.727 968.059 262.2 914.41 301.434C859.336 341.829 816.662 408.896 782.374 462.787C780.316 466.022 778.262 469.262 776.204 472.505C774.685 474.9 773.165 477.294 771.644 479.686C752.121 510.402 734.362 537.864 714.741 562.923C692.324 591.549 670.718 612.514 648.684 627.018C628.034 640.612 605.974 647.804 585.456 647.807C581.717 647.807 578.034 647.57 574.415 647.087C561.201 645.326 548.968 640.378 538.056 632.379C526.149 623.652 515.794 611.255 507.272 595.532C506.511 594.122 505.752 592.665 505.017 591.2C491.978 565.22 484.351 534.911 476.977 505.602C475.389 499.289 473.745 492.758 472.083 486.42C462.624 450.265 451.717 418.7 438.741 389.921C437.126 386.34 435.454 382.754 433.771 379.257C403.02 315.377 360.596 261.539 311.087 223.561C253.305 179.34 191.978 159.003 138.4 166.293C101.772 171.375 64.3181 200.919 47.3165 238.135C35.7338 263.49 33.6799 291.708 41.3723 319.739L41.1794 319.837C37.1517 305.16 35.7482 290.472 37.008 276.18C38.1673 263.021 41.5775 250.172 47.1421 237.987C55.8706 218.878 69.6939 201.798 87.1182 188.597C103.233 176.387 121.437 168.366 138.379 166.016C166.467 162.193 196.543 165.874 227.772 176.954C256.022 186.979 284.089 202.577 311.19 223.315C360.73 261.316 403.176 315.185 433.946 379.104C435.63 382.603 437.302 386.192 438.917 389.773C451.901 418.569 462.813 450.15 472.278 486.323C473.94 492.664 475.584 499.191 477.172 505.507C484.542 534.8 492.165 565.089 505.188 591.038C505.922 592.501 506.679 593.955 507.439 595.361C544.091 662.995 606.387 654.547 648.595 626.764C698.954 593.614 737.489 532.991 771.491 479.502C773.011 477.107 774.529 474.713 776.05 472.321C778.106 469.078 780.162 465.838 782.22 462.603C801.792 431.842 821.121 401.95 842.37 374.404C866.805 342.725 890.34 318.777 914.315 301.189C929.232 290.279 944.89 281.954 960.855 276.448C975.776 271.299 991.465 268.441 1007.49 267.95C1035.74 267.084 1065.85 273.347 1099.53 287.092C1125.85 297.767 1156.88 311.766 1187.5 334.665C1219.06 358.329 1248.56 388.701 1277.1 418.072C1279.9 420.958 1282.7 423.835 1285.49 426.699C1351.35 494.812 1416.29 570.953 1478.48 653.001L1478.33 653.199Z" fill="#FFE492"/>
<path d="M1476.16 650.57C1413.62 566.437 1349.72 489.337 1286.22 421.416C1282.42 417.353 1278.53 413.164 1274.77 409.114C1247.85 380.111 1220.01 350.121 1189.78 327.713C1159.58 305.417 1128.31 293.707 1101.69 285.195C1030.85 262.318 972.831 270.383 919.103 310.577C867.856 349.055 827.708 406.915 788.881 462.869L784.617 469.011C781.25 473.865 777.768 478.88 774.335 483.8C735.469 539.433 696.562 591.574 647.993 618.244C636.207 624.716 624.105 629.201 612.02 631.581C599.042 634.135 586.435 634.171 574.549 631.687C561.639 628.989 549.683 623.32 539.013 614.839C527.402 605.61 517.253 592.987 508.853 577.324C508.096 575.907 507.343 574.447 506.615 572.985C493.735 547.158 485.833 517.296 478.192 488.416C476.487 481.972 474.723 475.307 472.942 468.835C463.044 432.792 451.865 401.481 438.766 373.115C437.129 369.57 435.432 366.012 433.723 362.543C402.539 299.23 359.78 246.1 310.068 208.895C251.878 165.475 190.378 146.096 136.893 154.331C100.6 160.039 63.3155 189.789 46.2277 226.681C34.4522 252.101 31.992 280.428 39.112 308.601L38.917 308.694C35.1909 293.952 34.0398 279.208 35.4945 264.874C36.8365 251.66 40.3882 238.76 46.0513 226.536C54.8742 207.492 68.6483 190.428 85.8879 177.188C101.843 164.934 119.948 156.72 136.868 154.058C164.923 149.738 195.03 152.922 226.357 163.522C254.677 173.105 282.873 188.288 310.165 208.653C359.906 245.877 402.689 299.04 433.891 362.39C435.6 365.861 437.299 369.422 438.936 372.967C452.044 401.347 463.228 432.674 473.13 468.738C474.911 475.21 476.676 481.877 478.381 488.321C486.018 517.184 493.916 547.032 506.781 572.828C507.507 574.285 508.26 575.742 509.015 577.16C544.785 643.853 604.219 641.98 647.913 617.987C696.443 591.34 735.334 539.218 774.183 483.61C777.616 478.69 781.098 473.675 784.465 468.822L788.729 462.679C807.788 435.214 827.494 406.812 848.897 380.391C873.138 350.467 896.069 327.551 919 310.332C933.766 299.286 949.201 290.55 964.878 284.371C979.616 278.561 995.06 274.815 1010.78 273.238C1038.91 270.417 1068.66 274.24 1101.74 284.921C1128.36 293.439 1159.66 305.152 1189.87 327.468C1220.12 349.884 1247.97 379.883 1274.9 408.893C1278.66 412.943 1282.54 417.129 1286.34 421.196C1349.85 489.122 1413.76 566.228 1476.3 650.369L1476.16 650.57Z" fill="#FFE492"/>
<path d="M1473.98 647.941C1411.98 562.873 1349.1 484.807 1287.07 415.915C1282.41 410.738 1277.63 405.354 1273.01 400.149C1247.54 371.459 1221.2 341.793 1192.15 320.524C1162.1 298.61 1130.68 289.274 1103.91 283.034C1035.03 266.733 977.796 278.393 923.789 319.725C876.658 355.948 837.962 407.283 800.539 456.927C796.601 462.151 792.528 467.551 788.56 472.784C783.9 478.93 780.34 483.599 777.018 487.919C759.227 511.044 738.044 537.671 715.814 559.82C692.257 583.288 669.844 599.531 647.295 609.477C635.437 614.707 623.387 618.006 611.476 619.279C598.686 620.646 586.304 619.642 574.674 616.29C562.073 612.659 550.396 606.271 539.963 597.304C528.649 587.58 518.712 574.731 510.426 559.119C509.68 557.704 508.931 556.242 508.204 554.774C495.495 529.12 487.329 499.719 479.429 471.285C477.597 464.691 475.703 457.873 473.793 451.25C463.449 415.307 451.998 384.253 438.782 356.308C437.12 352.794 435.399 349.269 433.665 345.828C402.048 283.081 358.953 230.661 309.04 194.229C250.445 151.607 188.773 133.19 135.382 142.367C105.002 147.703 65.3238 172.285 45.1623 215.169C33.1755 240.666 30.2988 269.122 36.8462 297.457L36.6513 297.541C33.2267 282.724 32.3321 267.916 33.99 253.526C35.5207 240.245 39.2202 227.29 44.99 215.018C53.9073 196.052 67.63 179.016 84.6788 165.748C100.474 153.458 118.471 145.057 135.357 142.09C163.379 137.273 193.519 139.961 224.941 150.081C253.328 159.223 281.656 173.993 309.136 193.984C359.078 230.435 402.198 282.886 433.833 345.669C435.567 349.11 437.29 352.641 438.952 356.157C452.174 384.116 463.632 415.187 473.982 451.147C475.894 457.772 477.788 464.59 479.62 471.185C487.513 499.604 495.678 528.989 508.372 554.615C509.099 556.08 509.846 557.54 510.593 558.952C540.35 615.031 591.431 633.819 647.231 609.207C697.764 586.919 738.986 536.965 776.877 487.712C780.199 483.392 783.757 478.723 788.417 472.578C792.385 467.345 796.458 461.944 800.395 456.72C818.819 432.28 837.868 407.009 858.187 383.346C881.164 356.584 902.591 335.692 923.691 319.477C938.314 308.286 953.524 299.14 968.903 292.297C983.469 285.814 998.669 281.184 1014.08 278.53C1042.14 273.701 1071.54 275.083 1103.94 282.752C1130.73 288.998 1162.17 298.336 1192.25 320.27C1221.32 341.553 1247.66 371.228 1273.14 399.926C1277.76 405.131 1282.54 410.515 1287.2 415.692C1349.23 484.592 1412.12 562.664 1474.13 647.737L1473.98 647.941Z" fill="#FFE492"/>
<path d="M1471.8 645.312C1410.34 559.303 1348.48 480.269 1287.92 410.411C1282.77 404.47 1277.48 398.232 1272.36 392.201C1247.99 363.472 1222.78 333.766 1194.52 313.329C1164.45 291.677 1132.96 284.77 1106.12 280.868C1040.37 271.053 982.259 286.754 928.476 328.868C885.652 362.554 848.943 407.618 813.442 451.2C806.27 460.002 798.857 469.106 791.649 477.783C787.24 483.094 783.333 487.757 779.701 492.038C762.812 511.926 740.347 537.426 716.34 558.265C692.219 579.202 669.404 593.087 646.594 600.708C621.715 609.022 596.886 609.084 574.792 600.89C562.507 596.332 551.107 589.227 540.907 579.769C529.895 569.557 520.169 556.485 511.997 540.92C511.256 539.502 510.513 538.037 509.791 536.569C497.263 511.111 488.842 482.192 480.7 454.228C478.73 447.463 476.695 440.469 474.641 433.673C463.844 397.825 452.12 367.022 438.797 339.51C437.111 336.027 435.365 332.533 433.606 329.122C401.556 266.942 358.127 215.227 308.013 179.574C249.014 137.753 187.169 120.296 133.871 130.413C97.7501 137.418 61.6848 166.834 44.1292 203.606C31.9125 229.196 28.6111 257.799 34.582 286.324L34.385 286.4C31.2641 271.494 30.628 256.607 32.4932 242.156C34.2167 228.799 38.0742 215.777 43.9569 203.453C52.9686 184.575 66.6379 167.579 83.4877 154.3C99.1166 141.984 117 133.4 133.842 130.134C161.831 124.82 192.004 127.014 223.522 136.651C251.979 145.353 280.438 159.709 308.107 179.323C358.25 214.999 401.704 266.741 433.775 328.96C435.533 332.371 437.279 335.868 438.968 339.353C452.296 366.882 464.027 397.699 474.83 433.564C476.884 440.36 478.919 447.357 480.889 454.122C489.027 482.072 497.443 510.977 509.959 536.41C510.682 537.878 511.422 539.338 512.163 540.755C541.41 596.472 591.645 618.782 646.545 600.438C696.593 583.712 740.055 538.352 779.566 491.829C783.195 487.548 787.104 482.887 791.512 477.576C798.718 468.899 806.133 459.798 813.302 450.996C848.811 407.406 885.527 362.33 928.372 328.631C942.866 317.281 957.855 307.727 972.921 300.231C987.331 293.064 1002.29 287.547 1017.37 283.832C1045.43 276.925 1074.46 275.867 1106.14 280.595C1133 284.499 1164.52 291.409 1194.62 313.086C1222.9 333.537 1248.11 363.254 1272.5 391.994C1277.61 398.026 1282.9 404.26 1288.06 410.202C1348.61 480.065 1410.49 559.105 1471.95 645.119L1471.8 645.312Z" fill="#FFE492"/>
<path d="M1469.63 642.684C1408.71 555.726 1347.87 475.729 1288.78 404.911C1283.35 398.403 1277.76 391.512 1272.36 384.848C1248.87 355.876 1224.59 325.916 1196.9 306.137C1166.7 284.67 1135.19 280.224 1108.34 278.706C1045.07 274.866 987.766 294.265 933.163 338.014C894.869 368.842 860.733 407.858 827.719 445.588C816.368 458.563 805.645 470.817 794.739 482.782C790.303 487.652 786.263 492.028 782.385 496.155C757.363 522.766 736.545 542.006 716.868 556.703C692.182 575.142 668.967 586.668 645.896 591.938C636.946 593.98 628.029 594.999 619.274 594.999C603.753 594.999 588.736 591.806 574.911 585.482C549.891 574.037 529.253 552.919 513.571 522.713C512.832 521.281 512.095 519.816 511.381 518.354C499.044 493.116 490.387 464.711 482.015 437.238C479.894 430.277 477.702 423.082 475.493 416.086C464.234 380.321 452.235 349.775 438.816 322.701C437.105 319.249 435.334 315.785 433.551 312.406C401.068 250.792 357.302 199.786 306.987 164.906C247.584 123.889 185.569 107.39 132.363 118.447C96.0922 126.141 61.0672 154.999 43.1361 191.966C30.6711 217.662 26.9327 246.435 32.3208 275.178L32.1218 275.248C29.3087 260.239 28.9353 245.263 31.0138 230.737C32.9384 217.291 36.958 204.196 42.9658 191.813C52.0719 173.039 65.6818 156.098 82.3263 142.819C97.787 130.484 115.546 121.732 132.332 118.171C160.288 112.36 190.493 114.057 222.106 123.214C250.633 131.477 279.221 145.42 307.081 164.655C357.425 199.557 401.216 250.591 433.719 312.241C435.502 315.623 437.273 319.087 438.986 322.542C452.413 349.63 464.419 380.193 475.681 415.971C477.891 422.968 480.085 430.166 482.204 437.126C490.572 464.585 499.224 492.979 511.552 518.195C512.266 519.654 513 521.12 513.739 522.548C543.023 578.957 591.18 604.147 645.861 591.658C697.915 579.769 744.02 536.598 782.258 495.932C786.134 491.804 790.174 487.431 794.61 482.561C805.513 470.597 816.236 458.345 827.587 445.37C860.605 407.632 894.75 368.611 933.058 337.772C947.444 326.245 962.209 316.282 976.945 308.155C991.218 300.285 1005.93 293.88 1020.67 289.122C1048.78 280.048 1077.46 276.549 1108.35 278.424C1135.22 279.942 1166.76 284.394 1196.99 305.886C1224.71 325.679 1249 355.653 1272.49 384.636C1277.9 391.3 1283.48 398.191 1288.91 404.696C1348 475.52 1408.85 555.525 1469.77 642.488L1469.63 642.684Z" fill="#FFE492"/>
<path d="M1467.46 640.055C1406.24 550.904 1348.08 472.188 1289.64 399.408C1284.06 392.464 1278.57 385.373 1272.76 377.865C1250.04 348.517 1226.55 318.172 1199.28 298.946C1168.7 277.487 1135.81 275.701 1110.56 276.544C1050.17 278.296 993.68 301.396 937.858 347.163C904.365 374.756 873.442 407.892 843.536 439.94C827.819 456.782 812.974 472.687 797.836 487.783C793.342 492.268 789.167 496.354 785.075 500.275C759.712 524.544 738.209 541.976 717.399 555.138C692.141 571.112 668.526 580.28 645.205 583.166C633.222 584.648 621.321 584.369 609.833 582.337C597.67 580.185 585.962 576.058 575.036 570.071C550.818 556.801 530.671 534.745 515.153 504.512C514.42 503.077 513.69 501.609 512.98 500.147C500.849 475.168 491.975 447.305 483.392 420.359C481.103 413.17 478.735 405.735 476.352 398.507C464.622 362.82 452.352 332.528 438.841 305.901C437.103 302.479 435.307 299.046 433.504 295.697C400.588 234.65 356.488 184.353 305.971 150.246C259.345 118.897 211.262 102.539 167.17 102.539C154.705 102.539 142.569 103.846 130.863 106.489C95.0294 114.738 60.224 143.699 42.1883 180.27C29.4586 206.086 25.2667 235.055 30.066 264.043L29.8649 264.105C27.3596 248.978 27.2549 233.899 29.553 219.289C31.6828 205.745 35.8768 192.564 42.0159 180.114C51.2164 161.457 64.7627 144.586 81.1938 131.322C96.7037 118.799 113.867 110.117 130.826 106.215C158.749 99.9077 188.988 101.111 220.697 109.785C249.291 117.604 278.013 131.132 306.062 149.992C356.607 184.119 400.734 234.444 433.67 295.527C435.476 298.876 437.273 302.311 439.011 305.736C452.529 332.377 464.805 362.683 476.541 398.387C478.923 405.615 481.293 413.05 483.583 420.242C492.162 447.176 501.032 475.029 513.152 499.988C513.862 501.447 514.593 502.915 515.323 504.347C544.342 560.881 591.674 589.504 645.189 582.884C699.339 576.183 748.329 535.091 784.96 500.041C789.052 496.119 793.225 492.034 797.719 487.552C812.855 472.461 827.698 456.554 843.413 439.714C873.323 407.663 904.25 374.519 937.755 346.918C966.495 323.355 994.698 306.182 1023.98 294.416C1052.22 283.069 1080.54 277.13 1110.56 276.259C1127.69 275.687 1141.67 276.68 1154.54 279.382C1171.17 282.87 1185.84 289.186 1199.38 298.692C1226.67 317.935 1250.17 348.296 1272.91 377.659C1278.72 385.166 1284.21 392.255 1289.78 399.199C1348.22 471.981 1406.39 550.703 1467.61 639.86L1467.46 640.055Z" fill="#FFE492"/>
<path d="M1465.28 637.425C1404.62 547.297 1347.45 467.643 1290.49 393.903C1284.85 386.608 1279.3 379.092 1273.41 371.136C1251.37 341.324 1228.58 310.493 1201.65 291.75C1170.82 270.391 1137.96 271.245 1112.78 274.374C1055.79 281.209 1000.1 308.009 942.541 356.302C914.181 380.211 887.178 407.573 861.064 434.036C840.421 454.953 820.924 474.712 800.923 492.772C796.403 496.858 791.971 500.765 787.754 504.382C762.342 526.162 739.499 542.246 717.92 553.554C692.081 567.095 668.066 573.911 644.503 574.385C632.514 574.625 620.66 573.151 609.279 570.001C597.347 566.696 585.865 561.53 575.15 554.643C551.763 539.608 532.105 516.614 516.722 486.297C516 484.866 515.273 483.395 514.565 481.924C502.663 457.25 493.595 429.975 484.826 403.599C482.345 396.136 479.778 388.416 477.199 380.912C464.989 345.292 452.446 315.257 438.854 289.084C437.092 285.694 435.272 282.291 433.444 278.973C400.095 218.493 355.658 168.905 304.941 135.571C244.731 96.1638 182.37 81.5844 129.348 94.5172C93.9782 103.294 59.4046 132.331 41.2684 168.486C28.2515 194.438 23.5938 223.625 27.796 252.895L27.5949 252.948C25.4035 237.691 25.5718 222.495 28.0976 207.784C30.4429 194.128 34.8153 180.852 41.0981 168.327C50.3888 149.804 63.8674 133.017 80.077 119.78C95.4084 107.26 112.433 98.43 129.311 94.2409C157.204 87.4396 187.473 88.1429 219.276 96.3369C247.94 103.721 276.791 116.836 305.029 135.317C355.777 168.667 400.239 218.286 433.606 278.803C435.436 282.121 437.258 285.526 439.021 288.92C452.62 315.106 465.167 345.155 477.384 380.789C479.965 388.294 482.53 396.013 485.013 403.479C493.778 429.844 502.841 457.108 514.736 481.765C515.444 483.233 516.17 484.704 516.89 486.133C546.215 543.926 591.534 575.172 644.498 574.1C687.474 573.235 732.96 551.003 787.643 504.139C791.858 500.522 796.288 496.618 800.808 492.532C820.803 474.475 840.3 454.722 860.939 433.804C887.057 407.338 914.064 379.971 942.432 356.057C971.454 331.706 999.203 313.276 1027.27 299.704C1055.7 285.956 1083.66 277.575 1112.76 274.086C1137.97 270.952 1170.87 270.101 1201.75 291.493C1228.71 310.259 1251.51 341.103 1273.56 370.929C1279.44 378.886 1285 386.399 1290.63 393.691C1347.59 467.434 1404.77 547.093 1465.43 637.227L1465.28 637.425Z" fill="#FFE492"/>
<path d="M1463.1 634.797C1403.01 543.689 1346.83 463.092 1291.34 388.403C1285.71 380.821 1280.15 372.942 1274.26 364.6C1252.84 334.255 1230.7 302.878 1204.03 284.559C1172.91 263.278 1140.1 266.781 1115 272.209C1061.38 283.582 1008.07 313.21 947.231 365.449C924.414 385.13 902.117 406.72 880.554 427.598C854.365 452.956 829.627 476.91 804.014 497.771C799.4 501.533 794.832 505.145 790.439 508.499C764.572 528.242 741.023 542.464 718.446 551.975C705.801 557.303 693.317 561.163 681.343 563.448C668.57 565.885 655.941 566.613 643.806 565.614C619.186 563.585 596.127 554.705 575.273 539.221C552.749 522.498 533.581 498.57 518.301 468.093C517.583 466.651 516.863 465.177 516.159 463.715C504.511 439.403 495.281 412.776 486.358 387.028C483.656 379.233 480.863 371.173 478.054 363.33C465.351 327.769 452.535 297.988 438.874 272.282C437.087 268.919 435.24 265.547 433.389 262.262C399.608 202.346 354.837 153.467 303.918 120.911C243.307 82.3111 180.775 68.6917 127.841 82.5595C71.1629 97.6385 15.9334 162.791 25.5361 241.758L25.3329 241.803C22.9302 222.049 24.3378 202.588 29.5146 183.957C34.2421 166.941 42.0001 150.927 52.5732 136.364C62.4036 122.823 74.1976 111.132 87.6249 101.615C100.396 92.5647 114.289 85.8778 127.8 82.2832C155.66 74.9851 185.962 75.1944 217.862 82.9083C246.596 89.8548 275.578 102.556 304.004 120.66C354.952 153.238 399.749 202.145 433.552 262.095C435.404 265.383 437.251 268.754 439.04 272.12C452.708 297.837 465.53 327.635 478.239 363.21C481.048 371.053 483.84 379.113 486.543 386.91C495.464 412.65 504.689 439.267 516.331 463.564C517.033 465.026 517.751 466.5 518.469 467.94C547.837 526.509 592.354 561.096 643.818 565.338C687.387 568.924 735.314 550.256 790.339 508.259C794.73 504.905 799.295 501.296 803.91 497.534C829.517 476.678 854.25 452.727 880.435 427.372C902 406.491 924.3 384.898 947.12 365.214C1007.98 312.953 1061.31 283.314 1114.96 271.933C1131.83 268.285 1145.8 267.119 1158.92 268.266C1175.7 269.731 1190.48 274.978 1204.12 284.307C1230.82 302.646 1252.98 334.043 1274.41 364.405C1280.29 372.744 1285.86 380.623 1291.49 388.202C1346.98 462.897 1403.16 543.497 1463.25 634.61L1463.1 634.797Z" fill="#FFE492"/>
<path d="M1460.93 632.167C1401.41 540.066 1346.22 458.531 1292.2 382.899C1286.61 375.074 1281.09 366.877 1275.24 358.195C1254.41 327.269 1232.86 295.289 1206.41 277.363C1174.61 255.904 1140.28 262.906 1117.22 270.04C1054.63 289.163 998.538 333.621 951.926 374.594C935.173 389.38 918.463 405.042 902.3 420.188C869.879 450.572 839.257 479.27 807.113 502.769C802.386 506.227 797.683 509.54 793.132 512.618C766.759 530.421 742.505 542.779 718.982 550.392C692.316 559.024 666.794 561.196 643.117 556.842C618.795 552.368 596.011 541.249 575.402 523.793C553.786 505.485 535.108 480.621 519.884 449.891C519.174 448.448 518.457 446.972 517.758 445.504C506.399 421.639 497.055 395.743 488.016 370.698C485.056 362.49 481.992 354.005 478.914 345.747C465.526 309.74 452.811 281.058 438.901 255.477C437.09 252.145 435.22 248.807 433.343 245.55C399.124 186.203 354.017 138.033 302.897 106.248C241.883 68.4566 179.179 55.7945 126.336 70.5971C69.4544 86.7422 15.3534 151.01 23.2776 230.619L23.0745 230.655C21.1088 210.905 22.8098 191.463 28.1282 172.874C33.0034 155.841 40.8065 139.81 51.3243 125.231C61.1321 111.634 72.8645 99.8564 86.1974 90.2196C98.8922 81.0433 112.759 74.1639 126.295 70.3209C154.124 62.526 184.456 62.2413 216.451 69.4724C245.254 75.9807 274.368 88.2688 302.983 105.994C354.133 137.795 399.266 185.993 433.501 245.377C435.378 248.637 437.25 251.977 439.063 255.31C452.981 280.902 465.7 309.6 479.095 345.622C482.173 353.88 485.236 362.367 488.197 370.575C497.233 395.612 506.575 421.499 517.926 445.353C518.626 446.821 519.34 448.294 520.05 449.737C549.646 509.473 593.36 547.412 643.142 556.566C687.79 564.776 736.821 550.317 793.039 512.367C797.588 509.291 802.291 505.981 807.015 502.524C839.151 479.03 869.768 450.337 902.183 419.956C918.346 404.81 935.058 389.145 951.813 374.356C983.157 346.808 1009.23 326.454 1033.87 310.304C1062.87 291.292 1090.12 278.033 1117.17 269.766C1133.66 264.665 1148.04 262.354 1161.12 262.706C1177.96 263.158 1192.81 267.869 1206.5 277.112C1232.99 295.06 1254.54 327.06 1275.39 358.005C1281.24 366.684 1286.76 374.881 1292.35 382.701C1346.37 458.336 1401.56 539.876 1461.09 631.98L1460.93 632.167Z" fill="#FFE492"/>
<path d="M1458.75 629.536C1399.81 536.439 1345.61 453.963 1293.06 377.394C1287.54 369.364 1282.09 360.883 1276.32 351.902C1256.03 320.354 1235.05 287.732 1208.79 270.169C1176.64 248.76 1142.4 258.604 1119.43 267.872C1062.73 290.565 1012.14 333.772 956.612 383.737C946.597 392.782 936.467 402.118 926.67 411.149C888.99 445.878 850.029 481.788 810.201 507.765C805.362 510.925 800.52 513.942 795.811 516.732C769.26 532.451 743.588 543.24 719.505 548.802C692.224 555.104 666.288 554.855 642.413 548.068C618.431 541.25 595.924 527.89 575.517 508.36C554.865 488.595 536.673 462.799 521.449 431.69C520.745 430.244 520.035 428.765 519.339 427.297C508.323 403.99 498.919 378.937 489.826 354.71C486.549 345.98 483.161 336.954 479.757 328.171C465.846 292.2 452.866 263.764 438.909 238.68C437.077 235.387 435.181 232.077 433.277 228.845C398.631 170.055 353.191 122.594 301.866 91.5851C240.453 54.6035 177.578 42.9014 124.821 58.6363C69.7453 75.2418 14.645 137.255 21.0078 219.479L20.8047 219.507C19.2761 199.756 21.2704 180.337 26.7304 161.789C31.7513 144.737 39.6016 128.692 50.0619 114.096C69.3616 87.1699 96.5937 66.8553 124.776 58.36C152.572 50.0711 182.937 49.2897 215.028 56.038C243.902 62.1109 273.145 73.9832 301.948 91.3283C353.302 122.354 398.769 169.846 433.437 228.663C435.343 231.898 437.239 235.208 439.073 238.504C453.036 263.602 466.022 292.049 479.938 328.034C483.342 336.82 486.731 345.846 490.008 354.576C499.1 378.797 508.502 403.845 519.512 427.14C520.205 428.608 520.915 430.085 521.619 431.53C552.079 493.772 593.862 533.974 642.452 547.792C687.445 560.585 739.012 550.05 795.725 516.476C800.432 513.685 805.27 510.671 810.106 507.514C849.92 481.545 888.877 445.641 926.549 410.917C936.346 401.886 946.476 392.551 956.493 383.505C980.801 361.634 1009.09 336.547 1037.16 315.601C1066.52 293.693 1093.41 277.994 1119.37 267.607C1135.71 261.012 1150.08 257.591 1163.31 257.15C1179.98 256.591 1195.31 260.889 1208.87 269.921C1220.64 277.788 1232.48 289.529 1245.08 305.817C1256.2 320.198 1266.5 336.223 1276.47 351.718C1282.24 360.696 1287.69 369.177 1293.2 377.204C1345.75 453.776 1399.96 536.254 1458.9 629.354L1458.75 629.536Z" fill="#FFE492"/>
<path d="M1456.58 626.907C1398.21 532.805 1345 449.389 1293.91 371.892C1288.5 363.687 1283.14 354.949 1277.47 345.7C1257.71 313.497 1237.28 280.196 1211.17 262.979C1186.76 246.94 1157.48 247.833 1121.65 265.709C1071.56 290.561 1026.79 332.131 979.383 376.146C973.48 381.627 967.378 387.292 961.304 392.888C958.926 395.084 956.546 397.286 954.168 399.485C908.999 441.262 862.293 484.461 813.297 512.766C808.343 515.63 803.366 518.351 798.501 520.851C771.367 534.786 744.97 543.655 720.044 547.211C692.133 551.191 665.781 548.528 641.725 539.296C618.117 530.234 595.887 514.633 575.654 492.926C556.042 471.886 538.339 445.161 523.034 413.487C522.337 412.039 521.633 410.557 520.941 409.086C510.344 386.511 500.971 362.468 491.904 339.217C488.233 329.801 484.435 320.063 480.621 310.586C466.172 274.639 452.929 246.449 438.939 221.873C437.081 218.607 435.162 215.331 433.233 212.13C398.149 153.91 352.372 107.155 300.846 76.9215C239.034 40.752 175.985 30.0072 123.317 46.6742C69.2525 63.9244 14.2302 126.445 18.7505 208.34L18.5453 208.362C17.4557 188.609 19.7415 169.212 25.343 150.712C30.5116 133.64 38.4071 117.576 48.812 102.968C68.0296 75.9865 95.1673 55.3705 123.269 46.4035C151.035 37.6179 181.431 36.3397 213.616 42.6079C242.56 48.2399 271.936 59.6991 300.928 76.6647C352.483 106.918 398.288 153.698 433.387 211.949C435.316 215.15 437.239 218.432 439.098 221.697C453.093 246.287 466.344 274.486 480.797 310.446C484.614 319.924 488.41 329.664 492.082 339.08C501.145 362.325 510.518 386.363 521.112 408.93C521.803 410.401 522.505 411.88 523.203 413.328C554.323 477.73 595.325 521.192 641.779 539.02C687.635 556.619 740.339 550.415 798.427 520.583C803.288 518.083 808.263 515.365 813.214 512.504C862.194 484.21 908.892 441.019 954.051 399.248C956.431 397.046 958.809 394.847 961.187 392.651C967.261 387.055 973.363 381.39 979.266 375.911C1026.68 331.888 1071.47 290.307 1121.58 265.444C1137.77 257.367 1152.14 252.837 1165.51 251.59C1182.24 250.03 1197.64 253.778 1211.25 262.725C1222.95 270.436 1234.65 282.231 1247.01 298.783C1257.91 313.388 1267.94 329.723 1277.63 345.519C1283.3 354.765 1288.66 363.5 1294.07 371.703C1345.16 449.202 1398.37 532.62 1456.74 626.725L1456.58 626.907Z" fill="#FFE492"/>
<path d="M1454.4 624.278C1401.13 536.589 1347.42 449.822 1294.76 366.389C1289.4 357.944 1284.09 348.871 1278.47 339.267C1260.17 308.027 1239.44 272.619 1213.54 255.787C1188.85 239.776 1159.51 242.313 1123.87 263.54C1081.48 288.697 1043.97 325.687 1004.26 364.848C991.819 377.111 978.959 389.796 965.987 402.031C943.345 423.434 918.852 446.082 893.177 466.709C865.68 488.801 840.56 505.499 816.379 517.762C811.298 520.338 806.185 522.763 801.176 524.965C773.468 537.142 746.353 544.071 720.584 545.562C692.057 547.208 665.289 542.151 641.02 530.519C596.203 508.773 557.034 463.273 524.6 395.283C523.909 393.831 523.211 392.347 522.523 390.876C512.463 369.297 503.255 346.532 494.35 324.515C490.158 314.153 485.824 303.436 481.464 293.006C466.465 257.068 452.956 229.126 438.95 205.072C437.064 201.835 435.121 198.589 433.17 195.421C397.659 137.762 351.545 91.7188 299.818 62.2585C237.606 26.8984 174.387 17.1165 121.804 34.7128C67.412 53.018 13.7685 114.71 16.4831 197.202L16.2779 197.213C15.6275 177.454 18.2087 158.08 23.9477 139.627C29.2661 122.533 37.2068 106.452 47.5522 91.8332C57.2984 78.0604 68.8503 66.0178 81.8857 56.0377C94.5415 46.3507 107.954 39.0833 121.753 34.4393C149.488 25.1597 179.917 23.3848 212.196 29.1702C241.209 34.3696 270.715 45.413 299.896 61.999C351.654 91.476 397.794 137.547 433.326 195.234C435.277 198.405 437.224 201.653 439.11 204.891C453.122 228.959 466.637 256.912 481.643 292.861C486.003 303.293 490.336 314.01 494.528 324.375C503.433 346.39 512.64 369.152 522.696 390.722C523.381 392.196 524.081 393.678 524.77 395.129C557.179 463.067 596.314 508.53 641.087 530.254C687.207 552.358 742.543 550.437 801.113 524.697C806.117 522.495 811.23 520.073 816.307 517.5C870.371 490.085 919.837 445.312 965.868 401.799C978.84 389.564 991.698 376.883 1004.13 364.62C1043.86 325.45 1081.37 288.452 1123.78 263.284C1159.49 242.023 1188.87 239.486 1213.62 255.534C1225.23 263.072 1236.74 274.888 1248.84 291.653C1259.51 306.436 1269.22 323.039 1278.63 339.092C1284.25 348.695 1289.56 357.765 1294.92 366.205C1347.58 449.64 1401.29 536.408 1454.56 624.099L1454.4 624.278Z" fill="#FFE492"/>
<path d="M1452.23 621.649C1399.77 533.475 1347.08 445.741 1295.62 360.885C1290.43 352.348 1285.28 343.116 1279.82 333.343C1261.98 301.373 1241.75 265.137 1215.92 248.59C1190.93 232.607 1161.54 236.787 1126.08 261.366C1088.93 287.081 1054.8 323.39 1021.79 358.508C1005.23 376.115 988.117 394.323 970.677 411.171C943.149 437.79 919.988 458.096 897.785 475.079C870.407 496.019 844.79 511.614 819.472 522.755C814.275 525.043 809.022 527.17 803.862 529.076C776.974 539.003 750.571 544.027 725.313 544.03C723.91 544.03 722.514 544.013 721.119 543.982C691.917 543.335 664.734 535.85 640.326 521.739C628.544 514.89 617.006 506.197 606.035 495.899C595.723 486.22 585.589 474.819 575.914 462.015C558.508 438.979 542.237 411.193 526.175 377.075C525.486 375.607 524.799 374.136 524.115 372.66C514.796 352.53 505.979 331.487 497.454 311.136C492.531 299.389 487.443 287.24 482.317 275.416C466.536 238.984 453.169 212.102 438.968 188.26C437.058 185.053 435.09 181.838 433.114 178.701C397.172 121.614 350.724 76.2799 298.796 47.5927C236.186 13.0447 172.794 4.22282 120.298 22.7485C66.9253 41.637 13.3517 103.798 14.2237 186.058L14.0185 186.061C13.6123 147.745 24.7763 111.311 46.3022 80.6978C56.0321 66.8607 67.5224 54.7317 80.4573 44.64C93.0433 34.8217 106.429 27.3646 120.247 22.475C147.949 12.6986 178.41 10.4297 210.784 15.7323C239.867 20.4963 269.504 31.1266 298.872 47.3303C350.833 76.037 397.307 121.4 433.272 178.52C435.248 181.66 437.22 184.878 439.13 188.084C453.337 211.94 466.711 238.83 482.496 275.276C487.621 287.104 492.712 299.252 497.632 310.999C506.158 331.347 514.972 352.387 524.29 372.512C524.973 373.989 525.658 375.459 526.348 376.925C560.478 449.425 597.787 496.711 640.406 521.482C699.435 555.609 761.846 544.303 803.808 528.808C808.965 526.902 814.213 524.778 819.409 522.49C877.638 496.864 930.773 449.417 970.558 410.945C987.996 394.102 1005.11 375.895 1021.66 358.29C1054.68 323.167 1088.82 286.847 1125.99 261.121C1141.86 250.122 1156.22 243.368 1169.89 240.477C1186.75 236.91 1202.27 239.556 1216 248.342C1227.57 255.751 1238.98 267.663 1250.88 284.754C1261.36 299.813 1270.83 316.773 1279.98 333.178C1285.44 342.949 1290.59 352.178 1295.78 360.71C1347.24 445.566 1399.93 533.299 1452.39 621.473L1452.23 621.649Z" fill="#FFE492"/>
<path d="M1450.05 619.019L1296.48 355.384C1291.46 346.774 1286.48 337.406 1281.21 327.49C1263.81 294.764 1244.08 257.674 1218.3 241.4C1193.36 225.665 1163.08 231.655 1128.3 259.203C1094.87 285.685 1064.38 320.903 1034.89 354.963C1015.67 377.164 995.792 400.119 975.37 420.322C913.989 481.045 860.345 516.91 806.552 533.195C784.236 539.949 762.222 543.348 740.873 543.348C734.401 543.348 727.995 543.036 721.657 542.41C691.766 539.463 664.169 529.556 639.635 512.967C616.896 497.589 596.094 475.882 576.048 446.6C560.039 423.219 544.694 395.344 527.756 358.876C518.816 339.63 510.159 319.633 501.788 300.296C482.841 256.535 463.25 211.284 438.995 171.459C401.791 110.375 352.957 62.473 297.773 32.9291C234.767 -0.803973 171.203 -8.66859 118.792 10.7864C68.0502 29.6219 12.9766 89.0168 11.963 174.919L11.7578 174.914C12.2113 136.517 23.7242 100.088 45.051 69.5646C64.3343 41.9658 90.5035 20.9954 118.739 10.5157C146.41 0.245389 176.905 -2.52035 209.371 2.29946C238.524 6.62528 268.292 16.8454 297.849 32.6695C325.155 47.288 351.088 66.5309 374.93 89.8653C398.972 113.395 420.58 140.784 439.151 171.274C463.416 211.114 483.013 256.376 501.964 300.148C510.336 319.483 518.992 339.476 527.93 358.719C552.643 411.93 587.684 477.517 639.727 512.71C699.411 553.069 763.365 545.974 806.507 532.916C860.273 516.643 913.892 480.791 975.249 420.09C995.662 399.896 1015.54 376.941 1034.76 354.745C1064.25 320.68 1094.75 285.454 1128.2 258.957C1163.04 231.361 1193.38 225.367 1218.38 241.143C1229.93 248.43 1241.23 260.445 1252.94 277.879C1263.24 293.226 1272.46 310.56 1281.38 327.322C1286.65 337.238 1291.63 346.601 1296.64 355.208L1450.22 618.843L1450.05 619.019Z" fill="#FFE492"/>
<path d="M1448.82 598.752C1409.71 525.347 1376.16 465.782 1343.22 411.302C1327.24 384.836 1310.91 358.786 1294.7 333.875C1289.79 326.34 1284.93 318.325 1279.79 309.838C1266.86 288.507 1253.5 266.451 1238.11 250.083C1229.85 241.278 1221.9 234.973 1213.81 230.809C1188.95 217.901 1159.79 226.436 1127.14 256.178C1110.24 271.547 1094.85 289.037 1082.02 304.119C1068.45 320.086 1055.05 337.693 1042.1 354.72C1023.48 379.196 1004.23 404.503 983.539 426.238C970.947 439.503 958.182 451.356 945.598 461.47C920.422 481.704 893.4 498.376 865.281 511.025C847.908 518.752 830.451 524.594 813.398 528.384C798.701 531.638 783.977 533.516 769.632 533.965C748.164 534.641 727.247 532.065 707.463 526.302C686.428 520.173 666.521 510.391 648.296 497.224C632.046 485.483 616.696 470.7 601.371 452.026C572.813 417.258 550.036 377.055 533.383 345.915C525.202 330.546 517.214 314.872 509.489 299.715C487.245 256.063 466.234 214.834 439.942 178.109C418.498 148.353 394.032 122.675 367.216 101.782C346.61 85.7266 324.197 72.5956 300.603 62.7523C294.983 60.4108 289.257 58.2283 283.587 56.2719C259.179 47.8631 231.7 42.3874 201.918 39.9957C171.891 37.5286 145.913 39.6636 122.503 46.5291C109.269 50.3804 96.4467 56.4226 84.388 64.4854C41.8164 92.9521 14.4796 140.74 11.2623 192.32L11.0059 192.29C11.8635 178.539 14.3812 164.995 18.4869 152.029C22.3875 139.713 27.7448 127.835 34.4092 116.725C47.0014 95.7374 64.2451 77.5633 84.2752 64.17C96.3523 56.0933 109.195 50.0427 122.45 46.1858C145.884 39.3147 171.883 37.1769 201.934 39.6468C231.733 42.0386 259.226 47.5198 283.651 55.9342C289.326 57.8934 295.055 60.0759 300.679 62.4202C324.292 72.2691 346.723 85.4112 367.346 101.481C394.18 122.387 418.666 148.088 440.12 177.864C466.429 214.611 487.444 255.851 509.696 299.514C517.42 314.671 525.407 330.342 533.586 345.708C550.231 376.835 572.998 417.017 601.539 451.764C616.848 470.418 632.181 485.187 648.413 496.914C684.081 522.682 724.861 535.032 769.624 533.617C783.956 533.167 798.67 531.289 813.355 528.038C830.396 524.248 847.84 518.412 865.199 510.69C893.301 498.05 920.307 481.389 945.467 461.166C958.043 451.06 970.799 439.213 983.381 425.959C1004.06 404.235 1023.31 378.934 1041.92 354.466C1054.88 337.436 1068.27 319.823 1081.85 303.851C1094.68 288.761 1110.08 271.265 1126.99 255.885C1141.53 242.642 1155.61 233.494 1168.84 228.691C1185.09 222.791 1200.25 223.394 1213.9 230.483C1222.02 234.66 1229.99 240.982 1238.27 249.806C1253.68 266.2 1267.05 288.27 1279.99 309.614C1285.13 318.099 1289.99 326.114 1294.89 333.644C1311.11 358.557 1327.44 384.61 1343.42 411.081C1376.36 465.567 1409.91 525.138 1449.02 598.549L1448.82 598.752Z" fill="#FFE492"/>
<path d="M1447.58 578.48C1411.32 503.833 1377.29 441.368 1343.54 387.518C1327.08 361.215 1310.05 335.929 1292.92 312.366C1288.37 306.115 1283.88 299.618 1279.13 292.741C1264.9 272.147 1250.18 250.853 1233.7 236.12C1225.38 228.649 1217.4 223.447 1209.32 220.215C1178.35 207.835 1146.9 231.289 1125.97 253.144C1111.14 268.583 1097.59 286.04 1083.87 304.061C1071.86 319.835 1060.56 336.803 1048.6 354.765C1030.84 381.429 1012.48 409 991.707 432.15C979.377 445.962 966.51 457.904 953.462 467.644C929.158 485.79 902.544 499.881 872.099 510.726C855.06 516.794 837.611 521.117 820.236 523.57C805.576 525.615 790.942 526.347 776.739 525.735C755.609 524.837 734.955 520.796 715.348 513.726C694.756 506.3 675.107 495.449 656.95 481.475C641.042 469.235 625.682 454.047 609.992 435.047C581.496 400.588 557.085 362.387 539.004 332.954C532.311 322.059 525.725 311.096 519.354 300.491C493.983 258.26 470.019 218.368 440.887 184.76C419.115 159.642 394.671 138.404 368.239 121.637C348.24 108.949 327.042 99.4438 303.438 92.5755C297.99 90.9931 292.448 89.5669 286.968 88.3362C262.896 82.9582 237.204 80.9237 206.121 78.8194C183.715 77.2258 154.384 76.1764 126.206 82.2661C112.861 85.096 99.9606 90.0107 87.8609 96.8678C45.2605 121.017 16.3623 163.204 10.5556 209.722L10.252 209.652C11.7908 197.316 14.9096 185.218 19.516 173.689C23.907 162.704 29.6768 152.171 36.6633 142.375C49.9408 123.766 67.6031 107.894 87.7419 96.4799C99.8642 89.6088 112.789 84.6857 126.157 81.8502C154.361 75.7522 183.715 76.8044 206.135 78.3979C237.229 80.5022 262.928 82.5368 287.017 87.9175C292.502 89.1511 298.048 90.5772 303.502 92.1596C327.129 99.0363 348.347 108.55 368.369 121.251C394.827 138.036 419.291 159.291 441.086 184.434C470.239 218.066 494.212 257.97 519.592 300.218C525.961 310.82 532.547 321.783 539.24 332.675C557.317 362.097 581.717 400.284 610.197 434.726C625.869 453.706 641.213 468.877 657.102 481.104C692.804 508.58 733.061 523.453 776.749 525.311C790.94 525.92 805.559 525.191 820.205 523.146C837.564 520.695 854.998 516.378 872.021 510.313C902.441 499.479 929.033 485.399 953.317 467.27C966.348 457.541 979.199 445.616 991.514 431.818C1012.27 408.687 1030.62 381.127 1048.37 354.477C1060.34 336.507 1071.64 319.536 1083.66 303.754C1097.39 285.722 1110.94 268.26 1125.78 252.804C1139.36 238.635 1152.74 228.443 1165.57 222.504C1181.13 215.303 1195.88 214.396 1209.41 219.805C1217.52 223.051 1225.52 228.27 1233.87 235.763C1250.38 250.524 1265.11 271.838 1279.35 292.448C1284.1 299.322 1288.59 305.816 1293.14 312.065C1310.28 335.636 1327.31 360.93 1343.78 387.242C1377.53 441.106 1411.57 503.582 1447.83 578.245L1447.58 578.48Z" fill="#FFE492"/>
<path d="M1446.34 558.207C1412.41 481.305 1378.89 417.694 1343.87 363.738C1326.93 337.596 1309.19 313.078 1291.14 290.86C1287.28 286.11 1283.31 281.07 1279.47 276.197C1263.61 256.064 1247.21 235.247 1229.3 222.161C1220.89 215.976 1212.89 211.874 1204.84 209.621C1173.94 200.973 1144.27 226.866 1124.81 250.108C1111.62 265.799 1099.57 283.582 1087.91 300.782L1085.73 304.003C1075.14 319.606 1065.21 336.72 1054.7 354.841C1037.96 383.695 1020.65 413.53 999.882 438.061C987.799 452.44 974.829 464.471 961.332 473.82C937.799 490.122 911.61 501.754 878.918 510.428C862.012 514.913 844.572 517.715 827.078 518.753C812.454 519.588 797.911 519.169 783.847 517.503C741.272 512.482 701.49 495.062 665.608 465.727C650.096 453.045 634.726 437.458 618.621 418.067C591.366 385.322 567.125 351.665 544.635 319.997C541.619 315.752 538.636 311.535 535.675 307.352C504.957 263.957 475.944 222.967 441.846 191.419C419.585 170.823 395.166 154.028 369.27 141.497C350.258 132.298 329.653 126.052 306.283 122.402C301.016 121.584 295.658 120.911 290.358 120.403C277.025 119.148 262.884 118.944 247.912 118.729C235.886 118.556 223.452 118.377 210.33 117.649C184.988 116.122 156.266 114.395 129.912 118.012C116.315 119.879 103.337 123.663 91.3375 129.262C48.7535 149.132 18.2918 185.723 9.85261 227.142L9.50586 227.011C11.7301 216.091 15.448 205.438 20.555 195.349C25.4384 185.701 31.6186 176.508 38.9232 168.027C52.8942 151.806 70.9791 138.243 91.2185 128.798C103.244 123.186 116.249 119.393 129.873 117.523C156.254 113.904 184.99 115.634 210.342 117.16C223.456 117.886 235.89 118.067 247.912 118.241C262.89 118.455 277.036 118.659 290.381 119.918C295.685 120.429 301.048 121.101 306.32 121.919C329.719 125.572 350.348 131.826 369.387 141.039C395.314 153.584 419.76 170.399 442.045 191.018C476.173 222.593 505.201 263.602 535.931 307.017C538.892 311.2 541.877 315.414 544.892 319.662C567.378 351.324 591.61 384.974 618.857 417.707C634.945 437.076 650.299 452.649 665.792 465.314C701.628 494.612 741.358 512.008 783.878 517.023C797.925 518.686 812.454 519.105 827.061 518.27C844.537 517.232 861.961 514.433 878.848 509.954C911.507 501.288 937.666 489.67 961.168 473.391C974.636 464.061 987.581 452.052 999.644 437.698C1020.38 413.197 1037.68 383.38 1054.41 354.542C1064.93 336.413 1074.87 319.291 1085.46 303.676L1087.64 300.455C1099.31 283.247 1111.37 265.452 1124.57 249.746C1144.09 226.428 1173.87 200.459 1204.91 209.147C1213 211.41 1221.03 215.527 1229.46 221.737C1247.41 234.851 1263.83 255.69 1279.71 275.846C1283.55 280.718 1287.52 285.759 1291.38 290.506C1309.44 312.735 1327.19 337.267 1344.13 363.423C1379.17 417.4 1412.7 481.035 1446.64 557.962L1446.34 558.207Z" fill="#FFE492"/>
<path d="M1445.1 537.931C1413.94 459.868 1379.99 393.259 1344.18 339.959C1326.77 313.982 1308.33 290.229 1289.36 269.359C1286.62 266.345 1283.82 263.216 1281.1 260.191C1263.18 240.205 1244.64 219.536 1224.89 208.205C1216.42 203.291 1208.4 200.291 1200.36 199.029C1169.55 194.195 1141.64 222.486 1123.65 247.071C1112.47 262.259 1102.39 279.149 1092.64 295.484C1090.95 298.311 1089.26 301.133 1087.57 303.943C1078.3 319.382 1069.63 336.629 1060.44 354.887C1044.83 385.927 1028.69 418.022 1008.05 443.977C995.927 459.218 983.218 471.001 969.192 480.004C939.854 498.834 910.536 505.803 885.727 510.14C868.947 513.07 851.514 514.354 833.909 513.946C819.331 513.57 804.876 511.998 790.948 509.28C749.65 501.24 710.39 481.29 674.259 449.986C659.226 436.963 643.847 420.972 627.241 401.098C610.468 381.071 594.837 361.8 579.719 343.163C569.445 330.495 559.74 318.531 550.262 307.052C514.437 263.66 481.622 225.509 442.803 198.086C420.065 182.024 395.67 169.667 370.297 161.358C352.112 155.403 332.672 152.503 309.123 152.227C304.043 152.176 298.868 152.257 293.745 152.469C285.962 152.813 277.911 153.53 269.389 154.292C253.036 155.751 234.498 157.406 214.529 156.48C206.925 156.125 199.167 155.626 191.663 155.14C172.364 153.893 152.408 152.603 133.607 153.756C119.8 154.604 106.742 157.261 94.8 161.654C52.2878 177.297 20.2647 208.295 9.13545 244.573L8.75586 244.358C11.6695 234.858 15.9866 225.654 21.5861 216.999C26.9639 208.688 33.5545 200.838 41.1709 193.668C55.8477 179.853 74.3533 168.598 94.6892 161.115C106.66 156.711 119.746 154.046 133.584 153.198C152.406 152.042 172.37 153.335 191.68 154.582C199.181 155.068 206.939 155.567 214.542 155.922C234.492 156.848 253.016 155.196 269.361 153.736C277.886 152.975 285.94 152.257 293.73 151.914C298.86 151.702 304.039 151.621 309.125 151.671C332.707 151.945 352.175 154.853 370.391 160.817C395.795 169.136 420.223 181.508 442.99 197.592C460.525 209.978 478.294 225.671 497.312 245.564C514.339 263.372 530.901 282.858 550.533 306.636C560.011 318.118 569.716 330.082 579.992 342.75C595.107 361.384 610.738 380.655 627.508 400.68C644.097 420.534 659.459 436.508 674.475 449.517C710.557 480.78 749.761 500.701 791.001 508.73C804.913 511.446 819.349 513.014 833.911 513.391C851.496 513.798 868.91 512.517 885.669 509.587C910.447 505.258 939.727 498.298 969.013 479.502C983 470.523 995.677 458.771 1007.77 443.569C1028.37 417.659 1044.5 385.589 1060.1 354.575C1069.29 336.306 1077.97 319.05 1087.25 303.594C1088.94 300.784 1090.63 297.962 1092.31 295.138C1102.07 278.792 1112.16 261.89 1123.35 246.683C1135.05 230.689 1147.06 218.384 1159.04 210.112C1173.23 200.313 1187.15 196.4 1200.4 198.482C1208.47 199.749 1216.54 202.763 1225.05 207.698C1244.84 219.059 1263.41 239.753 1281.36 259.764C1284.07 262.789 1286.87 265.918 1289.61 268.929C1308.59 289.816 1327.05 313.591 1344.47 339.588C1363.49 367.89 1382.11 400.135 1399.81 435.428C1415.47 466.622 1430.82 501.022 1445.45 537.669L1445.1 537.931Z" fill="#FFE492"/>
<path d="M1443.86 517.65C1415.02 437.349 1381.6 369.565 1344.51 316.179C1326.62 290.366 1307.47 267.38 1287.59 247.856C1286.65 246.926 1285.7 245.997 1284.75 245.065C1264.08 224.736 1242.71 203.716 1220.51 194.252C1211.9 190.585 1203.85 188.684 1195.9 188.438C1165.21 187.495 1139.04 218.15 1122.49 244.029C1112.76 259.17 1104.11 275.764 1095.75 291.812C1093.69 295.78 1091.55 299.883 1089.44 303.879C1081.4 319.101 1073.93 336.407 1066.02 354.731C1051.64 388.063 1036.76 422.527 1016.23 449.888C1004.35 465.718 991.538 477.59 977.062 486.186C948.544 503.118 919.586 507.564 892.543 509.847C875.867 511.254 858.441 511.014 840.748 509.135C826.217 507.545 811.854 504.823 798.055 501.05C758.163 490.166 719.424 467.688 682.92 434.24C668.301 420.847 653.351 404.922 635.875 384.125C602.662 344.707 577.999 316.943 555.909 294.106C511.973 248.685 478.439 221.962 443.786 204.754C420.585 193.233 396.216 185.315 371.349 181.218C354.098 178.377 335.789 178.631 311.988 182.05C307.11 182.759 302.12 183.593 297.155 184.534C292.464 185.435 287.7 186.468 282.654 187.559C264.026 191.592 242.91 196.163 218.743 195.309C206.006 194.86 192.995 193.629 180.413 192.44C166.114 191.09 151.328 189.691 137.31 189.502C123.255 189.312 110.117 190.841 98.2715 194.051C55.9009 205.524 22.3122 230.935 8.42326 262.022L8.0293 261.695C11.6364 253.619 16.5527 245.863 22.6405 238.643C28.517 231.672 35.5138 225.166 43.438 219.302C58.8309 207.91 77.7612 198.963 98.1812 193.434C110.059 190.219 123.226 188.684 137.314 188.874C151.344 189.064 166.138 190.462 180.444 191.815C193.022 193.004 206.026 194.235 218.754 194.684C242.877 195.536 263.97 190.97 282.578 186.942C287.626 185.848 292.394 184.819 297.087 183.914C302.059 182.974 307.053 182.139 311.934 181.428C335.772 178.006 354.112 177.749 371.401 180.599C396.302 184.701 420.707 192.63 443.94 204.168C478.64 221.398 512.209 248.149 556.184 293.609C578.282 316.455 602.953 344.227 636.175 383.656C653.638 404.436 668.571 420.344 683.174 433.724C719.63 467.125 758.311 489.571 798.143 500.439C811.924 504.207 826.27 506.922 840.781 508.513C858.453 510.388 875.857 510.628 892.512 509.225C919.514 506.945 948.423 502.51 976.875 485.617C991.298 477.054 1004.06 465.221 1015.9 449.447C1036.39 422.144 1051.25 387.716 1065.62 354.422C1073.54 336.086 1081.01 318.766 1089.06 303.522C1091.17 299.528 1093.31 295.426 1095.37 291.457C1103.74 275.396 1112.39 258.79 1122.14 243.625C1132.94 226.734 1144.26 213.375 1155.79 203.914C1169.3 192.831 1182.8 187.42 1195.91 187.819C1203.91 188.064 1212 189.976 1220.64 193.66C1242.92 203.157 1264.32 224.206 1285.02 244.565C1285.97 245.497 1286.92 246.43 1287.86 247.356C1307.77 266.903 1326.94 289.917 1344.84 315.757C1381.96 369.191 1415.42 437.028 1444.27 517.385L1443.86 517.65Z" fill="#FFE492"/>
<path d="M902.754 509.557C901.603 509.557 900.468 509.554 899.352 509.546C882.763 509.451 865.343 507.693 847.58 504.316C833.102 501.511 818.829 497.64 805.158 492.815C785.625 485.932 766.021 476.042 746.888 463.419C728.411 451.228 709.803 436.113 691.578 418.489C673.721 401.222 657.042 381.981 644.505 367.148C615.172 332.536 587.262 303.606 561.553 281.159C519.913 244.805 482.805 222.643 444.77 211.416C421.824 204.642 397.206 201.07 373.503 201.07C373.136 201.07 372.771 201.07 372.404 201.073C352.041 201.168 332.709 206.314 314.853 211.862C310.206 213.316 305.398 214.904 300.564 216.587C297.915 217.519 295.262 218.479 292.455 219.495C272.657 226.67 250.216 234.8 222.953 234.133C206.35 233.726 189.391 231.387 172.991 229.124C162.401 227.661 151.453 226.151 141.009 225.239C126.652 223.986 113.44 224.388 101.736 226.439C59.5916 233.818 24.4373 253.644 7.69629 279.476L7.31055 279.016C15.8975 265.768 28.8139 254.297 45.7006 244.92C61.8281 235.967 81.1831 229.336 101.671 225.749C113.405 223.695 126.652 223.288 141.042 224.547C151.496 225.459 162.451 226.972 173.044 228.434C189.434 230.698 206.383 233.036 222.964 233.441C250.157 234.108 272.559 225.99 292.324 218.828C295.133 217.81 297.786 216.849 300.437 215.917C305.275 214.234 310.087 212.644 314.738 211.19C332.624 205.633 351.99 200.478 372.401 200.381C396.482 200.266 421.541 203.85 444.879 210.74C464.509 216.537 483.54 225.069 503.055 236.824C521.85 248.146 541.075 262.458 561.828 280.579C587.558 303.042 615.488 331.995 644.839 366.629C657.366 381.454 674.033 400.68 691.872 417.928C728.852 453.69 767.01 478.659 805.285 492.148C818.938 496.967 833.192 500.833 847.65 503.635C865.39 507.006 882.785 508.764 899.352 508.856C925.275 509.002 955.376 507.813 984.733 491.723C999.593 483.58 1012.45 471.671 1024.03 455.32C1044.38 426.602 1057.87 389.743 1070.92 354.095C1077.63 335.759 1083.97 318.439 1090.86 303.447C1093.07 298.644 1095.3 293.696 1097.45 288.909C1104.73 272.739 1112.26 256.022 1120.93 240.569C1130.84 222.791 1141.47 208.371 1152.54 197.71C1165.36 185.349 1178.44 178.433 1191.4 177.155C1199.4 176.365 1207.52 177.172 1216.22 179.622C1239.49 186.17 1262.56 205.192 1286.1 225.78C1306.63 243.731 1327.07 266.602 1345.2 291.923C1365.33 319.969 1384.25 352.87 1401.43 389.712C1416.73 422.535 1430.75 458.666 1443.09 497.101L1442.62 497.381C1416.11 414.838 1383.21 345.876 1344.83 292.412C1326.73 267.127 1306.33 244.289 1285.83 226.369C1262.32 205.817 1239.3 186.831 1216.12 180.306C1207.46 177.87 1199.39 177.069 1191.43 177.853C1167.62 180.206 1142.72 202.627 1121.34 240.993C1112.68 256.418 1105.16 273.121 1097.89 289.275C1095.73 294.064 1093.5 299.015 1091.3 303.818C1084.42 318.783 1078.08 336.089 1071.38 354.408C1064.98 371.898 1058.36 389.986 1050.76 407.373C1042.15 427.084 1033.53 442.925 1024.41 455.805C1012.77 472.229 999.856 484.191 984.926 492.374C971.76 499.591 957.608 504.36 941.663 506.962C928.16 509.152 914.597 509.557 902.754 509.557Z" fill="#FFE492"/>
<path d="M935.656 510.955C925.194 510.955 915.144 510.106 906.153 509.247C889.621 507.667 872.209 504.388 854.403 499.498C839.987 495.482 825.805 490.464 812.25 484.578C775.134 468.495 738.49 441.722 700.226 402.737C683.538 385.737 667.806 367.446 653.128 350.171C624.147 316.164 595.237 288.591 567.194 268.212C525.952 238.241 487.365 222.308 445.758 218.071C422.051 215.657 397.051 216.642 373.459 220.918C353.712 224.496 335.096 233.131 317.717 241.665C313.369 243.811 308.744 246.156 303.973 248.631C302.781 249.254 301.579 249.887 300.36 250.526C280.344 261.053 257.696 272.965 228.63 272.965C228.139 272.965 227.651 272.962 227.156 272.953C207.492 272.683 187.414 268.865 167.996 265.17C160.297 263.705 152.336 262.192 144.697 260.967C129.776 258.578 116.853 257.872 105.189 258.815C62.7627 262.248 26.9519 276.135 6.94228 296.924L6.59961 296.313C16.4916 286.037 30.795 277.115 47.9587 270.511C64.8412 264.017 84.6189 259.708 105.154 258.048C116.851 257.101 129.807 257.808 144.761 260.202C152.408 261.427 160.371 262.943 168.072 264.405C187.472 268.095 207.531 271.91 227.159 272.18C256.83 272.593 279.848 260.484 300.153 249.803C301.37 249.164 302.574 248.531 303.766 247.906C308.541 245.427 313.168 243.083 317.52 240.937C334.928 232.386 353.579 223.74 373.379 220.151C397.008 215.869 422.049 214.881 445.795 217.298C466.414 219.397 486.073 224.354 505.893 232.447C526.307 240.783 546.444 252.257 567.455 267.528C595.532 287.935 624.48 315.542 653.491 349.582C668.164 366.852 683.885 385.132 700.558 402.114C738.772 441.047 775.36 467.78 812.416 483.839C825.95 489.713 840.114 494.726 854.51 498.736C872.291 503.62 889.679 506.897 906.186 508.471C933.964 511.122 963.514 512.484 992.585 497.813C1007.88 490.09 1020.83 478.106 1032.16 461.174C1052.34 431.013 1064.91 389.873 1075.99 353.576C1081.57 335.312 1086.84 318.062 1092.65 303.357C1094.75 298.052 1096.86 292.568 1098.9 287.265C1105.29 270.673 1111.89 253.518 1119.7 237.496C1128.75 218.83 1138.69 203.35 1149.27 191.483C1161.42 177.855 1174.07 169.438 1186.88 166.471C1194.88 164.615 1203.03 164.32 1211.79 165.559C1236.26 169.028 1261.11 186.169 1284.33 204.178C1305.77 220.806 1326.94 242.899 1345.54 268.067C1366.24 295.981 1385.31 329.211 1402.22 366.829C1417.34 400.47 1430.69 437.466 1441.9 476.795L1441.37 477.071C1417.55 393.474 1384.28 321.389 1345.15 268.608C1326.58 243.488 1305.45 221.437 1284.06 204.843C1260.89 186.875 1236.1 169.776 1211.73 166.321C1203.03 165.087 1194.93 165.383 1186.97 167.225C1163.33 172.703 1139.61 197.807 1120.18 237.914C1112.38 253.903 1105.78 271.042 1099.4 287.617C1097.36 292.922 1095.25 298.406 1093.15 303.717C1087.35 318.389 1082.09 335.622 1076.52 353.866C1065.41 390.22 1052.83 431.426 1032.58 461.688C1021.18 478.712 1008.16 490.763 992.782 498.53C979.432 505.267 965.033 509.169 948.755 510.45C944.354 510.812 939.971 510.955 935.656 510.955Z" fill="#FFE492"/>
<path d="M956.312 513.977C956.162 513.977 956.015 513.977 955.865 513.977C941.079 513.927 926.562 511.466 912.959 508.948C896.452 505.895 879.05 501.092 861.234 494.679C846.883 489.457 832.791 483.286 819.352 476.343C783.719 457.959 748.618 429.568 708.884 386.988C694.575 371.658 680.493 355.15 666.873 339.189C665.17 337.191 663.465 335.195 661.76 333.2C632.63 299.202 602.716 272.982 572.851 255.271C531.956 231.021 490.712 221.03 446.761 224.728C422.662 226.757 397.685 232.302 374.53 240.764C356.26 247.442 339.981 258.157 320.595 271.469C316.666 274.179 312.47 277.104 307.394 280.676L307.111 280.877C297.317 287.815 286.217 295.677 273.766 301.655C259.467 308.52 245.594 311.825 231.369 311.786C209.186 311.71 186.548 306.095 164.657 300.661C159.294 299.33 153.745 297.954 148.39 296.709C133.032 293.146 120.032 291.345 108.646 291.209C66.7225 290.706 29.3749 299.157 6.18081 314.389L5.91406 313.636C17.2751 306.173 32.6004 300.117 50.2319 296.121C67.8962 292.116 88.0987 290.129 108.652 290.374C120.071 290.511 133.104 292.314 148.495 295.886C153.854 297.131 159.402 298.507 164.768 299.838C186.632 305.263 209.242 310.873 231.371 310.948C231.469 310.948 231.57 310.948 231.668 310.948C263.322 310.948 287.437 293.868 306.827 280.135L307.113 279.934C312.191 276.359 316.387 273.434 320.318 270.724C339.737 257.389 356.045 246.655 374.372 239.957C397.566 231.479 422.584 225.925 446.724 223.893C468.232 222.085 488.518 223.463 508.747 228.113C530.546 233.123 551.596 241.755 573.097 254.506C603.019 272.25 632.985 298.512 662.162 332.566C663.867 334.562 665.572 336.56 667.275 338.558C680.889 354.514 694.967 371.016 709.264 386.335C748.947 428.862 783.996 457.214 819.569 475.567C832.99 482.502 847.062 488.662 861.392 493.878C879.183 500.283 896.56 505.077 913.041 508.125C942.561 513.589 971.461 517.379 1000.45 503.939C1016.19 496.643 1029.22 484.584 1040.29 467.069C1060.3 435.429 1071.23 391.587 1080.87 352.903C1085.39 334.793 1089.65 317.685 1094.46 303.31C1096.31 297.778 1098.17 292.057 1099.96 286.523C1105.58 269.22 1111.38 251.33 1118.5 234.462C1126.69 214.901 1135.95 198.357 1146.02 185.29C1157.49 170.398 1169.72 160.485 1182.37 155.83C1190.21 152.944 1198.21 151.538 1206.8 151.538C1206.99 151.538 1207.18 151.538 1207.37 151.54C1234.09 151.73 1261.6 168.246 1282.58 182.614C1304.92 197.922 1326.82 219.233 1345.91 244.244C1367.17 272.03 1386.39 305.587 1403.03 343.986C1417.97 378.445 1430.65 416.309 1440.72 456.53L1440.14 456.801C1425.15 396.954 1396.56 311.604 1345.48 244.85C1326.44 219.894 1304.59 198.633 1282.3 183.362C1261.38 169.033 1233.96 152.565 1207.36 152.378C1198.6 152.308 1190.49 153.709 1182.53 156.639C1159.1 165.266 1136.55 193.052 1119.03 234.878C1111.93 251.707 1106.13 269.577 1100.52 286.86C1098.73 292.398 1096.87 298.122 1095.02 303.656C1090.22 317.995 1085.96 335.081 1081.45 353.171C1071.79 391.925 1060.85 435.85 1040.76 467.613C1029.61 485.246 1016.49 497.386 1000.65 504.729C987.227 510.949 972.717 513.977 956.312 513.977Z" fill="#FFE492"/>
<path d="M972.73 517.906C969.546 517.906 966.292 517.767 962.959 517.488C948.375 516.268 934.201 512.609 919.756 508.646C903.011 504.052 886.099 497.907 868.055 489.858C853.779 483.434 839.779 476.116 826.444 468.103C792.615 447.808 759.027 417.932 717.536 371.236C707.232 359.64 696.932 347.477 686.97 335.714C681.547 329.312 675.941 322.689 670.387 316.222C640.91 281.995 609.997 257.134 578.505 242.326C536.896 222.76 494.131 219.176 447.764 231.372C423.267 237.816 398.312 247.922 375.6 260.595C357.355 270.776 341.462 285.074 324.635 300.211L323.471 301.258C320.843 303.63 318.186 306.036 315.496 308.469C313.947 309.873 312.387 311.285 310.813 312.709C301.002 321.631 290.404 330.939 278.251 338.103C264.14 346.419 250.183 350.511 235.578 350.611C211.264 350.773 186.463 343.087 162.482 335.647C159.059 334.583 155.518 333.487 152.081 332.446C135.968 327.562 123.265 324.751 112.098 323.596C70.8933 319.334 32.0068 322.337 5.40665 331.837L5.23633 330.961C31.9062 321.436 70.8728 318.422 112.15 322.692C123.347 323.85 136.082 326.669 152.226 331.561C155.665 332.605 159.207 333.702 162.631 334.765C186.32 342.113 210.807 349.707 234.799 349.707C235.057 349.707 235.316 349.707 235.576 349.704C266.609 349.492 288.699 331.726 310.446 311.955C312.02 310.532 313.579 309.12 315.128 307.716C317.818 305.28 320.474 302.877 323.104 300.502L324.267 299.455C341.123 284.292 357.044 269.97 375.348 259.755C398.101 247.057 423.099 236.934 447.639 230.479C494.123 218.252 537.003 221.847 578.725 241.467C610.294 256.314 641.279 281.231 670.822 315.533C676.376 322.002 681.984 328.622 687.407 335.027C697.365 346.788 707.663 358.948 717.961 370.535C759.402 417.179 792.944 447.013 826.713 467.275C840.029 475.273 854.008 482.582 868.265 488.996C886.282 497.033 903.169 503.171 919.889 507.756C945.27 514.719 976.859 523.388 1008.32 510.036C1024.49 503.173 1037.61 491.039 1048.42 472.937C1068.24 439.782 1077.42 393.15 1085.53 352.01C1089.05 334.137 1092.38 317.255 1096.26 303.245C1097.77 297.786 1099.29 292.14 1100.75 286.678C1105.67 268.362 1110.75 249.423 1117.28 231.411C1124.64 210.94 1133.22 193.333 1142.75 179.077C1153.56 162.924 1165.37 151.517 1177.85 145.174C1185.85 141.102 1194.06 138.593 1202.93 137.502C1214.82 136.039 1227.46 137.602 1241.6 142.269C1253.56 146.22 1266.39 152.355 1280.81 161.026C1304.06 175.011 1326.7 195.543 1346.26 220.401C1368.09 248.056 1387.46 281.945 1403.83 321.123C1418.58 356.402 1430.59 395.134 1439.54 436.246L1438.9 436.503C1420.01 349.707 1386.95 273.196 1345.8 221.065C1326.29 196.274 1303.73 175.801 1280.54 161.858C1249.47 143.176 1224.83 135.721 1202.99 138.406C1194.18 139.489 1186.03 141.981 1178.08 146.022C1148.4 161.112 1128.96 201.005 1117.88 231.81C1111.37 249.778 1106.29 268.694 1101.38 286.988C1099.91 292.453 1098.39 298.101 1096.88 303.563C1093.01 317.531 1089.69 334.394 1086.17 352.244C1078.05 393.473 1068.84 440.203 1048.94 473.509C1038.04 491.753 1024.81 503.985 1008.51 510.904C997.463 515.593 985.68 517.906 972.73 517.906Z" fill="#FFE492"/>
<path d="M986.957 522.412C965.259 522.412 944.398 514.829 926.551 508.343C909.76 502.242 892.857 494.617 874.875 485.036C860.678 477.417 846.769 468.95 833.534 459.866C793.862 432.666 758.494 393.625 726.186 355.485C719.589 347.699 712.925 339.672 706.482 331.911C697.536 321.133 688.284 309.989 679.014 299.249C649.096 264.685 617.184 241.177 584.166 229.38C541.452 214.123 497.163 216.944 448.768 238.01C423.851 248.855 398.921 263.521 376.673 280.422C359.513 293.456 344.994 309.91 329.624 327.331C328.534 328.565 327.443 329.804 326.345 331.043L325.75 331.718C322.014 335.958 318.15 340.339 314.233 344.738C304.848 355.323 294.513 366.272 282.559 374.636C268.682 384.345 254.693 389.187 239.786 389.439C213.621 389.882 186.953 379.877 161.165 370.201C159.358 369.523 157.558 368.848 155.767 368.181C138.761 361.834 126.356 358.072 115.547 355.979C75.3758 348.204 34.9462 345.759 4.62404 349.273L4.5625 348.299C34.9339 344.777 75.423 347.224 115.647 355.011C126.487 357.109 138.919 360.88 155.956 367.237C157.747 367.904 159.547 368.58 161.356 369.261C187.095 378.917 213.711 388.897 239.776 388.462C272.148 387.915 294.946 365.217 313.773 343.984C317.69 339.586 321.554 335.204 325.29 330.967L325.885 330.292C326.983 329.05 328.075 327.814 329.164 326.58C344.561 309.129 359.105 292.646 376.322 279.568C398.611 262.636 423.588 247.945 448.549 237.08C471.493 227.095 493.043 221.329 514.429 219.453C538.286 217.363 561.809 220.386 584.346 228.437C617.469 240.27 649.476 263.845 679.478 298.504C688.754 309.249 698.008 320.396 706.956 331.177C713.399 338.938 720.059 346.962 726.654 354.746C758.929 392.843 794.254 431.843 833.855 458.992C847.07 468.062 860.959 476.519 875.136 484.127C893.091 493.694 909.968 501.307 926.733 507.4C952.476 516.755 984.513 528.398 1016.17 516.146C1032.78 509.716 1045.99 497.506 1056.54 478.818C1076.15 444.103 1083.49 394.602 1089.96 350.925C1092.56 333.376 1095.02 316.801 1098.05 303.19C1099.17 298.155 1100.29 292.953 1101.38 287.921C1105.64 268.24 1110.04 247.887 1116.06 228.37C1122.6 206.973 1130.48 188.296 1139.48 172.866C1149.63 155.454 1161.01 142.554 1173.31 134.525C1181.3 129.312 1189.54 125.697 1198.49 123.473C1210.54 120.479 1223.92 120.579 1238.25 123.772C1250.8 126.568 1264.52 131.84 1279.03 139.445C1303.19 152.107 1326.56 171.858 1346.6 196.563C1369 224.089 1388.52 258.305 1404.62 298.264C1419.18 334.364 1430.52 373.966 1438.35 415.968L1437.65 416.208C1421.07 327.208 1388.57 249.461 1346.12 197.288C1326.14 172.665 1302.85 152.978 1278.77 140.358C1247.56 124.001 1221.34 118.79 1198.62 124.436C1189.73 126.644 1181.56 130.233 1173.62 135.407C1144.35 154.51 1126.52 196.708 1116.72 228.747C1110.71 248.213 1106.32 268.539 1102.07 288.195C1100.98 293.227 1099.86 298.432 1098.74 303.472C1095.72 317.038 1093.26 333.591 1090.67 351.117C1087.55 372.13 1084.02 395.944 1078.9 418.271C1073.03 443.852 1065.9 463.851 1057.11 479.413C1052.03 488.411 1046.19 496.069 1039.76 502.175C1032.83 508.742 1024.96 513.76 1016.37 517.087C1006.53 520.896 996.658 522.412 986.957 522.412Z" fill="#FFE492"/>
<path d="M999.786 527.354C992.613 527.354 985.097 526.405 977.158 524.51C961.523 520.779 946.557 514.008 933.351 508.038C916.707 500.511 899.328 491.148 881.7 480.211C867.594 471.408 853.775 461.791 840.631 451.621C802.903 422.465 770.4 383.697 734.842 339.73C731.682 335.823 728.473 331.838 725.37 327.981C713.152 312.801 700.518 297.106 687.647 282.275C657.233 247.306 624.323 225.155 589.832 216.436C546.324 205.437 499.202 214.926 449.779 244.643C424.418 259.892 399.511 279.116 377.751 300.24C361.367 316.145 347.88 334.897 333.601 354.751C332.151 356.769 330.694 358.792 329.229 360.824C325.583 365.886 321.655 371.32 317.661 376.759C309.283 388.205 299.073 401.246 286.875 411.162C273.22 422.264 259.195 427.86 244.003 428.265C216.193 429.01 187.883 416.484 160.506 404.372L159.463 403.912C146.059 397.984 131.878 391.995 119.005 388.358C79.7655 377.276 38.8702 369.581 3.85547 366.693L3.90266 365.649C38.9543 368.54 79.8866 376.24 119.161 387.334C132.071 390.982 146.276 396.979 159.701 402.915L160.744 403.376C188.062 415.46 216.314 427.955 243.989 427.215C275.951 426.361 298.024 402.103 317.117 376.014C321.112 370.578 325.035 365.144 328.681 360.084C330.146 358.055 331.603 356.029 333.053 354.014C347.357 334.126 360.868 315.341 377.306 299.383C399.106 278.217 424.061 258.958 449.469 243.68C472.657 229.74 495.475 220.134 517.287 215.133C542.208 209.42 566.664 209.509 589.975 215.401C624.598 224.153 657.629 246.382 688.146 281.471C701.027 296.316 713.667 312.017 725.891 327.205C728.994 331.059 732.203 335.045 735.363 338.952C770.886 382.877 803.355 421.603 841.014 450.709C854.14 460.862 867.939 470.465 882.025 479.256C899.627 490.177 916.978 499.526 933.598 507.042C959.65 518.825 992.073 533.485 1024.05 522.252C1041.1 516.26 1054.39 503.978 1064.68 484.698C1084.07 448.375 1089.69 393.627 1094.2 349.635C1095.95 332.499 1097.61 316.315 1099.86 303.142C1100.57 298.99 1101.28 294.711 1101.97 290.572C1105.56 269.072 1109.28 246.837 1114.85 225.336C1123.45 191.877 1139.8 147.117 1168.8 123.889C1176.81 117.475 1185.07 112.753 1194.06 109.454C1217.57 100.699 1245.57 103.532 1277.27 117.869C1302.34 129.208 1326.44 148.177 1346.97 172.729C1369.93 200.124 1389.6 234.669 1405.44 275.412C1412.7 294.1 1419.12 314.06 1424.52 334.738C1429.68 354.488 1433.94 374.998 1437.17 395.698L1436.42 395.916C1422.17 304.705 1390.22 225.721 1346.46 173.513C1326.01 149.054 1302 130.157 1277.03 118.859C1245.47 104.587 1217.63 101.763 1194.26 110.462C1185.34 113.735 1177.14 118.421 1169.19 124.787C1140.39 147.854 1124.14 192.384 1115.58 225.679C1110.02 247.124 1106.31 269.328 1102.72 290.801C1102.03 294.94 1101.32 299.221 1100.61 303.377C1098.37 316.505 1096.71 332.667 1094.96 349.777C1092.69 371.914 1090.12 397.004 1085.72 420.685C1080.67 447.895 1073.99 469.036 1065.3 485.312C1060.35 494.598 1054.55 502.429 1048.07 508.585C1041.1 515.219 1033.08 520.159 1024.24 523.262C1016.48 525.992 1008.38 527.354 999.786 527.354Z" fill="#FFE492"/>
<path d="M1011.6 532.573C1003 532.573 993.937 531.058 984.252 528.018C968.56 523.098 953.462 514.932 940.142 507.726C923.372 498.656 906.003 487.774 888.517 475.38C874.503 465.403 860.776 454.636 847.718 443.374C811.786 412.41 780.968 372.501 748.339 330.253C746.724 328.162 745.11 326.069 743.491 323.976C728.317 304.351 712.629 284.056 696.274 265.301C665.33 229.888 631.423 209.091 595.495 203.487C550.367 196.445 501.679 212.523 450.781 251.269C425.321 270.649 399.766 295.077 378.82 320.052C363.005 338.91 350.32 360.129 336.891 382.595C335.301 385.255 333.707 387.923 332.1 390.597C328.891 395.947 325.072 402.29 321.075 408.779C313.672 420.827 303.585 436.138 291.18 447.656C277.742 460.134 263.687 466.494 248.21 467.094C235.489 467.527 221.45 464.856 205.29 458.925C191.415 453.835 177.994 447.181 163.143 439.646C149.586 432.683 135.279 425.491 122.442 420.741C84.4197 406.669 44.2569 394.348 3.07227 384.111L3.21999 383.014C44.4292 393.254 84.6146 405.586 122.658 419.663C135.529 424.427 149.857 431.631 163.43 438.599C188.323 451.234 219.304 466.963 248.188 465.978C281.21 464.694 302.432 437.383 320.445 408.059C324.44 401.576 328.257 395.235 331.464 389.888C333.07 387.214 334.665 384.546 336.253 381.889C349.705 359.387 362.412 338.131 378.279 319.212C399.267 294.187 424.872 269.711 450.381 250.295C501.433 211.432 550.289 195.312 595.59 202.379C612.958 205.089 630.02 211.382 646.295 221.083C663.758 231.49 680.751 246.083 696.803 264.45C713.177 283.224 728.875 303.53 744.057 323.17C745.676 325.266 747.293 327.356 748.908 329.446C781.505 371.658 812.297 411.528 848.159 442.434C861.199 453.678 874.905 464.431 888.899 474.392C906.36 486.767 923.702 497.634 940.447 506.691C966.764 520.924 999.518 538.638 1031.9 528.364C1049.45 522.799 1062.83 510.441 1072.8 490.587C1092.02 452.665 1095.45 394.735 1098.2 348.19C1099.18 331.542 1100.11 315.819 1101.65 303.103C1101.97 300.48 1102.29 297.843 1102.61 295.191C1105.48 271.243 1108.46 246.477 1113.63 222.308C1121.01 187.545 1135.79 140.408 1164.27 113.258C1172.22 105.684 1180.5 99.8567 1189.62 95.4415C1202.28 89.2486 1216.39 86.3378 1231.55 86.7843C1245.4 87.1918 1260.18 90.3929 1275.49 96.2955C1301.46 106.306 1326.3 124.494 1347.31 148.892C1370.84 176.153 1390.66 211.033 1406.23 252.558C1413.38 271.611 1419.56 291.982 1424.62 313.103C1429.46 333.331 1433.29 354.302 1435.98 375.431L1435.17 375.621C1423.42 283.548 1391.2 201.218 1346.78 149.74C1325.86 125.449 1301.13 107.336 1275.27 97.3644C1243.38 85.0679 1213.86 84.7665 1189.89 96.4881C1180.85 100.87 1172.62 106.652 1164.74 114.168C1136.46 141.131 1121.76 188.025 1114.42 222.615C1109.26 246.72 1106.29 271.45 1103.42 295.367C1103.1 298.018 1102.78 300.659 1102.46 303.282C1100.92 315.95 1100 331.654 1099.01 348.276C1096.25 394.956 1092.82 453.053 1073.48 491.218C1068.67 500.788 1062.92 508.798 1056.39 515.018C1049.36 521.711 1041.18 526.567 1032.09 529.453C1025.52 531.529 1018.73 532.573 1011.6 532.573Z" fill="#FFE492"/>
<path d="M1022.71 538.007C1012.91 538.007 1002.53 535.853 991.348 531.527C975.524 525.406 960.332 515.848 946.932 507.417C929.996 496.761 912.635 484.356 895.332 470.552C881.418 459.417 867.784 447.497 854.804 435.131C822.842 404.688 795.526 367.394 766.605 327.909C761.878 321.454 756.988 314.781 752.138 308.219C735.087 285.167 720.527 266.159 704.898 248.328C673.402 212.446 638.5 193.002 601.159 190.535C554.237 187.434 503.977 210.096 451.778 257.889C425.847 281.634 400.314 310.742 379.884 339.857C364.493 361.79 352.461 385.666 339.723 410.942C338.145 414.074 336.561 417.216 334.967 420.362C332.127 425.974 328.368 433.37 324.488 440.785C308.159 472.065 286.826 504.269 252.415 505.915C251.342 505.963 250.265 505.985 249.189 505.985C222.318 505.985 194.885 491.52 166.82 475.369L165.068 474.353C151.167 466.282 138.035 458.66 125.88 453.112C80.0723 432.203 35.7709 414.554 2.29297 401.515L2.53304 400.373C36.0191 413.418 80.3328 431.07 126.157 451.987C138.345 457.55 151.491 465.183 165.411 473.262L167.161 474.278C196.254 491.02 224.666 505.954 252.384 504.732C286.414 503.102 307.569 471.147 323.776 440.101C327.654 432.692 331.409 425.301 334.249 419.692C335.843 416.544 337.425 413.404 339.003 410.273C351.761 384.957 363.812 361.042 379.252 339.039C399.723 309.863 425.307 280.696 451.29 256.904C475.405 234.823 499.529 217.868 522.99 206.507C549.908 193.471 576.223 187.699 601.2 189.349C638.734 191.827 673.813 211.366 705.456 247.415C721.108 265.274 735.682 284.302 752.749 307.374C757.602 313.935 762.491 320.611 767.221 327.066C796.113 366.512 823.402 403.77 855.302 434.151C868.264 446.503 881.878 458.404 895.771 469.522C913.049 483.309 930.383 495.695 947.295 506.334C973.842 523.037 1006.88 543.823 1039.76 534.466C1057.74 529.35 1071.2 516.919 1080.92 496.465C1099.9 456.816 1101.04 395.626 1101.96 346.46C1102.26 330.418 1102.54 315.264 1103.45 303.054L1103.47 302.775C1105.5 275.433 1107.6 247.161 1112.41 219.267C1116.57 194.936 1122.38 173.061 1129.66 154.245C1137.86 133.032 1147.98 115.662 1159.74 102.615C1167.6 93.8847 1175.92 86.9494 1185.17 81.4152C1210.15 66.3753 1240.77 64.0533 1273.71 74.706C1286.97 78.9927 1300.04 85.487 1312.58 94.0047C1325.19 102.573 1336.99 113.019 1347.66 125.047C1371.76 152.177 1391.73 187.387 1407.03 229.699C1420.78 267.73 1430.38 311.114 1434.79 355.156L1433.93 355.315C1424.49 261.051 1392.84 177.454 1347.1 125.96C1325.71 101.841 1300.26 84.5158 1273.51 75.867C1240.76 65.2757 1210.33 67.5725 1185.52 82.5092C1176.34 88.0016 1168.09 94.8811 1160.29 103.541C1138.35 127.902 1122.09 168.015 1113.26 219.543C1108.46 247.365 1106.36 275.597 1104.34 302.9L1104.32 303.179C1103.41 315.345 1103.13 330.477 1102.83 346.496C1101.91 395.813 1100.76 457.187 1081.65 497.116C1076.97 506.978 1071.26 515.161 1064.69 521.435C1057.6 528.2 1049.28 532.975 1039.94 535.635C1034.38 537.215 1028.65 538.007 1022.71 538.007Z" fill="#FFE492"/>
<path d="M253.055 544.841C241.039 544.841 227.954 541.656 213.187 535.154C198.515 528.693 184.004 519.773 170.507 511.099C168.063 509.519 165.638 507.943 163.229 506.377C151.238 498.582 139.912 491.22 129.326 485.485C87.1179 462.625 46.8853 442.078 7.9762 422.213L1.5293 418.92L1.85348 417.745L8.30038 421.038C47.2116 440.909 87.4503 461.455 129.667 484.321C140.281 490.07 151.622 497.441 163.627 505.247C166.034 506.812 168.459 508.389 170.901 509.966C198.607 527.772 228.043 545.027 256.592 543.49C291.687 541.503 312.718 504.317 327.118 472.147C330.807 463.92 334.361 455.72 337.045 449.497C338.526 446.067 339.997 442.639 341.465 439.221C353.632 410.88 365.124 384.11 380.238 358.869C400.188 325.558 425.748 291.693 452.213 263.52C476.765 237.381 501.541 216.728 525.856 202.138C553.744 185.401 580.985 176.716 606.819 176.322C645.694 175.535 681.8 193.726 714.121 230.384C732.037 250.729 748.101 272.738 761.455 291.585C768.72 301.841 775.986 312.354 783.013 322.521C807.888 358.515 833.61 395.731 862.457 425.875C875.342 439.343 888.868 452.393 902.654 464.659C919.716 479.805 937.041 493.709 954.154 505.983C980.901 525.168 1014.19 549.044 1047.63 540.571C1066.04 535.907 1079.59 523.404 1089.05 502.347C1107.78 460.9 1106.51 396.359 1105.5 344.499C1105.2 329.163 1104.91 314.676 1105.25 303.013C1106.02 276.72 1107.18 246.163 1111.2 216.234C1114.58 190.874 1119.69 167.93 1126.38 148.043C1133.95 125.545 1143.66 106.685 1155.22 91.9826C1162.88 82.2398 1171.46 73.9705 1180.73 67.4008C1193.95 57.9956 1208.8 52.0818 1224.84 49.8268C1239.87 47.7141 1255.72 48.8249 1271.94 53.1256C1285.61 56.7537 1299.1 62.7205 1312.01 70.8643C1325 79.0582 1337.12 89.2671 1348.01 101.206C1360.57 114.954 1372.12 131.189 1382.34 149.46C1392.02 166.772 1400.6 186.079 1407.84 206.843C1421.39 245.689 1430.3 289.969 1433.61 334.887L1432.7 335.013C1425.57 238.553 1394.5 153.691 1347.43 102.186C1325.88 78.5698 1299.01 61.5847 1271.76 54.3591C1238.07 45.4256 1206.74 50.3208 1181.16 68.5144C1171.96 75.031 1163.45 83.2361 1155.85 92.9008C1134.06 120.603 1119.35 162.173 1112.1 216.46C1108.1 246.308 1106.94 276.813 1106.17 303.063C1105.83 314.684 1106.12 329.149 1106.42 344.466C1106.92 370.049 1107.49 399.049 1105.58 427.083C1103.37 459.613 1098.22 484.446 1089.84 503.003C1085.28 513.156 1079.61 521.515 1073 527.844C1065.86 534.682 1057.38 539.379 1047.8 541.804C1042.97 543.029 1038.14 543.585 1033.34 543.585C1004.6 543.585 976.753 523.608 953.725 507.091C936.588 494.798 919.235 480.874 902.152 465.706C888.345 453.423 874.8 440.354 861.896 426.866C832.99 396.66 807.242 359.405 782.342 323.378C775.317 313.214 768.053 302.703 760.792 292.452C747.457 273.628 731.416 251.65 713.532 231.344C681.385 194.881 645.491 176.797 606.834 177.573C546.126 178.499 489.552 225.355 452.783 264.502C426.372 292.62 400.863 326.412 380.956 359.656C365.888 384.821 354.412 411.549 342.263 439.846C340.796 443.265 339.322 446.692 337.841 450.125C335.155 456.351 331.599 464.556 327.908 472.792C321.863 486.297 312.374 505.956 299.804 520.691C293.7 527.847 287.204 533.471 280.496 537.408C273.017 541.798 264.986 544.266 256.631 544.737C255.447 544.807 254.255 544.841 253.055 544.841Z" fill="#FFE492"/>
<path d="M256.91 583.696C244.88 583.696 231.822 580.266 217.133 573.266C201.924 566.021 186.889 555.835 174.188 546.823C170.285 544.049 166.391 541.236 162.623 538.515C152.093 530.909 142.146 523.723 132.767 517.857C99.086 496.786 65.6245 476.214 33.2628 456.318C22.5584 449.738 11.4907 442.933 0.763672 436.325L1.16583 435.116C11.8929 441.725 22.9605 448.529 33.665 455.11C66.0267 475.006 99.4923 495.58 133.175 516.654C142.579 522.537 152.539 529.729 163.081 537.345C166.846 540.066 170.741 542.877 174.639 545.651C200.981 564.333 231.535 584.109 260.792 582.247C296.714 579.909 316.889 539.304 330.456 504.193C333.934 495.198 337.297 486.167 339.837 479.304C341.142 475.782 342.439 472.262 343.734 468.752C355.372 437.173 366.363 407.347 381.223 378.705C400.549 341.452 426.088 302.897 453.132 270.141C490.793 224.719 549.002 169.315 612.433 163.307C652.772 159.383 689.9 176.223 722.781 213.363C737.554 230.058 752.164 249.315 770.154 275.809C779.246 289.197 788.268 303.073 796.992 316.488C819.692 351.393 843.161 387.488 869.607 417.615C882.419 432.214 895.852 446.411 909.534 459.813C926.1 476.025 943.42 491.447 961.008 505.652C988.025 527.34 1021.65 554.336 1055.49 546.695C1074.05 542.592 1088.07 529.656 1097.18 508.251C1115.64 464.928 1111.68 394.052 1108.78 342.301C1107.97 327.777 1107.2 314.06 1107.05 302.995C1106.72 278.402 1106.75 245.975 1109.98 213.224C1115.57 156.472 1129.26 112.109 1150.69 81.3729C1158.2 70.5444 1166.81 61.1364 1176.29 53.4085C1189.76 42.4014 1204.97 34.9973 1221.49 31.4054C1237.05 28.0229 1253.42 28.076 1270.16 31.5645C1284.28 34.5731 1298.17 40.0264 1311.43 47.7682C1324.83 55.5882 1337.25 65.5515 1348.36 77.3819C1361.2 91.0515 1372.94 107.342 1383.23 125.803C1392.99 143.299 1401.54 162.88 1408.64 184.006C1421.98 223.67 1430.2 268.843 1432.43 314.641L1431.46 314.727C1426.66 216.065 1396.16 129.936 1347.76 78.4285C1325.82 55.0607 1298.21 38.8821 1270.01 32.8762C1235.25 25.634 1203.02 33.1274 1176.79 54.5472C1167.4 62.2109 1158.85 71.5435 1151.4 82.2855C1130.12 112.817 1116.51 156.93 1110.95 213.403C1107.72 246.064 1107.7 278.427 1108.03 302.972C1108.18 313.999 1108.95 327.699 1109.76 342.203C1111.25 368.954 1112.95 399.276 1111.98 428.879C1110.85 463.349 1106.29 489.53 1098.02 508.918C1093.57 519.375 1087.95 527.915 1081.31 534.3C1074.1 541.224 1065.47 545.835 1055.66 548.006C1040.43 551.442 1024.05 548.355 1005.56 538.568C989.492 530.058 974.097 517.7 960.516 506.799C942.901 492.574 925.559 477.13 908.968 460.895C895.265 447.474 881.813 433.258 868.983 418.639C842.482 388.45 818.986 352.317 796.264 317.376C787.543 303.963 778.524 290.095 769.44 276.719C751.48 250.272 736.898 231.052 722.159 214.396C689.474 177.468 652.581 160.728 612.499 164.627C549.341 170.613 491.325 225.847 453.776 271.131C426.786 303.821 401.3 342.295 382.015 379.469C367.196 408.031 356.221 437.815 344.602 469.346C343.307 472.86 342.01 476.379 340.705 479.901C338.163 486.769 334.798 495.809 331.316 504.812C317.63 540.236 297.251 581.203 260.835 583.573C259.54 583.654 258.229 583.696 256.91 583.696Z" fill="#FFE492"/>
<path d="M260.845 622.552C227.974 622.552 193.485 595.093 162.91 570.748C153.515 563.269 144.641 556.202 136.208 550.227L0 453.728L0.473988 452.492L136.682 548.991C145.137 554.98 154.022 562.055 163.429 569.546C195.186 594.831 231.181 623.49 264.994 621.006C301.707 618.313 321.048 574.29 333.796 536.242C337.966 523.798 341.991 511.136 345.886 498.889C356.537 465.399 367.549 430.768 382.205 398.536C393.843 372.944 408.301 346.104 424.014 320.922C441.251 293.296 459.708 267.949 478.866 245.589C499.989 220.937 521.468 200.544 542.703 184.98C566.19 167.766 589.329 156.527 611.481 151.573C655.856 141.652 696.216 156.709 731.436 196.33C760.705 229.254 785.582 269.967 809.64 309.34C830.581 343.612 852.234 379.047 876.753 409.339C905.075 444.326 935.727 476.613 967.861 505.3C994.936 529.472 1028.63 559.557 1063.36 552.795C1092.69 547.085 1109.65 520.393 1115.2 471.19C1119.92 429.339 1115.43 379.692 1111.82 339.802C1110.59 326.208 1109.43 313.367 1108.86 302.955C1105.71 245.553 1107.72 198.167 1114.99 158.093C1119.53 133.09 1126.22 110.802 1134.89 91.8491C1144.58 70.6777 1157.01 53.0283 1171.84 39.3922C1184.68 27.5953 1199.14 19.0274 1214.84 13.9257C1229.78 9.06962 1245.5 7.44256 1261.59 9.08916C1293.22 12.3265 1324.16 28.1116 1348.7 53.5335C1361.83 67.1222 1373.74 83.471 1384.12 102.122C1393.95 119.8 1402.47 139.656 1409.44 161.146C1422.56 201.627 1430.1 247.696 1431.24 294.367L1430.21 294.415C1427.79 195.027 1397.09 105.393 1348.08 54.647C1296.04 0.755667 1222.16 -5.17489 1172.41 40.5504C1123.14 85.846 1102.68 171.645 1109.88 302.852C1110.44 313.231 1111.61 326.055 1112.83 339.632C1116.45 379.608 1120.96 429.361 1116.21 471.402C1113.62 494.301 1108.43 512.704 1100.77 526.103C1096.46 533.636 1091.27 539.792 1085.33 544.397C1079.01 549.298 1071.67 552.588 1063.5 554.179C1060.16 554.829 1056.77 555.156 1053.31 555.156C1040.73 555.156 1027.33 550.827 1012.64 542.058C996.093 532.179 980.125 517.923 967.295 506.469C935.118 477.74 904.422 445.411 876.06 410.375C851.485 380.019 829.809 344.541 808.845 310.233C784.818 270.91 759.973 230.248 730.777 197.408C695.793 158.057 655.71 143.098 611.641 152.952C522.496 172.884 430.668 294.61 383.071 399.273C368.454 431.415 357.456 465.999 346.819 499.445C342.923 511.697 338.895 524.367 334.722 536.823C326.258 562.083 317.898 580.17 308.415 593.739C302.495 602.207 296.073 608.883 289.327 613.58C281.825 618.801 273.655 621.771 265.041 622.404C263.65 622.502 262.248 622.552 260.845 622.552Z" fill="#FFE492"/>
</g>
</svg>
