<svg width="2652" height="601" viewBox="0 0 2652 601" fill="none" xmlns="http://www.w3.org/2000/svg">
<g opacity="0.3">
<path d="M1014.67 600.273C1005.2 600.273 995.983 599.826 987.124 598.935C968.543 597.064 951.378 593.222 936.102 587.516C919.684 581.386 905.284 573.031 893.299 562.687C869.212 541.896 857.161 516.996 845.506 492.916C843.216 488.187 840.849 483.298 838.445 478.554C822.045 446.221 801.255 417.898 774.892 391.968C722.303 340.243 648.344 296.1 561.009 264.31C460.006 227.547 351.412 209.234 255.228 212.745C198.696 214.81 124.001 234.444 90.6179 267.975C70.8066 287.875 69.2091 309.959 86.0013 331.836L85.6678 331.929C76.8632 320.455 73.027 308.953 74.2691 297.742C75.4086 287.457 80.802 277.403 90.3028 267.861C105.413 252.682 130.332 239.23 162.367 228.956C191.968 219.464 224.937 213.628 255.206 212.523C305.542 210.687 359.077 214.762 414.323 224.637C464.403 233.59 513.82 246.873 561.199 264.118C648.586 295.926 722.589 340.093 775.208 391.849C801.585 417.797 822.386 446.135 838.797 478.486C841.204 483.23 843.571 488.121 845.857 492.849C857.502 516.912 869.545 541.794 893.6 562.555C916.862 582.636 948.351 594.801 987.186 598.71C1040.97 604.126 1106.27 592.8 1161.88 568.411C1242.01 533.266 1297.62 482.111 1351.41 432.643C1360.84 423.971 1370.58 415.005 1380.23 406.347C1405.29 383.865 1439.22 354.732 1479.55 328.779C1520.77 302.25 1562.65 282.759 1607.6 269.19C1635.12 260.885 1664.28 255.289 1694.27 252.559C1721.97 250.036 1751.3 249.88 1781.43 252.09C1833.11 255.883 1888.78 266.597 1951.64 284.842C2075.42 320.77 2199.05 364.379 2319.12 414.459C2433.25 462.059 2545.18 515.922 2651.8 574.546L2651.55 574.709C2430.53 453.183 2194.99 355.725 1951.48 285.04C1813.91 245.105 1704.69 240.13 1607.77 269.386C1509.17 299.148 1440.29 352.859 1380.54 406.469C1370.89 415.124 1361.14 424.09 1351.72 432.761C1297.92 482.248 1242.29 533.418 1162.1 568.587C1136.19 579.953 1107.04 588.817 1077.8 594.222C1062.36 597.077 1047 598.944 1032.17 599.771C1026.25 600.108 1020.41 600.273 1014.67 600.273Z" fill="#FFE492"/>
<path d="M1023.93 587.943C999.781 587.943 977.408 585.181 957.414 579.728C935.118 573.648 915.878 564.226 900.226 551.727C898.841 550.619 897.466 549.475 896.14 548.321C872.309 527.62 859.723 503.044 847.555 479.276C845.093 474.473 842.55 469.504 839.971 464.683C824.607 435.978 806.108 410.677 783.409 387.341C780.613 384.468 777.719 381.589 774.799 378.784C721.436 327.504 646.877 283.919 559.182 252.742C457.45 216.606 348.548 199.051 252.536 203.31C196.414 205.826 122.064 225.782 88.5382 259.055C68.463 278.98 66.1914 301.107 81.9613 323.048L81.6242 323.136C73.3582 311.637 69.9617 300.112 71.5335 288.888C72.9771 278.579 78.5904 268.503 88.2231 258.941C103.487 243.789 128.333 230.321 160.067 219.994C189.398 210.449 222.224 204.446 252.503 203.09C302.777 200.86 356.371 204.545 411.793 214.042C461.994 222.645 511.645 235.602 559.365 252.552C647.111 283.748 721.711 327.359 775.107 378.668C778.027 381.474 780.925 384.356 783.721 387.231C806.434 410.583 824.945 435.896 840.315 464.617C842.898 469.438 845.441 474.406 847.903 479.212C860.068 502.965 872.643 527.523 896.441 548.196C897.763 549.345 899.137 550.49 900.519 551.595C932.865 577.432 977.309 587.943 1024.05 587.943C1024.3 587.943 1024.56 587.943 1024.81 587.943C1024.52 587.941 1024.23 587.943 1023.93 587.943ZM1033.9 587.789C1077.36 586.449 1122.19 576.417 1160.66 561.494C1243.63 529.172 1303.26 479.249 1360.93 430.972C1363.31 428.982 1365.68 426.996 1368.06 425.01C1373.27 420.652 1379.45 415.492 1385.76 410.29C1414.06 386.962 1448.32 359.82 1487.77 335.389C1529.74 309.393 1571.68 290.103 1615.97 276.413C1643.18 268.01 1671.94 262.091 1701.44 258.82C1728.78 255.788 1757.67 254.932 1787.3 256.273C1838.49 258.591 1893.53 267.378 1955.57 283.14C2016.06 298.483 2065.78 312.927 2112.05 328.594C2177.59 350.81 2240.02 376.407 2292.45 398.515C2414.34 450.062 2533.93 508.593 2647.91 572.485L2647.66 572.646C2533.69 508.763 2414.11 450.236 2292.24 398.695C2239.82 376.59 2177.4 350.997 2111.87 328.787C2065.62 313.125 2015.91 298.686 1955.43 283.347C1820.29 249.01 1712.47 246.868 1616.14 276.611C1516.15 307.513 1444.95 361.885 1386.06 410.422C1379.74 415.624 1373.57 420.782 1368.35 425.143C1365.98 427.126 1363.6 429.114 1361.23 431.104C1303.54 479.397 1243.89 529.337 1160.85 561.683C1140.27 569.67 1118.36 576.014 1095.74 580.538C1074.68 584.745 1053.92 587.177 1033.9 587.789Z" fill="#FFE492"/>
<path d="M1034.15 575.896C1031.24 575.896 1028.35 575.858 1025.49 575.781C1001.36 575.141 979.024 571.814 959.113 565.891C937.338 559.412 918.472 549.816 903.043 537.368C901.672 536.258 900.306 535.111 898.987 533.958C875.423 513.358 862.314 489.11 849.64 465.663C846.998 460.776 844.265 455.722 841.495 450.817C825.373 422.209 806.386 397.111 783.442 374.089C780.602 371.243 777.664 368.388 774.699 365.605C720.563 314.772 645.403 271.746 557.35 241.181C454.893 205.673 345.683 188.872 249.839 193.88C195.876 196.744 121.741 215.561 86.4935 250.105C66.1288 270.062 63.1646 292.25 77.9196 314.268L77.5789 314.349C69.8478 302.814 66.8983 291.264 68.8035 280.019C70.5549 269.677 76.4027 259.575 86.182 249.99C101.608 234.874 126.373 221.402 157.803 211.027C186.858 201.435 219.534 195.269 249.806 193.662C300.022 191.041 353.674 194.334 409.268 203.452C459.594 211.707 509.476 224.336 557.533 240.991C645.638 271.577 720.838 314.626 775.007 365.489C777.971 368.273 780.914 371.128 783.753 373.979C806.708 397.014 825.706 422.127 841.835 450.751C844.605 455.658 847.339 460.712 849.98 465.599C862.651 489.033 875.75 513.263 899.284 533.839C900.603 534.992 901.962 536.137 903.332 537.242C966.027 587.825 1077.14 582.394 1159.43 554.576C1245.87 525.102 1310.1 476.115 1372.22 428.742L1372.86 428.256C1378.87 423.664 1385.1 418.918 1391.29 414.231C1456.63 364.789 1528.45 313.977 1624.33 283.631C1651.25 275.13 1679.62 268.887 1708.63 265.076C1735.61 261.532 1764.07 259.976 1793.19 260.451C1843.97 261.279 1898.37 268.143 1959.51 281.435C2023.76 295.354 2072.12 308.148 2116.29 322.921C2179.23 344.012 2240.19 370.664 2293.98 394.179C2413.74 446.815 2531.51 506.111 2644.03 570.414L2643.77 570.573C2531.27 506.276 2413.51 446.987 2293.76 394.355C2239.98 370.845 2179.03 344.197 2116.11 323.113C2071.95 308.344 2023.62 295.554 1959.39 281.639C1826.86 252.828 1720.45 253.521 1624.5 283.823C1528.68 314.149 1456.89 364.938 1391.57 414.363C1385.38 419.05 1379.16 423.798 1373.14 428.388L1372.51 428.874C1341.55 452.482 1309.54 476.892 1274.97 498.697C1236.13 523.2 1198.39 541.539 1159.61 554.763C1119.03 568.477 1074.83 575.896 1034.15 575.896Z" fill="#FFE492"/>
<path d="M2639.89 568.497C2528.85 503.786 2412.91 443.736 2295.29 390.014C2290.31 387.755 2285.32 385.486 2280.31 383.209C2229.37 360.047 2176.69 336.096 2120.36 317.438C2065.71 299.386 2010.32 288.349 1963.35 279.933C1833.69 256.559 1728.69 260.088 1632.88 291.035C1534.54 322.897 1458.33 375.797 1397.1 418.306C1393.43 420.857 1389.76 423.413 1386.09 425.971C1383.37 427.859 1380.66 429.748 1377.94 431.635C1343.08 455.863 1311.37 477.524 1276.33 497.29C1236.3 519.869 1197.72 536.406 1158.37 547.846C1121.5 558.569 1082.1 564.242 1045.46 564.244C1038.79 564.244 1032.21 564.057 1025.75 563.676C1002.15 562.287 980.306 558.384 960.82 552.075C939.558 545.191 921.066 535.413 905.849 523.01C904.49 521.899 903.134 520.75 901.822 519.594C878.537 499.102 864.918 475.195 851.75 452.076C848.914 447.097 845.979 441.946 843.011 436.947C826.12 408.428 806.642 383.531 783.471 360.831C780.587 358.006 777.601 355.177 774.596 352.419C719.684 302.032 643.926 259.566 555.517 229.61C452.335 194.73 342.821 178.689 247.146 184.439C181.739 188.447 114.856 211.751 84.4962 241.106C63.8128 261.105 60.1451 283.363 73.8815 305.473L73.5371 305.55C66.3446 293.973 63.8384 282.388 66.0881 271.115C68.1583 260.735 74.2479 250.6 84.1847 240.989C99.7715 225.916 124.456 212.444 155.571 202.032C184.348 192.401 216.855 186.074 247.109 184.221C297.266 181.205 350.973 184.108 406.74 192.848C457.186 200.755 507.306 213.058 555.7 229.417C644.165 259.39 719.962 301.881 774.908 352.298C777.916 355.059 780.902 357.889 783.786 360.714C806.972 383.427 826.457 408.338 843.359 436.87C846.327 441.871 849.262 447.02 852.098 452.002C865.259 475.107 878.871 498.998 902.126 519.466C903.438 520.62 904.79 521.767 906.146 522.876C971.596 576.224 1082.84 569.56 1158.21 547.646C1248.14 521.498 1316.95 473.68 1377.67 431.489C1380.38 429.601 1383.1 427.712 1385.81 425.825C1389.48 423.267 1393.15 420.712 1396.83 418.16C1431.78 393.897 1466.29 370.318 1504.24 348.591C1547.87 323.603 1589.9 304.714 1632.71 290.841C1659.35 282.236 1687.31 275.669 1715.82 271.326C1742.47 267.264 1770.48 265.01 1799.09 264.623C1849.54 263.94 1903.31 268.88 1963.46 279.722C2010.45 288.142 2065.86 299.184 2120.54 317.246C2176.89 335.911 2229.58 359.869 2280.54 383.036C2285.54 385.312 2290.54 387.581 2295.52 389.84C2413.14 443.566 2529.1 503.623 2640.15 568.341L2639.89 568.497Z" fill="#FFE492"/>
<path d="M2636.01 566.423C2524.33 500.061 2410.22 439.247 2296.82 385.672C2290.04 382.467 2283.1 379.163 2276.38 375.969C2228.31 353.092 2178.6 329.437 2124.61 311.762C2070.69 294.175 2014.84 284.939 1967.31 278.224C1840.81 260.18 1737.2 266.542 1641.26 298.246C1549.75 328.596 1478.05 374.234 1408.72 418.369L1401.1 423.214C1395.09 427.042 1388.87 430.998 1382.74 434.879C1313.34 478.761 1243.86 519.889 1157.13 540.925C1136.09 546.03 1114.48 549.567 1092.89 551.445C1069.72 553.459 1047.21 553.488 1025.98 551.529C1002.93 549.4 981.578 544.929 962.525 538.239C941.79 530.959 923.668 521.002 908.667 508.648C907.315 507.53 905.971 506.379 904.67 505.225C881.671 484.854 867.561 461.3 853.916 438.52C850.871 433.437 847.72 428.18 844.54 423.075C826.864 394.645 806.903 369.948 783.512 347.574C780.588 344.778 777.558 341.971 774.505 339.235C718.82 289.295 642.465 247.388 553.693 218.042C449.781 183.793 339.96 168.507 244.45 175.003C179.64 179.505 113.061 202.971 82.5474 232.071C61.5195 252.121 57.1264 274.465 69.8406 296.687L69.4925 296.76C62.8386 285.132 60.7831 273.503 63.3809 262.196C65.7772 251.773 72.1196 241.598 82.2323 231.957C97.9876 216.934 122.584 203.475 153.369 193.032C181.861 183.366 214.192 176.888 244.406 174.787C294.504 171.38 348.266 173.891 404.208 182.252C454.779 189.812 505.13 201.787 553.865 217.85C642.689 247.212 719.087 289.145 774.806 339.114C777.858 341.852 780.892 344.661 783.816 347.457C807.221 369.842 827.194 394.553 844.877 422.998C848.057 428.103 851.208 433.362 854.253 438.445C867.89 461.212 881.993 484.755 904.967 505.102C906.264 506.251 907.608 507.4 908.957 508.519C972.832 561.124 1078.96 559.647 1156.99 540.722C1243.65 519.704 1313.1 478.591 1382.47 434.729C1388.6 430.848 1394.82 426.893 1400.83 423.064L1408.45 418.219C1442.48 396.556 1477.67 374.153 1515.89 353.312C1559.18 329.71 1600.13 311.634 1641.08 298.052C1667.44 289.339 1695.01 282.449 1723 277.575C1749.32 272.992 1776.9 270.038 1804.97 268.794C1855.21 266.568 1908.33 269.584 1967.39 278.009C2014.94 284.727 2070.82 293.966 2124.77 311.568C2178.8 329.25 2228.52 352.912 2276.61 375.795C2283.32 378.989 2290.26 382.291 2297.05 385.498C2410.45 439.077 2524.58 499.896 2636.26 566.264L2636.01 566.423Z" fill="#FFE492"/>
<path d="M2632.12 564.349C2521.41 497.25 2409.11 435.674 2298.35 381.334C2290.03 377.25 2281.49 373.004 2273.24 368.898C2227.76 346.268 2180.73 322.868 2128.85 306.092C2075.19 288.807 2019.08 281.443 1971.27 276.521C1848.28 263.663 1746.07 272.86 1649.63 305.462C1565.47 334.033 1496.37 374.525 1429.54 413.683C1422.51 417.803 1415.24 422.063 1408.15 426.191C1399.83 431.038 1393.47 434.721 1387.54 438.129C1355.77 456.369 1317.94 477.372 1278.25 494.842C1236.18 513.353 1196.16 526.165 1155.89 534.01C1134.72 538.136 1113.2 540.738 1091.93 541.742C1069.09 542.82 1046.98 542.028 1026.21 539.384C1003.71 536.52 982.856 531.481 964.225 524.408C944.021 516.739 926.276 506.604 911.481 494.289C910.147 493.173 908.81 492.02 907.513 490.862C884.818 470.627 870.235 447.436 856.129 425.008C852.857 419.807 849.475 414.429 846.063 409.205C827.593 380.854 807.144 356.359 783.544 334.317C780.576 331.546 777.502 328.766 774.406 326.051C717.947 276.558 640.992 235.21 551.861 206.474C447.227 172.855 337.098 158.328 241.756 165.566C187.507 169.775 116.652 189.165 80.6491 222.991C59.2439 243.102 54.1069 265.547 65.7988 287.897L65.4507 287.963C59.3354 276.277 57.7379 264.596 60.6985 253.246C63.4318 242.77 70.038 232.551 80.3413 222.872C96.2651 207.911 120.77 194.474 151.214 184.009C179.42 174.314 211.557 167.688 241.712 165.348C291.752 161.549 345.573 163.669 401.683 171.651C452.375 178.862 502.961 190.512 552.033 206.28C641.215 235.032 718.215 276.404 774.707 325.926C777.803 328.64 780.88 331.425 783.848 334.198C807.459 356.252 827.919 380.759 846.401 409.124C849.815 414.35 853.197 419.727 856.469 424.929C870.565 447.346 885.144 470.524 907.813 490.736C909.11 491.892 910.444 493.043 911.778 494.157C964.917 538.391 1056.13 553.211 1155.78 533.797C1246.01 516.217 1319.62 476.815 1387.29 437.966C1393.22 434.558 1399.57 430.875 1407.89 426.028C1414.98 421.9 1422.25 417.641 1429.28 413.52C1462.18 394.242 1496.2 374.309 1532.49 355.644C1573.52 334.535 1611.78 318.056 1649.46 305.266C1675.57 296.439 1702.73 289.225 1730.19 283.827C1756.2 278.713 1783.35 275.061 1810.87 272.968C1860.98 269.16 1913.47 270.249 1971.34 276.299C2019.17 281.225 2075.31 288.591 2129.02 305.891C2180.93 322.679 2227.98 346.086 2273.47 368.722C2281.72 372.828 2290.26 377.074 2298.58 381.158C2409.35 435.505 2521.66 497.085 2632.38 564.189L2632.12 564.349Z" fill="#FFE492"/>
<path d="M2628.24 562.276C2518.48 494.435 2408.01 432.095 2299.87 376.993C2290.67 372.306 2281.23 367.386 2272.09 362.629C2228.56 339.969 2183.56 316.537 2133.09 300.417C2079.39 283.339 2023.16 277.891 1975.23 274.813C1857.81 267.071 1754.04 279.456 1658 312.674C1581.53 339.244 1515.98 374.79 1452.58 409.166C1439.78 416.109 1426.54 423.29 1413.67 430.134C1405.79 434.323 1398.82 438.001 1392.33 441.378C1362.17 457.065 1322.06 477.179 1279.19 493.616C1236.11 510.131 1195.37 521.082 1154.64 527.094C1110.21 533.652 1065.87 533.7 1026.42 527.237C1004.48 523.642 984.126 518.038 965.912 510.578C946.248 502.523 928.88 492.212 914.286 479.935C912.964 478.816 911.637 477.661 910.348 476.503C887.975 456.422 872.938 433.612 858.399 411.554C854.882 406.218 851.247 400.702 847.579 395.341C828.299 367.065 807.363 342.769 783.572 321.068C780.561 318.32 777.442 315.564 774.302 312.874C717.07 263.828 639.518 223.037 550.028 194.915C444.672 161.928 334.235 148.158 239.058 156.138C174.557 161.664 110.154 184.866 78.805 213.871C56.9894 234.055 51.094 256.617 61.7563 279.117L61.4046 279.176C55.8316 267.419 54.6957 255.677 58.0263 244.278C61.1041 233.742 67.9925 223.471 78.4973 213.75C94.5896 198.86 118.999 185.454 149.088 174.98C176.997 165.265 208.933 158.494 239.007 155.918C288.988 151.727 342.867 153.457 399.151 161.058C449.967 167.922 500.787 179.246 550.196 194.717C639.737 222.857 717.334 263.67 774.603 312.747C777.743 315.437 780.861 318.195 783.876 320.945C807.678 342.659 828.625 366.966 847.916 395.255C851.584 400.616 855.219 406.135 858.736 411.471C873.268 433.517 888.297 456.316 910.648 476.377C911.938 477.535 913.26 478.687 914.583 479.805C966.81 523.753 1056.52 541.35 1154.55 526.881C1243.92 513.688 1321.54 477.909 1392.09 441.213C1398.57 437.836 1405.55 434.16 1413.42 429.971C1426.29 423.127 1439.53 415.948 1452.33 409.005C1515.74 374.622 1581.31 339.068 1657.82 312.487C1683.7 303.534 1710.46 295.999 1737.37 290.086C1763.1 284.433 1789.81 280.081 1816.75 277.151C1866.84 271.703 1918.7 270.868 1975.27 274.597C2023.22 277.677 2079.5 283.128 2133.26 300.225C2183.76 316.357 2228.78 339.797 2272.33 362.466C2281.47 367.223 2290.91 372.141 2300.11 376.828C2408.25 431.934 2518.74 494.279 2628.5 562.124L2628.24 562.276Z" fill="#FFE492"/>
<path d="M2624.35 560.202C2515.58 491.613 2406.92 428.513 2301.4 372.654C2291.71 367.52 2281.73 362.085 2272.09 356.828C2230.15 333.976 2186.78 310.345 2137.33 294.744C2083.41 277.811 2027.13 274.304 1979.19 273.107C1866.21 270.078 1763.88 285.379 1666.38 319.888C1597.99 344.204 1537.04 374.979 1478.08 404.739C1457.81 414.973 1438.66 424.639 1419.19 434.076C1411.27 437.917 1404.05 441.369 1397.13 444.625C1352.45 465.615 1315.27 480.791 1280.13 492.383C1236.05 506.927 1194.6 516.019 1153.4 520.175C1137.42 521.787 1121.49 522.59 1105.86 522.59C1078.14 522.59 1051.33 520.072 1026.64 515.083C981.958 506.056 945.105 489.398 917.101 465.573C915.782 464.444 914.467 463.288 913.192 462.134C891.16 442.228 875.701 419.822 860.752 398.152C856.964 392.662 853.05 386.987 849.104 381.468C829 353.258 807.572 329.164 783.61 307.809C780.554 305.086 777.392 302.354 774.208 299.688C716.203 251.089 638.049 210.857 548.2 183.345C442.123 150.991 331.381 137.977 236.37 146.699C171.601 152.768 109.056 175.53 77.0358 204.689C54.7769 224.957 48.101 247.653 57.7228 270.324L57.3674 270.379C52.344 258.54 51.6771 246.728 55.3888 235.27C58.8256 224.664 66.0035 214.335 76.7317 204.568C92.9927 189.759 117.296 176.397 147.019 165.923C174.627 156.193 206.339 149.29 236.315 146.481C286.237 141.898 340.175 143.236 396.627 150.459C447.567 156.977 498.618 167.975 548.368 183.146C638.269 210.677 716.466 250.93 774.508 299.558C777.692 302.226 780.854 304.958 783.914 307.683C807.891 329.05 829.329 353.157 849.441 381.378C853.387 386.897 857.304 392.574 861.089 398.064C876.031 419.723 891.482 442.12 913.496 462.009C914.771 463.16 916.082 464.316 917.401 465.443C969.694 509.937 1055.69 529.806 1153.34 519.955C1246.29 510.577 1328.62 476.525 1396.9 444.449C1403.82 441.193 1411.04 437.743 1418.96 433.902C1438.43 424.465 1457.58 414.801 1477.85 404.567C1536.81 374.8 1597.78 344.021 1666.19 319.696C1691.88 310.605 1718.24 302.746 1744.56 296.335C1770.05 290.128 1796.32 285.076 1822.64 281.322C1872.84 274.166 1924.06 271.405 1979.21 272.884C2027.19 274.082 2083.51 277.593 2137.5 294.546C2186.99 310.158 2230.37 333.8 2272.33 356.661C2281.98 361.918 2291.95 367.353 2301.64 372.484C2407.16 428.348 2515.83 491.454 2624.61 560.048L2624.35 560.202Z" fill="#FFE492"/>
<path d="M2617.64 424.214C2508.33 353.895 2404.46 291.805 2300.1 234.399C2290.15 228.922 2280.34 223.328 2269.96 217.406C2229.39 194.257 2187.44 170.322 2138.75 155.157C2084.15 138.231 2025.41 136.822 1980.33 137.486C1872.49 138.869 1771.61 157.09 1671.92 193.189C1612.11 214.954 1556.89 241.091 1503.49 266.369C1475.42 279.654 1448.92 292.199 1421.88 304.107C1413.86 307.644 1406.4 310.867 1399.1 313.96C1353.8 333.103 1315.41 346.852 1278.25 357.234C1233.14 369.834 1190.97 377.066 1149.33 379.342C1127.93 380.511 1106.68 380.291 1086.16 378.688C1064.44 376.991 1043.54 373.735 1024.02 369.013C980.778 358.546 944.801 341.149 917.09 317.302C915.782 316.17 914.478 315.012 913.21 313.859C891.548 294.156 875.701 272.178 860.375 250.924C856.286 245.254 852.057 239.389 847.803 233.688C826.856 205.539 804.945 181.646 780.818 160.643C777.714 157.944 774.508 155.236 771.288 152.594C712.509 104.442 633.759 64.7693 543.55 37.8666C460.289 13.1389 374.426 0.23678 295.69 0.23678C273.431 0.23678 251.759 1.26702 230.855 3.35169C166.867 9.85888 104.714 32.7023 72.5072 61.5488C49.7756 81.9112 42.29 104.761 50.8601 127.627L50.5011 127.675C46.0273 115.744 45.8404 103.85 49.9441 92.3258C53.7474 81.6427 61.2366 71.2457 72.1994 61.4255C88.6289 46.7095 112.819 33.4023 142.16 22.9393C169.857 13.0618 200.506 6.21344 230.789 3.13595C280.653 -1.8391 334.65 -0.890306 391.273 5.95149C442.335 12.1197 493.624 22.7896 543.711 37.6663C633.971 64.5844 712.77 104.279 771.584 152.46C774.809 155.102 778.018 157.812 781.122 160.513C805.26 181.527 827.182 205.431 848.141 233.593C852.394 239.294 856.626 245.159 860.715 250.832C876.035 272.077 891.874 294.046 913.518 313.733C914.785 314.884 916.09 316.042 917.394 317.172C969.214 361.764 1053.74 384.341 1149.3 379.12C1245.99 373.834 1333.48 341.422 1398.89 313.775C1406.2 310.682 1413.65 307.459 1421.67 303.924C1448.7 292.021 1475.21 279.474 1503.27 266.191C1556.68 240.91 1611.91 214.767 1671.74 192.996C1723.06 174.41 1773.42 160.865 1825.71 151.584C1876.13 142.633 1926.71 137.949 1980.33 137.262C2010.91 136.811 2035.87 137.594 2058.87 139.725C2088.56 142.477 2114.74 147.459 2138.93 154.956C2187.66 170.135 2229.63 194.083 2270.22 217.244C2280.6 223.165 2290.41 228.757 2300.36 234.234C2404.72 291.643 2508.59 353.736 2617.91 424.06L2617.64 424.214Z" fill="#FFE492"/>
<path d="M2616.58 556.055C2508.27 484.965 2406.17 422.136 2304.45 363.972C2294.39 358.218 2284.47 352.289 2273.97 346.013C2234.61 322.499 2193.91 298.18 2145.82 283.396C2090.77 266.549 2032.09 267.223 1987.11 269.69C1885.35 275.081 1785.91 296.221 1683.12 334.313C1632.48 353.172 1584.26 374.754 1537.63 395.627C1500.76 412.126 1465.95 427.712 1430.23 441.957C1422.16 445.18 1414.24 448.262 1406.71 451.115C1361.34 468.294 1320.54 480.98 1282.01 489.9C1235.87 500.581 1192.98 505.957 1150.91 506.331C1129.5 506.52 1108.33 505.358 1088.01 502.873C1066.7 500.266 1046.2 496.192 1027.06 490.759C985.3 478.9 950.195 460.763 922.726 436.85C921.436 435.721 920.139 434.56 918.875 433.4C897.62 413.938 881.429 392.424 865.769 371.619C861.339 365.733 856.755 359.644 852.15 353.725C830.345 325.629 807.947 301.938 783.676 281.294C780.529 278.619 777.279 275.936 774.014 273.318C714.463 225.613 635.111 186.499 544.544 160.206C437.027 129.123 325.666 117.623 230.984 127.824C167.824 134.748 106.085 157.65 73.6987 186.169C50.4541 206.639 42.1368 229.661 49.6407 252.749L49.2816 252.791C45.3685 240.756 45.6689 228.769 50.1793 217.166C54.3673 206.395 62.1753 195.923 73.3946 186.043C89.9853 171.433 114.054 158.192 143 147.751C170.378 137.876 200.778 130.911 230.918 127.606C280.727 122.242 334.779 122.797 391.571 129.26C442.757 135.084 494.277 145.429 544.701 160.006C635.324 186.312 714.719 225.45 774.304 273.184C777.572 275.801 780.826 278.487 783.973 281.164C808.258 301.819 830.664 325.521 852.479 353.628C857.089 359.547 861.669 365.636 866.102 371.525C881.755 392.321 897.939 413.826 919.179 433.275C920.443 434.433 921.74 435.593 923.026 436.72C975.393 482.305 1056.32 506.952 1150.9 506.106C1227.64 505.424 1308.87 487.888 1406.52 450.923C1414.04 448.07 1421.95 444.99 1430.02 441.768C1465.73 427.525 1500.55 411.944 1537.4 395.445C1584.04 374.569 1632.27 352.983 1682.93 334.119C1734.75 314.913 1784.3 300.375 1834.42 289.67C1885.18 278.826 1935.12 272.215 1987.08 269.464C2032.1 266.992 2090.85 266.32 2145.99 283.193C2194.13 297.995 2234.85 322.325 2274.23 345.85C2284.73 352.126 2294.65 358.052 2304.71 363.805C2406.43 421.971 2508.53 484.804 2616.85 555.899L2616.58 556.055Z" fill="#FFE492"/>
<path d="M2612.7 553.981C2505.39 482.118 2405.07 418.545 2305.98 359.633C2295.93 353.652 2285.99 347.437 2275.48 340.858C2237.24 316.922 2197.69 292.173 2150.07 277.723C2094.5 260.938 2035.91 263.7 1991.08 267.982C1895.32 276.952 1800.13 300.322 1691.5 341.527C1650.75 357.051 1610.93 374.08 1572.43 390.549C1525.66 410.55 1481.49 429.444 1435.75 445.899C1427.51 448.867 1419.35 451.715 1411.51 454.361C1365.32 469.934 1323.26 481.152 1282.95 488.654C1260.37 492.856 1238.08 495.901 1216.69 497.704C1193.88 499.626 1171.33 500.2 1149.66 499.412C1105.7 497.812 1064.52 490.807 1027.28 478.594C987.061 465.403 952.832 446.529 925.546 422.49C924.263 421.352 922.977 420.19 921.721 419.036C900.92 399.86 884.439 378.857 868.504 358.548C863.679 352.399 858.692 346.042 853.676 339.856C830.992 311.806 808.107 288.316 783.712 268.039C780.52 265.387 777.223 262.727 773.918 260.136C713.593 212.876 633.644 174.321 542.718 148.642C434.483 118.196 322.818 107.453 228.293 118.392C127.082 130.285 28.4575 181.676 45.6052 243.963L45.2424 243.998C40.9519 228.417 43.4654 213.067 52.7097 198.371C61.1516 184.949 75.0053 172.318 93.886 160.831C111.44 150.15 132.501 140.929 156.478 133.422C179.283 126.283 204.092 121.009 228.22 118.174C277.97 112.417 332.08 112.582 389.045 118.667C440.356 124.146 492.11 134.164 542.872 148.444C633.849 174.141 713.846 212.717 774.207 260.004C777.516 262.597 780.813 265.257 784.008 267.912C808.414 288.197 831.311 311.701 854.006 339.761C859.022 345.947 864.009 352.305 868.834 358.455C884.765 378.758 901.239 399.753 922.028 418.917C923.281 420.071 924.564 421.233 925.846 422.369C978.289 468.567 1057.78 495.848 1149.69 499.194C1227.49 502.023 1313.07 487.298 1411.33 454.172C1419.17 451.526 1427.32 448.68 1435.56 445.712C1481.29 429.262 1525.46 410.37 1572.22 390.37C1610.73 373.9 1650.55 356.868 1691.3 341.342C1799.98 300.119 1895.21 276.741 1991.02 267.764C2021.14 264.887 2046.08 263.967 2069.52 264.871C2099.47 266.027 2125.87 270.166 2150.23 277.525C2197.9 291.99 2237.47 316.755 2275.74 340.704C2286.25 347.281 2296.18 353.496 2306.24 359.474C2405.33 418.391 2505.66 481.966 2612.96 553.834L2612.7 553.981Z" fill="#FFE492"/>
<path d="M2608.81 551.907C2502.53 479.261 2403.97 414.948 2307.51 355.292C2297.53 349.119 2287.67 342.654 2277.23 335.805C2240.02 311.412 2201.54 286.187 2154.31 272.048C2097.53 255.121 2036.22 260.645 1995.04 266.271C1883.27 281.355 1783.11 316.422 1699.87 348.74C1669.96 360.403 1640.12 372.757 1611.25 384.704C1553.36 408.67 1498.68 431.306 1441.28 449.842C1432.83 452.569 1424.44 455.182 1416.31 457.61C1369.22 471.653 1325.9 481.4 1283.9 487.406C1236.28 494.214 1190.7 495.927 1148.43 492.493C1104.99 488.964 1064.31 480.194 1027.51 466.425C988.905 451.984 955.552 432.372 928.365 408.133C927.097 406.995 925.818 405.83 924.569 404.672C904.285 385.849 887.599 365.422 871.459 345.667C866.171 339.193 860.701 332.501 855.205 325.987C831.297 297.585 808.591 274.962 783.753 254.785C780.518 252.156 777.18 249.523 773.827 246.954C712.722 200.143 632.172 162.147 540.887 137.076C431.933 107.268 319.961 97.2803 225.598 108.956C124.024 121.691 27.4144 172.384 41.5648 235.177L41.2021 235.206C37.6919 219.627 40.7294 204.292 50.2266 189.629C58.9323 176.194 72.8665 163.55 91.6483 152.05C109.162 141.325 130.113 132.035 153.922 124.434C176.591 117.196 201.353 111.77 225.524 108.738C275.22 102.59 329.385 102.365 386.518 108.069C437.953 113.203 489.942 122.895 541.041 136.876C632.381 161.96 712.975 199.978 774.109 246.818C777.462 249.389 780.803 252.024 784.042 254.653C808.895 274.839 831.609 297.475 855.527 325.888C861.023 332.402 866.494 339.096 871.781 345.57C887.917 365.319 904.6 385.738 924.869 404.553C926.119 405.711 927.394 406.874 928.661 408.012C981.511 455.129 1059.57 485.055 1148.47 492.275C1228.2 498.751 1315.75 487.346 1416.14 457.412C1424.27 454.986 1432.67 452.376 1441.1 449.648C1498.49 431.117 1553.16 408.485 1611.05 384.521C1639.91 372.574 1669.75 360.218 1699.67 348.553C1755.64 326.824 1802.2 310.769 1846.19 298.03C1897.98 283.035 1946.64 272.576 1994.95 266.056C2024.41 262.031 2050.08 260.209 2073.43 260.486C2103.51 260.843 2130.02 264.559 2154.47 271.85C2201.77 286.006 2240.26 311.247 2277.49 335.656C2287.94 342.502 2297.8 348.967 2307.77 355.135C2404.24 414.794 2502.8 479.111 2609.09 551.76L2608.81 551.907Z" fill="#FFE492"/>
<path d="M2604.93 549.832C2499.67 476.399 2402.88 411.345 2309.04 350.949C2299.2 344.615 2289.46 337.925 2279.15 330.841C2242.92 305.957 2205.47 280.226 2158.56 266.373C2101.16 249.486 2040.01 257.25 1999 264.561C1897.74 282.46 1807.41 316.541 1708.25 355.952C1690.36 363.087 1672.27 370.45 1654.78 377.574C1587.49 404.967 1517.92 433.292 1446.8 453.782C1438.16 456.274 1429.51 458.654 1421.1 460.855C1373.69 473.253 1327.85 481.764 1284.84 486.151C1236.12 491.122 1189.81 490.926 1147.18 485.572C1104.35 480.194 1064.16 469.656 1027.72 454.251C990.84 438.661 958.354 418.314 931.167 393.776C929.911 392.635 928.643 391.469 927.401 390.311C907.729 371.927 890.937 352.166 874.698 333.056C868.846 326.17 862.797 319.051 856.718 312.123C831.876 283.75 808.698 261.321 783.775 241.535C780.503 238.937 777.117 236.326 773.717 233.777C711.85 187.406 630.707 149.97 539.055 125.511C429.387 96.3405 317.11 87.1103 222.901 99.5215C124.551 112.619 26.1575 161.533 37.5197 226.39L37.1569 226.412C34.4272 210.833 37.9887 195.516 47.7386 180.886C56.7045 167.435 70.723 154.78 89.4022 143.267C123.866 122.028 172.495 106.004 222.82 99.3035C272.457 92.7655 326.681 92.1491 383.986 97.472C435.546 102.262 487.766 111.627 539.201 125.308C630.904 149.78 712.096 187.241 774.003 233.634C777.407 236.186 780.792 238.796 784.068 241.396C809.002 261.193 832.191 283.631 857.041 312.015C863.119 318.945 869.172 326.064 875.024 332.95C891.259 352.056 908.047 371.813 927.709 390.188C928.947 391.345 930.215 392.51 931.472 393.65C985.864 442.745 1060.48 474.455 1147.25 485.354C1227.59 495.445 1319.67 487.135 1420.95 460.653C1429.35 458.451 1437.99 456.074 1446.63 453.584C1517.73 433.101 1587.29 404.78 1654.56 377.391C1672.06 370.268 1690.15 362.904 1708.04 355.769C1751.44 338.518 1801.95 318.73 1852.08 302.208C1904.52 284.928 1952.54 272.545 1998.89 264.352C2028.07 259.15 2053.74 256.451 2077.35 256.103C2107.12 255.663 2134.49 259.053 2158.71 266.177C2179.72 272.382 2200.87 281.643 2223.37 294.491C2243.23 305.834 2261.63 318.474 2279.42 330.696C2289.72 337.778 2299.46 344.468 2309.3 350.799C2403.15 411.197 2499.94 476.254 2605.2 549.689L2604.93 549.832Z" fill="#FFE492"/>
<path d="M2601.04 547.758C2496.82 473.532 2401.8 407.736 2310.57 346.609C2300.9 340.137 2291.33 333.245 2281.2 325.95C2245.92 300.548 2209.44 274.282 2162.8 260.702C2119.22 248.05 2066.93 248.755 2002.96 262.855C1913.51 282.458 1833.56 315.247 1748.9 349.964C1738.36 354.288 1727.47 358.756 1716.62 363.17C1712.37 364.902 1708.12 366.639 1703.88 368.374C1623.22 401.326 1539.81 435.401 1452.32 457.727C1443.47 459.985 1434.59 462.132 1425.9 464.104C1377.45 475.095 1330.31 482.091 1285.8 484.896C1235.96 488.035 1188.9 485.935 1145.94 478.653C1103.78 471.505 1064.09 459.199 1027.96 442.077C992.935 425.481 961.322 404.401 933.992 379.418C932.746 378.276 931.49 377.107 930.255 375.947C911.33 358.14 894.593 339.175 878.401 320.836C871.847 313.409 865.064 305.728 858.253 298.252C832.451 269.899 808.803 247.663 783.822 228.278C780.502 225.702 777.077 223.118 773.632 220.593C710.981 174.671 629.237 137.791 537.226 113.944C426.847 85.4148 314.259 76.9396 220.207 90.086C123.664 103.693 25.4096 153.007 33.4814 217.604L33.115 217.621C31.1694 202.04 35.2512 186.741 45.2539 172.148C54.4836 158.682 68.5828 146.011 87.163 134.489C121.48 113.207 169.941 96.9455 220.123 89.8725C269.705 82.9427 323.984 81.9345 381.457 86.8787C433.142 91.321 485.6 100.36 537.373 113.742C629.435 137.604 711.23 174.503 773.907 220.45C777.351 222.975 780.785 225.564 784.104 228.139C809.096 247.535 832.759 269.778 858.568 298.142C865.383 305.618 872.162 313.301 878.72 320.728C894.904 339.063 911.642 358.023 930.559 375.823C931.794 376.983 933.047 378.15 934.293 379.293C989.865 430.091 1063.08 464.373 1146.04 478.435C1227.92 492.317 1322.04 487.423 1425.77 463.893C1434.45 461.92 1443.33 459.776 1452.17 457.52C1539.64 435.203 1623.03 401.134 1703.67 368.187C1707.92 366.45 1712.16 364.715 1716.41 362.983C1727.26 358.569 1738.15 354.1 1748.69 349.779C1833.37 315.055 1913.35 282.257 2002.83 262.645C2031.73 256.275 2057.39 252.702 2081.27 251.718C2111.16 250.487 2138.64 253.444 2162.96 260.501C2183.85 266.584 2204.73 275.887 2226.81 288.943C2246.28 300.462 2264.18 313.347 2281.48 325.807C2291.62 333.1 2301.18 339.99 2310.84 346.46C2402.08 407.589 2497.1 473.387 2601.32 547.614L2601.04 547.758Z" fill="#FFE492"/>
<path d="M2597.16 545.684C2502.03 476.518 2406.12 408.078 2312.09 342.269C2302.52 335.607 2293.03 328.451 2282.99 320.876C2250.33 296.234 2213.3 268.306 2167.05 255.029C2122.95 242.4 2070.58 244.401 2006.92 261.145C1931.23 280.988 1864.24 310.164 1793.33 341.054C1771.12 350.726 1748.15 360.731 1724.99 370.382C1684.56 387.264 1640.82 405.128 1594.97 421.398C1545.87 438.824 1501.01 451.995 1457.83 461.668C1448.76 463.7 1439.63 465.613 1430.68 467.349C1381.2 476.954 1332.78 482.42 1286.77 483.595C1235.83 484.894 1188.03 480.905 1144.69 471.73C1064.66 454.577 994.713 418.689 936.795 365.059C935.561 363.915 934.315 362.744 933.087 361.583C915.123 344.563 898.678 326.606 882.777 309.24C875.291 301.066 867.553 292.613 859.767 284.386C832.983 256.04 808.859 234 783.848 215.026C780.481 212.473 777.011 209.913 773.526 207.414C710.113 161.934 627.768 125.616 535.398 102.379C424.305 74.4878 311.412 66.7721 217.515 80.6516C120.385 95.0902 24.5928 143.751 29.4403 208.819L29.0739 208.827C27.9124 193.242 32.5217 177.96 42.77 163.405C52.2672 149.921 66.4469 137.237 84.9209 125.707C102.325 114.843 122.953 105.344 146.231 97.4721C168.831 89.8312 192.782 84.0989 217.423 80.4358C266.95 73.1164 321.287 71.7163 378.929 76.2797C430.739 80.3808 483.427 89.0916 535.537 102.174C627.962 125.425 710.355 161.765 773.805 207.267C777.289 209.767 780.766 212.33 784.134 214.883C809.155 233.868 833.29 255.916 860.085 284.272C867.871 292.501 875.61 300.954 883.095 309.13C898.997 326.494 915.438 344.448 933.395 361.462C934.619 362.625 935.868 363.794 937.099 364.938C994.973 418.526 1064.86 454.386 1144.81 471.521C1227.17 488.956 1325.98 487.441 1430.57 467.138C1439.51 465.401 1448.64 463.491 1457.7 461.461C1554.25 439.837 1642.58 404.521 1724.78 370.199C1747.94 360.549 1770.9 350.546 1793.11 340.873C1864.04 309.977 1931.04 280.794 2006.77 260.942C2070.52 244.172 2123 242.171 2167.2 254.829C2187.92 260.775 2208.49 270.095 2230.09 283.319C2249.13 294.979 2266.49 308.075 2283.28 320.737C2293.32 328.312 2302.8 335.467 2312.37 342.123C2406.4 407.935 2502.31 476.375 2597.44 545.544L2597.16 545.684Z" fill="#FFE492"/>
<path d="M2593.27 543.611C2499.6 474.061 2405.51 404.86 2313.62 337.928C2304.35 331.194 2295.15 323.912 2285.4 316.203C2253.54 290.986 2217.43 262.404 2171.29 249.352C2126.67 236.745 2074.2 240.043 2010.87 259.43C1944.53 279.713 1883.57 308.353 1824.63 336.052C1795.07 349.94 1764.5 364.302 1733.36 377.592C1684.2 398.588 1642.84 414.605 1603.2 428C1554.31 444.517 1508.56 456.818 1463.35 465.606C1454.07 467.411 1444.69 469.089 1435.48 470.592C1387.46 478.422 1340.31 482.385 1295.21 482.387C1292.7 482.387 1290.21 482.374 1287.72 482.349C1235.57 481.839 1187.03 475.935 1143.45 464.805C1122.41 459.403 1101.8 452.545 1082.21 444.422C1063.8 436.788 1045.7 427.796 1028.42 417.696C997.343 399.526 968.287 377.609 939.605 350.698C938.374 349.54 937.146 348.38 935.926 347.215C919.284 331.337 903.54 314.739 888.316 298.686C879.526 289.421 870.439 279.838 861.287 270.511C833.107 241.775 809.235 220.572 783.877 201.765C780.466 199.236 776.952 196.7 773.423 194.226C709.241 149.197 626.298 113.439 533.569 90.8109C421.765 63.5604 308.565 56.6019 214.821 71.2145C119.513 86.1132 23.8449 135.144 25.4021 200.029L25.0357 200.031C24.3102 169.808 44.2462 141.07 82.6854 116.923C100.06 106.009 120.579 96.4419 143.677 88.4818C166.152 80.7375 190.056 74.8555 214.729 70.9987C264.197 63.2874 318.594 61.4977 376.404 65.6803C428.338 69.438 481.262 77.8229 533.705 90.6039C626.492 113.247 709.482 149.028 773.705 194.083C777.234 196.559 780.755 199.097 784.166 201.627C809.536 220.444 833.418 241.654 861.605 270.401C870.758 279.731 879.849 289.313 888.635 298.579C903.859 314.629 919.599 331.225 936.238 347.099C937.458 348.263 938.682 349.423 939.913 350.579C1000.86 407.766 1067.48 445.063 1143.59 464.602C1249 491.52 1360.45 482.603 1435.38 470.381C1444.59 468.877 1453.96 467.202 1463.24 465.397C1567.22 445.184 1662.1 407.759 1733.15 377.413C1764.29 364.128 1794.85 349.767 1824.4 335.88C1883.37 308.176 1944.33 279.528 2010.71 259.236C2039.04 250.561 2064.69 245.233 2089.1 242.953C2119.22 240.139 2146.92 242.226 2171.44 249.156C2192.1 255.001 2212.48 264.396 2233.72 277.877C2252.44 289.756 2269.35 303.133 2285.7 316.073C2295.44 323.78 2304.63 331.06 2313.9 337.789C2405.79 404.721 2499.88 473.923 2593.56 543.472L2593.27 543.611Z" fill="#FFE492"/>
<path d="M2589.39 541.537L2315.15 333.589C2306.19 326.798 2297.3 319.408 2287.88 311.586C2256.81 285.773 2221.58 256.517 2175.53 243.681C2131 231.27 2076.94 235.994 2014.83 257.724C1955.13 278.612 1900.68 306.391 1848.02 333.256C1813.7 350.768 1778.2 368.874 1741.74 384.81C1632.13 432.707 1536.33 460.996 1440.28 473.841C1400.43 479.168 1361.11 481.85 1322.99 481.85C1311.43 481.85 1299.99 481.603 1288.68 481.11C1235.3 478.785 1186.02 470.971 1142.21 457.886C1101.6 445.756 1064.46 428.634 1028.66 405.538C1000.07 387.095 972.669 365.108 942.423 336.343C926.458 321.162 911 305.389 896.051 290.136C862.217 255.619 827.233 219.926 783.921 188.513C717.485 140.332 630.281 102.548 531.737 79.2448C419.226 52.6371 305.718 46.4337 212.128 61.7793C121.517 76.6362 23.1706 123.485 21.3605 191.243L20.9941 191.238C21.8039 160.952 42.3627 132.218 80.4466 108.142C114.881 86.3728 161.612 69.8318 212.033 61.5658C261.446 53.4648 315.9 51.2833 373.876 55.085C425.935 58.4971 479.092 66.5584 531.872 79.0401C580.633 90.5707 626.943 105.749 669.519 124.155C712.45 142.714 751.036 164.318 784.199 188.368C827.53 219.792 862.525 255.494 896.366 290.02C911.315 305.271 926.773 321.041 942.734 336.219C986.863 378.19 1049.44 429.924 1142.37 457.683C1248.95 489.517 1363.15 483.921 1440.19 473.621C1536.21 460.785 1631.95 432.506 1741.52 384.627C1777.97 368.698 1813.46 350.592 1847.78 333.085C1900.45 306.215 1954.92 278.429 2014.65 257.53C2076.86 235.763 2131.04 231.034 2175.69 243.479C2196.31 249.226 2216.49 258.703 2237.4 272.455C2255.8 284.56 2272.26 298.233 2288.18 311.454C2297.59 319.276 2306.49 326.661 2315.44 333.45L2589.68 541.398L2589.39 541.537Z" fill="#FFE492"/>
<path d="M2587.18 525.551C2517.35 467.651 2457.43 420.667 2398.62 377.695C2370.08 356.819 2340.92 336.272 2311.97 316.623C2303.21 310.679 2294.54 304.357 2285.35 297.663C2262.27 280.838 2238.4 263.44 2210.93 250.529C2196.18 243.584 2181.98 238.611 2167.52 235.327C2123.14 225.146 2071.07 231.877 2012.75 255.337C1982.57 267.46 1955.09 281.256 1932.19 293.152C1907.95 305.746 1884.03 319.634 1860.9 333.065C1827.66 352.37 1793.28 372.332 1756.33 389.476C1733.84 399.939 1711.05 409.288 1688.58 417.266C1643.62 433.226 1595.36 446.377 1545.15 456.353C1514.13 462.449 1482.95 467.056 1452.5 470.046C1426.26 472.613 1399.96 474.094 1374.35 474.448C1336.01 474.981 1298.66 472.949 1263.33 468.404C1225.77 463.569 1190.22 455.854 1157.68 445.468C1128.66 436.207 1101.25 424.546 1073.88 409.817C1022.88 382.392 982.21 350.682 952.473 326.119C937.865 313.997 923.601 301.634 909.806 289.678C870.084 255.247 832.564 222.726 785.614 193.759C747.321 170.288 703.631 150.033 655.746 133.554C618.948 120.89 578.926 110.532 536.794 102.768C526.758 100.921 516.531 99.1999 506.408 97.6567C462.821 91.0241 413.752 86.705 360.569 84.8185C306.949 82.8725 260.559 84.5565 218.756 89.9718C195.123 93.0097 172.227 97.7756 150.693 104.135C74.6723 126.589 25.8565 164.283 20.1113 204.968L19.6533 204.944C21.1849 194.098 25.6807 183.415 33.0124 173.187C39.9777 163.473 49.5444 154.104 61.4452 145.34C83.9313 128.786 114.724 114.451 150.492 103.887C172.058 97.5159 194.991 92.7433 218.661 89.7011C260.508 84.2813 306.935 82.5951 360.598 84.5433C413.811 86.4299 462.905 90.7533 506.521 97.3904C516.656 98.9357 526.886 100.657 536.929 102.506C579.095 110.275 619.15 120.641 655.977 133.316C703.895 149.807 747.621 170.079 785.932 193.565C832.913 222.55 870.439 255.08 910.176 289.52C923.967 301.475 938.231 313.836 952.836 325.956C982.558 350.508 1023.21 382.203 1074.18 409.61C1101.52 424.324 1128.9 435.973 1157.89 445.223C1221.58 465.548 1294.4 475.289 1374.33 474.173C1399.93 473.819 1426.2 472.337 1452.43 469.773C1482.86 466.783 1514.01 462.18 1545 456.089C1595.19 446.119 1643.41 432.977 1688.34 417.026C1710.8 409.055 1733.58 399.71 1756.04 389.256C1792.98 372.121 1827.35 352.163 1860.58 332.864C1883.71 319.432 1907.63 305.539 1931.89 292.941C1954.8 281.038 1982.29 267.238 2012.5 255.106C2038.46 244.661 2063.6 237.445 2087.22 233.656C2116.24 229.002 2143.31 229.478 2167.68 235.069C2182.19 238.365 2196.42 243.351 2211.21 250.311C2238.72 263.242 2262.6 280.65 2285.7 297.486C2294.89 304.178 2303.56 310.501 2312.31 316.44C2341.27 336.091 2370.43 356.641 2398.98 377.521C2457.79 420.498 2517.71 467.486 2587.55 525.39L2587.18 525.551Z" fill="#FFE492"/>
<path d="M2584.97 509.56C2520.22 450.681 2459.46 401.41 2399.19 358.935C2369.81 338.187 2339.39 318.243 2308.79 299.657C2300.67 294.726 2292.66 289.601 2284.17 284.177C2258.76 267.933 2232.48 251.137 2203.05 239.516C2188.19 233.623 2173.95 229.52 2159.51 226.971C2104.22 217.206 2048.06 235.706 2010.67 252.944C1984.19 265.122 1960 278.892 1935.49 293.106C1914.05 305.548 1893.87 318.932 1872.51 333.1C1840.8 354.132 1808.02 375.879 1770.92 394.139C1748.9 405.034 1725.92 414.453 1702.62 422.136C1659.22 436.449 1611.7 447.564 1557.33 456.118C1526.9 460.904 1495.75 464.314 1464.72 466.249C1438.54 467.862 1412.41 468.439 1387.04 467.957C1349.31 467.248 1312.43 464.06 1277.42 458.484C1240.65 452.627 1205.56 444.068 1173.14 433.046C1144.73 423.391 1117.3 411.411 1089.28 396.424C1038.39 369.244 994.804 339.112 962.517 315.896C950.565 307.302 938.803 298.655 927.426 290.29C882.121 256.98 839.328 225.513 787.307 199.005C748.428 179.193 704.778 162.44 657.578 149.215C621.865 139.207 584.012 131.71 541.861 126.292C532.133 125.044 522.237 123.919 512.45 122.948C469.464 118.706 423.586 117.101 368.08 115.442C328.069 114.185 275.692 113.357 225.374 118.16C201.543 120.392 178.507 124.269 156.9 129.678C80.828 148.726 29.224 182.002 18.8548 218.694L18.3125 218.639C21.0605 208.909 26.6298 199.366 34.8555 190.272C42.6965 181.608 52.9998 173.3 65.4758 165.573C89.1857 150.894 120.726 138.375 156.688 129.372C178.335 123.952 201.415 120.069 225.286 117.832C275.651 113.022 328.069 113.852 368.106 115.109C423.63 116.769 469.522 118.374 512.538 122.618C522.332 123.591 532.236 124.716 541.975 125.964C584.166 131.388 622.056 138.893 657.809 148.911C705.057 162.15 748.743 178.915 787.662 198.747C839.721 225.276 882.531 256.751 927.851 290.075C939.224 298.438 950.986 307.084 962.938 315.676C995.218 338.883 1038.79 369.004 1089.65 396.171C1117.63 411.142 1145.03 423.109 1173.41 432.753C1237.16 454.425 1309.05 466.156 1387.06 467.622C1412.4 468.102 1438.51 467.528 1464.66 465.914C1495.66 463.981 1526.79 460.576 1557.19 455.792C1611.51 447.247 1659 436.141 1702.36 421.841C1725.63 414.167 1748.58 404.761 1770.57 393.877C1807.64 375.632 1840.41 353.894 1872.11 332.873C1893.48 318.699 1913.66 305.312 1935.12 292.864C1959.63 278.641 1983.83 264.867 2010.34 252.676C2034.58 241.5 2058.48 233.46 2081.39 228.776C2109.17 223.096 2135.51 222.381 2159.67 226.647C2174.16 229.207 2188.45 233.324 2203.36 239.234C2232.84 250.877 2259.14 267.689 2284.58 283.946C2293.06 289.368 2301.08 294.491 2309.19 299.419C2339.8 318.012 2370.22 337.963 2399.62 358.717C2459.89 401.203 2520.68 450.483 2585.43 509.375L2584.97 509.56Z" fill="#FFE492"/>
<path d="M2582.76 493.57C2522.16 432.912 2462.31 382.736 2399.77 340.178C2369.53 319.558 2337.85 300.219 2305.62 282.694C2298.73 278.947 2291.63 274.972 2284.77 271.128C2256.45 255.248 2227.16 238.828 2195.18 228.506C2180.17 223.627 2165.88 220.391 2151.51 218.615C2096.33 211.793 2043.34 232.217 2008.59 250.55C1985.05 262.926 1963.52 276.953 1942.7 290.52L1938.8 293.06C1919.9 305.368 1902.17 318.867 1883.4 333.16C1853.5 355.92 1822.59 379.452 1785.51 398.802C1763.93 410.143 1740.77 419.633 1716.67 427.008C1674.65 439.866 1627.88 449.041 1569.5 455.883C1539.31 459.42 1508.17 461.631 1476.93 462.45C1450.81 463.108 1424.84 462.778 1399.73 461.463C1323.7 457.503 1252.66 443.762 1188.59 420.624C1160.89 410.621 1133.44 398.326 1104.68 383.031C1056.01 357.203 1012.72 330.655 972.563 305.676C967.177 302.328 961.85 299.002 956.563 295.702C901.709 261.473 849.899 229.142 789.011 204.258C749.26 188.012 705.654 174.764 659.41 164.88C625.46 157.624 588.665 152.698 546.932 149.818C537.527 149.173 527.96 148.643 518.496 148.242C494.687 147.252 469.434 147.091 442.698 146.921C421.223 146.785 399.019 146.644 375.588 146.069C330.334 144.865 279.045 143.503 231.984 146.356C207.702 147.828 184.527 150.813 163.1 155.229C87.0571 170.903 32.661 199.765 17.5909 232.435L16.9717 232.331C20.9435 223.718 27.5827 215.315 36.7024 207.357C45.4228 199.747 56.4588 192.496 69.5028 185.806C94.4511 173.012 126.746 162.313 162.888 154.864C184.363 150.437 207.585 147.445 231.914 145.97C279.023 143.115 330.337 144.48 375.61 145.684C399.027 146.257 421.231 146.4 442.698 146.536C469.445 146.706 494.705 146.866 518.536 147.859C528.008 148.262 537.585 148.792 546.998 149.437C588.783 152.319 625.621 157.252 659.619 164.519C705.918 174.414 749.571 187.677 789.366 203.941C850.31 228.847 902.145 261.193 957.021 295.438C962.308 298.737 967.639 302.061 973.021 305.412C1013.18 330.386 1056.45 356.928 1105.1 382.747C1133.83 398.025 1161.25 410.308 1188.92 420.298C1252.91 443.408 1323.86 457.129 1399.78 461.085C1424.87 462.397 1450.81 462.727 1476.9 462.069C1508.1 461.25 1539.22 459.042 1569.37 455.509C1627.69 448.674 1674.41 439.509 1716.37 426.669C1740.43 419.31 1763.54 409.837 1785.08 398.516C1822.12 379.19 1853.01 355.671 1882.89 332.924C1901.67 318.624 1919.41 305.119 1938.33 292.803L1942.22 290.262C1963.05 276.689 1984.59 262.653 2008.17 250.264C2043.02 231.871 2096.2 211.388 2151.63 218.241C2166.07 220.026 2180.41 223.273 2195.48 228.171C2227.53 238.515 2256.85 254.953 2285.21 270.851C2292.06 274.694 2299.16 278.67 2306.04 282.414C2338.29 299.948 2369.98 319.298 2400.24 339.929C2462.81 382.505 2522.68 432.698 2583.3 493.376L2582.76 493.57Z" fill="#FFE492"/>
<path d="M2580.55 477.577C2524.91 416.003 2464.28 363.463 2400.34 321.422C2369.26 300.932 2336.32 282.196 2302.45 265.735C2297.56 263.357 2292.55 260.889 2287.7 258.503C2255.69 242.739 2222.59 226.436 2187.33 217.499C2172.19 213.622 2157.86 211.256 2143.52 210.261C2088.5 206.448 2038.65 228.763 2006.53 248.155C1986.57 260.134 1968.57 273.457 1951.15 286.341C1948.14 288.571 1945.13 290.797 1942.11 293.014C1925.55 305.192 1910.06 318.796 1893.66 333.197C1865.79 357.681 1836.96 382.996 1800.1 403.469C1778.45 415.49 1755.76 424.784 1730.71 431.886C1678.32 446.738 1625.97 452.235 1581.67 455.656C1551.7 457.967 1520.57 458.98 1489.14 458.659C1463.1 458.361 1437.29 457.122 1412.42 454.978C1338.67 448.636 1268.57 432.901 1204.05 408.208C1177.2 397.937 1149.74 385.323 1120.08 369.647C1090.13 353.85 1062.22 338.65 1035.22 323.949C1016.88 313.957 999.545 304.52 982.621 295.466C918.647 261.239 860.049 231.147 790.729 209.517C750.124 196.848 706.563 187.1 661.253 180.547C628.779 175.849 594.066 173.562 552.014 173.344C542.942 173.304 533.701 173.368 524.552 173.535C510.655 173.806 496.277 174.372 481.06 174.973C451.858 176.124 418.754 177.43 383.095 176.699C369.517 176.419 355.663 176.025 342.264 175.642C307.8 174.658 272.164 173.641 238.59 174.55C213.935 175.22 190.617 177.315 169.292 180.78C93.3775 193.119 36.1931 217.569 16.3194 246.184L15.6416 246.015C20.8445 238.522 28.5536 231.261 38.5527 224.435C48.1562 217.879 59.925 211.687 73.5258 206.032C99.7346 195.135 132.78 186.257 169.095 180.355C190.47 176.882 213.84 174.779 238.55 174.11C272.16 173.199 307.811 174.218 342.293 175.202C355.689 175.585 369.542 175.979 383.117 176.259C418.743 176.989 451.822 175.686 481.009 174.535C496.233 173.934 510.614 173.368 524.527 173.097C533.687 172.93 542.935 172.866 552.018 172.906C594.129 173.122 628.893 175.415 661.422 180.12C706.786 186.682 750.406 196.441 791.062 209.127C822.375 218.897 854.106 231.275 888.068 246.966C918.472 261.013 948.047 276.383 983.105 295.138C1000.03 304.194 1017.36 313.632 1035.71 323.623C1062.7 338.322 1090.61 353.522 1120.56 369.317C1150.18 384.977 1177.62 397.578 1204.43 407.838C1268.86 432.498 1338.87 448.211 1412.51 454.544C1437.36 456.686 1463.14 457.923 1489.14 458.221C1520.54 458.542 1551.64 457.532 1581.56 455.22C1625.81 451.806 1678.1 446.316 1730.39 431.49C1755.37 424.408 1778.01 415.138 1799.6 403.147C1836.39 382.71 1865.2 357.414 1893.05 332.951C1909.46 318.541 1924.95 304.93 1941.54 292.739C1944.55 290.522 1947.56 288.296 1950.57 286.068C1968 273.175 1986.02 259.844 2005.99 247.849C2026.9 235.233 2048.34 225.527 2069.73 219.002C2095.07 211.273 2119.92 208.187 2143.59 209.829C2158 210.829 2172.4 213.206 2187.6 217.098C2222.95 226.06 2256.1 242.383 2288.15 258.166C2293 260.553 2298.01 263.02 2302.89 265.396C2336.79 281.87 2369.75 300.624 2400.86 321.129C2434.81 343.453 2468.06 368.888 2499.68 396.726C2527.63 421.33 2555.05 448.464 2581.17 477.37L2580.55 477.577Z" fill="#FFE492"/>
<path d="M2578.33 461.579C2526.84 398.24 2467.15 344.773 2400.92 302.664C2368.98 282.304 2334.79 264.173 2299.29 248.773C2297.6 248.04 2295.91 247.307 2294.22 246.571C2257.3 230.537 2219.13 213.956 2179.49 206.491C2164.13 203.599 2149.75 202.1 2135.55 201.906C2080.75 201.162 2034.02 225.341 2004.47 245.755C1987.08 257.697 1971.64 270.786 1956.71 283.444C1953.02 286.574 1949.2 289.81 1945.44 292.963C1931.09 304.969 1917.75 318.619 1903.62 333.073C1877.94 359.364 1851.38 386.549 1814.71 408.131C1793.49 420.617 1770.61 429.981 1744.76 436.761C1693.84 450.117 1642.13 453.624 1593.84 455.424C1564.06 456.534 1532.94 456.344 1501.34 454.863C1475.4 453.608 1449.75 451.462 1425.11 448.486C1353.87 439.9 1284.69 422.171 1219.51 395.788C1193.4 385.223 1166.71 372.662 1135.5 356.258C1076.19 325.166 1032.15 303.267 992.701 285.253C914.243 249.426 854.362 228.349 792.48 214.775C751.051 205.688 707.534 199.443 663.129 196.211C632.322 193.97 599.628 194.17 557.125 196.867C548.416 197.426 539.505 198.084 530.638 198.826C522.262 199.537 513.754 200.352 504.745 201.213C471.479 204.393 433.773 207.999 390.618 207.326C367.871 206.971 344.638 206 322.17 205.063C296.635 203.997 270.233 202.894 245.2 202.745C220.101 202.595 196.641 203.801 175.488 206.333C99.8262 215.383 39.8461 235.426 15.0443 259.947L14.3408 259.689C20.7822 253.318 29.5612 247.201 40.4324 241.506C50.9261 236.007 63.4204 230.876 77.5709 226.251C105.058 217.265 138.863 210.207 175.327 205.846C196.538 203.31 220.05 202.1 245.207 202.249C270.262 202.399 296.679 203.502 322.225 204.57C344.685 205.507 367.908 206.478 390.636 206.833C433.714 207.504 471.38 203.903 504.609 200.726C513.623 199.863 522.138 199.051 530.517 198.338C539.395 197.596 548.313 196.937 557.03 196.376C599.599 193.677 632.348 193.475 663.221 195.722C707.688 198.958 751.267 205.212 792.755 214.313C854.721 227.904 914.664 249.004 993.192 284.862C1032.65 302.882 1076.71 324.787 1136.03 355.888C1167.22 372.279 1193.89 384.827 1219.96 395.38C1285.06 421.726 1354.13 439.432 1425.26 448.004C1449.87 450.975 1475.49 453.117 1501.4 454.372C1532.96 455.851 1564.04 456.041 1593.78 454.933C1642 453.135 1693.62 449.637 1744.43 436.312C1770.18 429.558 1792.98 420.225 1814.12 407.783C1850.71 386.247 1877.25 359.091 1902.91 332.829C1917.04 318.366 1930.39 304.705 1944.76 292.681C1948.53 289.531 1952.35 286.295 1956.03 283.164C1970.97 270.496 1986.42 257.398 2003.84 245.435C2023.12 232.113 2043.34 221.575 2063.93 214.112C2088.05 205.371 2112.15 201.102 2135.56 201.417C2149.85 201.611 2164.29 203.119 2179.73 206.025C2219.5 213.516 2257.73 230.118 2294.7 246.177C2296.39 246.913 2298.08 247.648 2299.77 248.379C2335.31 263.797 2369.54 281.949 2401.51 302.331C2467.8 344.479 2527.54 397.987 2579.07 461.37L2578.33 461.579Z" fill="#FFE492"/>
<path d="M1612.07 455.196C1610.01 455.196 1607.99 455.194 1605.99 455.187C1576.37 455.112 1545.26 453.725 1513.54 451.062C1487.69 448.85 1462.2 445.796 1437.79 441.99C1402.91 436.562 1367.9 428.76 1333.73 418.803C1300.74 409.188 1267.51 397.265 1234.97 383.364C1203.08 369.744 1173.29 354.568 1150.91 342.868C1098.53 315.567 1048.69 292.747 1002.78 275.042C928.419 246.367 862.155 228.886 794.235 220.03C753.261 214.688 709.3 211.87 666.973 211.87C666.317 211.87 665.665 211.87 665.009 211.872C628.647 211.947 594.125 216.006 562.24 220.382C553.941 221.529 545.357 222.782 536.724 224.109C531.994 224.845 527.256 225.602 522.244 226.403C486.89 232.063 446.816 238.475 398.133 237.949C368.483 237.628 338.2 235.783 308.914 233.998C290.004 232.844 270.452 231.653 251.802 230.934C226.165 229.945 202.573 230.262 181.673 231.88C106.414 237.7 43.6383 253.339 13.7435 273.715L13.0547 273.351C28.3886 262.902 51.4537 253.854 81.6086 246.457C110.408 239.396 144.971 234.165 181.556 231.336C202.51 229.716 226.165 229.395 251.861 230.388C270.529 231.107 290.091 232.301 309.009 233.454C338.277 235.239 368.542 237.084 398.151 237.403C446.71 237.929 486.714 231.526 522.009 225.877C527.026 225.074 531.763 224.316 536.497 223.581C545.137 222.254 553.729 220.999 562.035 219.852C593.974 215.469 628.556 211.403 665.005 211.326C708.006 211.236 752.755 214.062 794.43 219.498C829.483 224.07 863.467 230.799 898.316 240.071C931.878 249.002 966.21 260.291 1003.27 274.584C1049.21 292.303 1099.09 315.14 1151.5 342.458C1173.87 354.152 1203.63 369.317 1235.49 382.921C1301.53 411.129 1369.67 430.825 1438.02 441.464C1462.4 445.266 1487.85 448.315 1513.67 450.525C1545.35 453.184 1576.41 454.571 1605.99 454.643C1652.28 454.758 1706.03 453.82 1758.46 441.129C1784.99 434.706 1807.95 425.313 1828.64 412.415C1864.98 389.763 1889.06 360.69 1912.36 332.572C1924.35 318.109 1935.67 304.448 1947.97 292.622C1951.92 288.833 1955.9 284.93 1959.74 281.155C1972.74 268.4 1986.18 255.214 2001.67 243.026C2019.36 229.003 2038.35 217.629 2058.11 209.219C2081.01 199.47 2104.36 194.015 2127.5 193.006C2141.79 192.384 2156.29 193.02 2171.83 194.952C2213.38 200.117 2254.57 215.121 2296.62 231.361C2333.28 245.52 2369.77 263.56 2402.14 283.533C2438.1 305.654 2471.89 331.606 2502.56 360.666C2529.88 386.556 2554.91 415.054 2576.95 445.371L2576.11 445.591C2528.78 380.484 2470.03 326.089 2401.49 283.918C2369.16 263.974 2332.73 245.96 2296.13 231.825C2254.15 215.614 2213.04 200.639 2171.64 195.492C2156.19 193.57 2141.77 192.938 2127.57 193.557C2085.04 195.413 2040.59 213.098 2002.4 243.36C1986.94 255.527 1973.51 268.702 1960.52 281.443C1956.68 285.221 1952.69 289.126 1948.75 292.915C1936.47 304.718 1925.15 318.369 1913.18 332.819C1901.75 346.614 1889.93 360.881 1876.37 374.596C1860.99 390.144 1845.6 402.639 1829.3 412.798C1808.52 425.753 1785.46 435.188 1758.8 441.642C1735.29 447.335 1710.02 451.097 1681.55 453.149C1657.43 454.877 1633.22 455.196 1612.07 455.196Z" fill="#FFE492"/>
<path d="M1670.82 456.298C1652.14 456.298 1634.19 455.629 1618.14 454.951C1588.62 453.705 1557.52 451.119 1525.73 447.262C1499.98 444.094 1474.66 440.136 1450.45 435.494C1384.18 422.807 1318.74 401.69 1250.41 370.939C1220.61 357.531 1192.52 343.103 1166.31 329.477C1114.56 302.653 1062.93 280.904 1012.85 264.83C939.206 241.189 870.301 228.622 796.002 225.28C753.667 223.376 709.025 224.153 666.896 227.525C631.633 230.348 598.39 237.159 567.356 243.89C559.591 245.583 551.333 247.432 542.814 249.385C540.685 249.876 538.538 250.375 536.362 250.88C500.619 259.183 460.176 268.578 408.271 268.578C407.395 268.578 406.523 268.576 405.64 268.57C370.524 268.356 334.672 265.345 299.995 262.43C286.248 261.274 272.032 260.081 258.391 259.115C231.746 257.23 208.67 256.674 187.84 257.418C112.079 260.125 48.1306 271.079 12.399 287.477L11.7871 286.995C29.4514 278.89 54.9933 271.852 85.6428 266.643C115.79 261.521 151.108 258.122 187.777 256.812C208.666 256.066 231.801 256.623 258.504 258.512C272.16 259.478 286.38 260.673 300.131 261.827C334.774 264.737 370.594 267.746 405.644 267.96C458.629 268.286 499.732 258.734 535.992 250.309C538.164 249.805 540.315 249.306 542.444 248.813C550.97 246.858 559.232 245.009 567.004 243.316C598.089 236.571 631.395 229.751 666.753 226.92C708.948 223.543 753.664 222.764 796.068 224.67C832.887 226.326 867.992 230.235 903.387 236.619C939.84 243.195 975.799 252.244 1013.32 264.29C1063.46 280.386 1115.15 302.162 1166.95 329.012C1193.16 342.634 1221.23 357.053 1251 370.448C1319.24 401.157 1384.58 422.244 1450.75 434.91C1474.92 439.544 1500.21 443.498 1525.92 446.661C1557.67 450.513 1588.72 453.098 1618.2 454.339C1667.8 456.431 1720.57 457.505 1772.48 445.932C1799.8 439.841 1822.91 430.389 1843.15 417.033C1879.19 393.243 1901.63 360.793 1921.42 332.162C1931.38 317.757 1940.79 304.15 1951.17 292.551C1954.92 288.366 1958.69 284.041 1962.33 279.858C1973.74 266.771 1985.53 253.239 1999.48 240.601C2015.63 225.879 2033.39 213.668 2052.28 204.308C2073.97 193.559 2096.56 186.919 2119.43 184.579C2133.73 183.115 2148.28 182.882 2163.92 183.86C2207.61 186.596 2252 200.116 2293.46 214.322C2331.75 227.437 2369.54 244.863 2402.77 264.715C2439.73 286.733 2473.78 312.944 2503.98 342.616C2530.98 369.152 2554.82 398.333 2574.83 429.354L2573.89 429.572C2531.36 363.633 2471.94 306.774 2402.06 265.142C2368.9 245.328 2331.18 227.935 2292.97 214.846C2251.6 200.673 2207.33 187.186 2163.82 184.46C2148.27 183.487 2133.81 183.721 2119.61 185.174C2077.38 189.495 2035.02 209.296 2000.33 240.932C1986.4 253.543 1974.62 267.062 1963.23 280.136C1959.59 284.32 1955.82 288.646 1952.07 292.835C1941.71 304.408 1932.31 318.001 1922.36 332.391C1902.53 361.066 1880.06 393.569 1843.89 417.438C1823.55 430.866 1800.3 440.372 1772.83 446.498C1749 451.812 1723.28 454.89 1694.21 455.9C1686.36 456.186 1678.53 456.298 1670.82 456.298Z" fill="#FFE492"/>
<path d="M1707.7 458.683C1707.43 458.683 1707.17 458.683 1706.9 458.683C1680.5 458.643 1654.58 456.702 1630.28 454.716C1600.81 452.308 1569.73 448.519 1537.92 443.461C1512.29 439.342 1487.13 434.475 1463.13 428.998C1399.5 414.497 1336.82 392.103 1265.86 358.517C1240.31 346.425 1215.17 333.404 1190.84 320.815C1187.8 319.238 1184.76 317.664 1181.71 316.091C1129.69 289.274 1076.28 268.592 1022.95 254.622C949.92 235.495 876.269 227.614 797.786 230.531C754.752 232.131 710.15 236.505 668.801 243.18C636.177 248.447 607.106 256.898 572.489 267.399C565.472 269.536 557.979 271.843 548.914 274.661L548.409 274.82C530.92 280.292 511.098 286.493 488.865 291.209C463.33 296.624 438.558 299.23 413.155 299.2C373.543 299.14 333.118 294.711 294.026 290.425C284.449 289.375 274.541 288.29 264.978 287.308C237.553 284.497 214.338 283.077 194.006 282.969C119.143 282.573 52.4501 289.238 11.032 301.253L10.5557 300.659C30.8434 294.773 58.2099 289.996 89.6949 286.843C121.238 283.684 157.314 282.117 194.017 282.311C214.407 282.419 237.681 283.841 265.165 286.658C274.735 287.64 284.643 288.726 294.224 289.776C333.268 294.055 373.642 298.48 413.159 298.539C413.334 298.539 413.514 298.539 413.69 298.539C470.215 298.539 513.278 285.067 547.903 274.234L548.412 274.076C557.481 271.256 564.974 268.949 571.994 266.811C606.67 256.293 635.792 247.827 668.519 242.543C709.937 235.856 754.612 231.475 797.72 229.872C836.126 228.446 872.352 229.533 908.476 233.201C947.402 237.152 984.992 243.961 1023.39 254.019C1076.82 268.015 1130.33 288.73 1182.43 315.591C1185.48 317.165 1188.52 318.741 1191.56 320.317C1215.87 332.902 1241.01 345.919 1266.54 358.002C1337.4 391.546 1399.99 413.91 1463.52 428.386C1487.48 433.856 1512.61 438.714 1538.2 442.829C1569.97 447.881 1601 451.663 1630.43 454.067C1683.15 458.377 1734.75 461.366 1786.53 450.765C1814.62 445.01 1837.9 435.498 1857.67 421.683C1893.39 396.726 1912.91 362.145 1930.13 331.632C1938.19 317.347 1945.8 303.853 1954.39 292.514C1957.7 288.151 1961.01 283.638 1964.22 279.273C1974.24 265.625 1984.61 251.514 1997.32 238.209C2011.95 222.78 2028.49 209.73 2046.46 199.423C2066.96 187.677 2088.79 179.858 2111.37 176.186C2125.37 173.91 2139.66 172.8 2155.01 172.8C2155.34 172.8 2155.68 172.8 2156.01 172.802C2203.74 172.952 2252.86 185.98 2290.32 197.312C2330.22 209.387 2369.33 226.196 2403.41 245.925C2441.37 267.841 2475.7 294.31 2505.42 324.599C2532.09 351.779 2554.74 381.645 2572.72 413.37L2571.68 413.584C2544.92 366.378 2493.86 299.056 2402.65 246.402C2368.65 226.718 2329.63 209.948 2289.82 197.902C2252.47 186.601 2203.51 173.61 2156.01 173.463C2140.37 173.408 2125.87 174.513 2111.66 176.824C2069.83 183.629 2029.56 205.545 1998.27 238.537C1985.59 251.811 1975.24 265.906 1965.22 279.539C1962.02 283.907 1958.7 288.422 1955.39 292.787C1946.83 304.098 1939.22 317.574 1931.17 331.843C1913.92 362.411 1894.37 397.058 1858.51 422.112C1838.6 436.02 1815.17 445.596 1786.88 451.388C1762.91 456.294 1737 458.683 1707.7 458.683Z" fill="#FFE492"/>
<path d="M1737.03 461.782C1731.34 461.782 1725.53 461.672 1719.58 461.452C1693.53 460.49 1668.22 457.604 1642.43 454.478C1612.53 450.854 1582.33 446.007 1550.11 439.658C1524.61 434.591 1499.61 428.819 1475.8 422.499C1415.39 406.49 1355.41 382.925 1281.32 346.092C1262.92 336.945 1244.53 327.352 1226.74 318.073C1217.05 313.023 1207.04 307.8 1197.12 302.699C1144.49 275.702 1089.28 256.092 1033.05 244.412C958.746 228.978 882.381 226.152 799.581 235.771C755.837 240.854 711.275 248.825 670.718 258.822C638.137 266.852 609.756 278.13 579.707 290.07L577.63 290.895C572.936 292.767 568.191 294.664 563.388 296.584C560.621 297.691 557.836 298.805 555.026 299.928C537.505 306.965 518.58 314.307 496.878 319.958C471.681 326.518 446.758 329.745 420.677 329.824C377.259 329.952 332.972 323.889 290.147 318.02C284.035 317.182 277.711 316.317 271.574 315.496C242.8 311.643 220.116 309.426 200.177 308.515C126.596 305.154 57.1551 307.522 9.65473 315.016L9.35059 314.324C56.9756 306.811 126.559 304.434 200.268 307.802C220.263 308.715 243.005 310.939 271.834 314.798C277.975 315.621 284.299 316.486 290.414 317.325C332.715 323.121 376.442 329.111 419.285 329.111C419.747 329.111 420.208 329.111 420.674 329.109C476.089 328.941 515.535 314.928 554.37 299.333C557.181 298.211 559.965 297.097 562.732 295.989C567.535 294.068 572.276 292.172 576.974 290.299L579.051 289.473C609.151 277.513 637.58 266.216 670.267 258.159C710.897 248.143 755.536 240.159 799.358 235.067C882.366 225.423 958.937 228.258 1033.44 243.734C1089.82 255.445 1145.15 275.099 1197.9 302.155C1207.82 307.258 1217.83 312.48 1227.52 317.532C1245.3 326.808 1263.69 336.4 1282.08 345.54C1356.08 382.331 1415.98 405.863 1476.28 421.845C1500.06 428.154 1525.02 433.919 1550.48 438.978C1582.65 445.318 1612.81 450.159 1642.67 453.775C1687.99 459.268 1744.4 466.105 1800.57 455.574C1829.45 450.161 1852.88 440.589 1872.19 426.311C1907.57 400.159 1923.97 363.377 1938.45 330.927C1944.74 316.83 1950.68 303.514 1957.61 292.463C1960.31 288.157 1963.02 283.704 1965.63 279.396C1974.41 264.948 1983.49 250.01 1995.15 235.802C2008.3 219.655 2023.61 205.767 2040.64 194.523C2059.94 181.781 2081.03 172.784 2103.3 167.781C2117.6 164.569 2132.25 162.59 2148.1 161.729C2169.32 160.576 2191.91 161.808 2217.16 165.489C2238.52 168.606 2261.42 173.445 2287.17 180.284C2328.7 191.315 2369.11 207.511 2404.04 227.118C2443.02 248.931 2477.61 275.662 2506.85 306.565C2533.18 334.392 2554.64 364.942 2570.61 397.37L2569.47 397.573C2535.74 329.111 2476.7 268.761 2403.23 227.642C2368.39 208.087 2328.09 191.938 2286.68 180.94C2231.2 166.204 2187.21 160.325 2148.21 162.442C2132.46 163.296 2117.92 165.262 2103.72 168.45C2050.72 180.353 2016 211.819 1996.22 236.117C1984.59 250.289 1975.52 265.21 1966.75 279.64C1964.13 283.95 1961.42 288.406 1958.72 292.714C1951.81 303.732 1945.88 317.032 1939.6 331.112C1925.1 363.632 1908.66 400.492 1873.11 426.763C1853.65 441.153 1830.03 450.801 1800.92 456.259C1781.19 459.957 1760.15 461.782 1737.03 461.782Z" fill="#FFE492"/>
<path d="M1762.43 465.335C1723.68 465.335 1686.43 459.354 1654.56 454.238C1624.58 449.426 1594.4 443.412 1562.28 435.855C1536.93 429.845 1512.09 423.166 1488.46 416.001C1417.62 394.546 1354.46 363.752 1296.77 333.668C1284.99 327.526 1273.09 321.195 1261.58 315.073C1245.61 306.572 1229.08 297.782 1212.53 289.311C1159.11 262.047 1102.12 243.505 1043.16 234.2C966.884 222.165 887.796 224.391 801.376 241.007C756.88 249.561 712.363 261.129 672.634 274.461C641.991 284.741 616.065 297.72 588.618 311.461C586.672 312.434 584.723 313.411 582.762 314.389L581.7 314.921C575.028 318.265 568.128 321.721 561.134 325.191C544.375 333.54 525.919 342.176 504.572 348.774C479.792 356.432 454.811 360.251 428.192 360.45C381.468 360.8 333.847 352.908 287.798 345.276C284.57 344.741 281.356 344.208 278.158 343.682C247.79 338.676 225.637 335.709 206.335 334.058C134.601 327.925 62.4053 325.996 8.25833 328.768L8.14844 327.999C62.3833 325.221 134.685 327.152 206.515 333.294C225.872 334.949 248.072 337.923 278.495 342.938C281.693 343.464 284.907 343.997 288.138 344.534C334.1 352.15 381.63 360.023 428.174 359.679C485.981 359.248 526.692 341.344 560.313 324.596C567.308 321.127 574.207 317.671 580.879 314.329L581.942 313.796C583.902 312.817 585.851 311.842 587.797 310.869C615.292 297.104 641.262 284.102 672.007 273.787C711.809 260.431 756.411 248.843 800.984 240.274C841.955 232.397 880.439 227.849 918.629 226.37C961.23 224.721 1003.23 227.105 1043.48 233.456C1102.63 242.79 1159.78 261.384 1213.36 288.723C1229.92 297.198 1246.45 305.99 1262.43 314.494C1273.93 320.616 1285.83 326.945 1297.6 333.085C1355.24 363.135 1418.32 393.897 1489.03 415.312C1512.63 422.466 1537.43 429.136 1562.75 435.137C1594.81 442.683 1624.95 448.688 1654.89 453.494C1700.86 460.873 1758.07 470.057 1814.6 460.393C1844.26 455.321 1867.84 445.69 1886.69 430.95C1921.71 403.567 1934.81 364.522 1946.37 330.071C1951.01 316.229 1955.4 303.155 1960.81 292.419C1962.81 288.448 1964.82 284.345 1966.76 280.376C1974.36 264.852 1982.22 248.797 1992.96 233.403C2004.66 216.525 2018.73 201.794 2034.79 189.623C2052.91 175.889 2073.24 165.714 2095.21 159.381C2109.48 155.268 2124.18 152.418 2140.16 150.663C2161.69 148.301 2185.58 148.38 2211.17 150.899C2233.57 153.105 2258.07 157.263 2283.99 163.262C2327.14 173.249 2368.86 188.828 2404.66 208.314C2444.65 230.026 2479.51 257.015 2508.27 288.534C2534.25 317.008 2554.52 348.245 2568.49 381.376L2567.24 381.565C2537.64 311.364 2479.6 250.039 2403.8 208.887C2368.12 189.464 2326.53 173.936 2283.53 163.981C2227.79 151.079 2180.97 146.969 2140.39 151.423C2124.53 153.164 2109.93 155.995 2095.77 160.076C2043.49 175.144 2011.65 208.429 1994.15 233.7C1983.43 249.055 1975.58 265.087 1967.99 280.591C1966.05 284.56 1964.04 288.666 1962.04 292.641C1956.65 303.342 1952.26 316.398 1947.63 330.223C1942.06 346.797 1935.76 365.581 1926.61 383.192C1916.13 403.369 1903.4 419.144 1887.71 431.419C1878.64 438.516 1868.21 444.556 1856.71 449.373C1844.35 454.553 1830.3 458.511 1814.95 461.135C1797.38 464.14 1779.75 465.335 1762.43 465.335Z" fill="#FFE492"/>
<path d="M1785.33 469.233C1772.52 469.233 1759.1 468.485 1744.92 466.99C1717 464.047 1690.28 458.706 1666.7 453.998C1636.98 448.061 1605.94 440.675 1574.46 432.048C1549.27 425.105 1524.6 417.519 1501.12 409.497C1433.75 386.5 1375.71 355.921 1312.21 321.241C1306.57 318.159 1300.84 315.015 1295.3 311.973C1273.48 300 1250.92 287.62 1227.94 275.922C1173.63 248.339 1114.86 230.867 1053.27 223.99C975.575 215.314 891.427 222.799 803.172 246.239C757.884 258.267 713.407 273.43 674.55 290.092C645.293 302.637 621.209 317.428 595.711 333.089C593.121 334.68 590.519 336.276 587.903 337.879C581.392 341.872 574.379 346.158 567.245 350.448C552.285 359.476 534.053 369.763 512.27 377.584C487.886 386.341 462.843 390.755 435.714 391.074C386.052 391.662 335.5 381.782 286.61 372.229L284.749 371.865C260.812 367.19 235.49 362.466 212.502 359.597C142.431 350.856 69.4035 344.787 6.87695 342.508L6.96122 341.685C69.5537 343.965 142.647 350.039 212.78 358.789C235.834 361.666 261.2 366.397 285.174 371.079L287.035 371.443C335.818 380.974 386.268 390.83 435.689 390.247C492.763 389.573 532.181 370.439 566.274 349.861C573.408 345.572 580.414 341.286 586.925 337.295C589.541 335.695 592.142 334.097 594.733 332.507C620.275 316.821 644.402 302.003 673.755 289.416C712.685 272.721 757.247 257.529 802.618 245.479C844.026 234.484 884.773 226.906 923.722 222.962C968.225 218.455 1011.9 218.526 1053.52 223.173C1115.35 230.076 1174.33 247.61 1228.83 275.288C1251.83 286.997 1274.4 299.382 1296.23 311.361C1301.77 314.401 1307.5 317.545 1313.15 320.627C1376.58 355.274 1434.56 385.82 1501.81 408.778C1525.25 416.786 1549.89 424.361 1575.04 431.295C1606.48 439.909 1637.46 447.284 1667.14 453.212C1713.66 462.506 1771.56 474.07 1828.65 465.209C1859.1 460.483 1882.84 450.795 1901.22 435.588C1935.85 406.937 1945.87 363.753 1953.92 329.053C1957.06 315.537 1960.02 302.772 1964.03 292.381C1965.3 289.106 1966.58 285.731 1967.81 282.466C1974.22 265.507 1980.86 247.969 1990.81 231.01C2006.17 204.618 2035.35 169.313 2087.14 150.991C2101.45 145.932 2116.2 142.207 2132.25 139.605C2174.24 132.7 2224.23 134.934 2280.84 146.242C2325.61 155.187 2368.64 170.149 2405.3 189.514C2446.3 211.123 2481.43 238.371 2509.71 270.509C2522.69 285.249 2534.15 300.993 2543.8 317.303C2553.01 332.882 2560.61 349.059 2566.38 365.387L2565.04 365.558C2539.59 293.614 2482.53 231.314 2404.39 190.133C2367.87 170.84 2325 155.935 2280.4 147.024C2224.06 135.766 2174.33 133.538 2132.61 140.4C2116.68 142.982 2102.03 146.678 2087.84 151.7C2036.41 169.894 2007.39 205.018 1992.1 231.281C1982.18 248.196 1975.56 265.71 1969.15 282.647C1967.91 285.911 1966.64 289.288 1965.37 292.566C1961.37 302.921 1958.41 315.669 1955.28 329.166C1951.23 346.627 1946.64 366.417 1938.79 385.095C1929.77 406.559 1917.84 423.234 1902.33 436.072C1893.48 443.396 1883.12 449.573 1871.56 454.429C1859.1 459.662 1844.78 463.558 1828.99 466.006C1815.14 468.159 1800.67 469.233 1785.33 469.233Z" fill="#FFE492"/>
<path d="M1806.44 473.35C1791.08 473.35 1774.89 472.155 1757.6 469.758C1729.58 465.877 1702.62 459.436 1678.83 453.752C1648.88 446.597 1617.87 438.014 1586.64 428.238C1561.62 420.368 1537.1 411.875 1513.79 402.993C1449.62 378.569 1394.59 347.09 1336.32 313.766C1333.44 312.117 1330.56 310.466 1327.67 308.815C1300.57 293.335 1272.55 277.327 1243.35 262.534C1188.09 234.601 1127.54 218.196 1063.39 213.776C982.8 208.222 895.857 220.904 804.967 251.465C759.504 266.751 713.868 286.02 676.466 305.72C648.224 320.594 625.573 337.331 601.592 355.052C598.752 357.15 595.905 359.254 593.036 361.363C587.305 365.583 580.487 370.587 573.349 375.705C560.129 385.208 542.117 397.285 519.964 406.37C495.969 416.212 470.87 421.229 443.232 421.702C420.516 422.043 395.446 419.937 366.588 415.259C341.812 411.244 317.846 405.996 291.326 400.052C267.118 394.56 241.568 388.887 218.646 385.14C150.748 374.041 79.0286 364.322 5.48438 356.247L5.74817 355.382C79.3364 363.459 151.096 373.187 219.031 384.29C242.015 388.048 267.601 393.73 291.839 399.226C336.291 409.192 391.614 421.599 443.192 420.822C502.161 419.809 540.058 398.267 572.224 375.137C579.358 370.023 586.173 365.022 591.9 360.804C594.769 358.695 597.616 356.591 600.452 354.495C624.473 336.746 647.165 319.98 675.499 305.057C712.978 285.318 758.701 266.012 804.252 250.697C895.417 220.043 982.661 207.328 1063.56 212.902C1094.57 215.04 1125.04 220.004 1154.1 227.655C1185.29 235.864 1215.63 247.375 1244.29 261.862C1273.53 276.671 1301.57 292.688 1328.68 308.179C1331.57 309.832 1334.45 311.481 1337.34 313.129C1395.55 346.425 1450.53 377.873 1514.57 402.251C1537.86 411.12 1562.33 419.602 1587.32 427.459C1618.5 437.22 1649.47 445.792 1679.37 452.935C1726.37 464.162 1784.86 478.134 1842.69 470.031C1874.02 465.641 1897.91 455.894 1915.73 440.233C1950.05 410.321 1956.16 364.628 1961.07 327.914C1962.83 314.783 1964.49 302.38 1967.24 292.351C1967.81 290.282 1968.38 288.201 1968.95 286.11C1974.08 267.22 1979.4 247.686 1988.63 228.622C2001.82 201.202 2028.2 164.021 2079.06 142.606C2093.25 136.632 2108.05 132.035 2124.32 128.553C2146.93 123.668 2172.13 121.372 2199.21 121.724C2223.93 122.046 2250.33 124.571 2277.67 129.227C2324.05 137.123 2368.4 151.469 2405.92 170.713C2447.93 192.216 2483.33 219.728 2511.14 252.482C2523.9 267.511 2534.94 283.579 2543.97 300.238C2552.62 316.194 2559.45 332.735 2564.26 349.401L2562.82 349.551C2541.84 276.926 2484.3 211.986 2404.97 171.382C2367.61 152.222 2323.45 137.935 2277.27 130.07C2220.32 120.371 2167.61 120.133 2124.81 129.378C2108.66 132.835 2093.97 137.396 2079.9 143.324C2029.39 164.591 2003.15 201.58 1990.04 228.864C1980.83 247.877 1975.52 267.383 1970.39 286.249C1969.82 288.34 1969.25 290.423 1968.69 292.492C1965.94 302.484 1964.29 314.871 1962.53 327.982C1957.6 364.802 1951.47 410.627 1916.93 440.731C1908.34 448.279 1898.07 454.597 1886.41 459.504C1873.86 464.783 1859.26 468.613 1843.02 470.889C1831.3 472.527 1819.16 473.35 1806.44 473.35Z" fill="#FFE492"/>
<path d="M1826.27 477.637C1808.77 477.637 1790.24 475.937 1770.27 472.525C1742.01 467.698 1714.88 460.158 1690.95 453.508C1660.71 445.103 1629.71 435.318 1598.81 424.43C1573.97 415.647 1549.62 406.245 1526.44 396.49C1469.36 372.478 1420.59 343.062 1368.94 311.917C1360.5 306.825 1351.77 301.562 1343.11 296.386C1312.66 278.203 1286.66 263.21 1258.75 249.145C1202.51 220.843 1140.18 205.506 1073.5 203.56C989.711 201.114 899.961 218.989 806.748 256.687C760.442 275.416 714.847 298.376 678.365 321.341C650.881 338.641 629.395 357.474 606.649 377.411C603.831 379.881 601.002 382.36 598.155 384.841C593.084 389.268 586.372 395.101 579.443 400.95C550.285 425.623 512.19 451.025 450.741 452.323C448.825 452.361 446.901 452.378 444.981 452.378C396.997 452.378 348.009 440.969 297.892 428.23L294.763 427.428C269.94 421.062 246.49 415.05 224.784 410.674C142.985 394.181 63.875 380.26 4.09277 369.975L4.52148 369.075C64.3183 379.364 143.45 393.288 225.279 409.787C247.043 414.174 270.519 420.195 295.375 426.568L298.501 427.369C350.453 440.575 401.189 452.354 450.686 451.39C511.454 450.104 549.23 424.899 578.172 400.411C585.097 394.566 591.802 388.737 596.873 384.313C599.72 381.829 602.545 379.353 605.363 376.883C628.145 356.915 649.664 338.051 677.236 320.696C713.792 297.683 759.479 274.677 805.876 255.91C848.939 238.493 892.017 225.12 933.912 216.158C981.98 205.876 1028.97 201.323 1073.57 202.624C1140.6 204.579 1203.24 219.991 1259.75 248.426C1287.7 262.512 1313.72 277.521 1344.2 295.719C1352.86 300.895 1361.59 306.16 1370.04 311.252C1421.63 342.366 1470.37 371.754 1527.33 395.718C1550.48 405.461 1574.79 414.848 1599.59 423.618C1630.45 434.492 1661.4 444.262 1691.6 452.654C1739.01 465.829 1798.01 482.224 1856.73 474.843C1888.82 470.808 1912.87 461.003 1930.23 444.87C1964.11 413.595 1966.15 365.33 1967.79 326.549C1968.32 313.896 1968.83 301.943 1970.45 292.312L1970.48 292.091C1974.11 270.525 1977.85 248.225 1986.45 226.223C1993.89 207.031 2004.25 189.777 2017.25 174.936C2031.91 158.203 2049.98 144.502 2070.96 134.211C2085 127.325 2099.86 121.855 2116.37 117.489C2160.99 105.626 2215.66 103.795 2274.49 112.197C2298.16 115.579 2321.51 120.701 2343.9 127.42C2366.41 134.178 2387.49 142.417 2406.54 151.905C2449.57 173.304 2485.24 201.077 2512.56 234.451C2537.12 264.449 2554.26 298.669 2562.14 333.409L2560.6 333.534C2543.74 259.181 2487.23 193.242 2405.54 152.625C2367.35 133.601 2321.9 119.935 2274.13 113.113C2215.64 104.759 2161.31 106.571 2117.01 118.352C2100.62 122.684 2085.89 128.111 2071.95 134.942C2032.77 154.157 2003.73 185.797 1987.97 226.441C1979.4 248.386 1975.66 270.655 1972.04 292.191L1972 292.411C1970.39 302.006 1969.88 313.942 1969.35 326.578C1967.7 365.478 1965.66 413.888 1931.53 445.382C1923.16 453.162 1912.96 459.616 1901.23 464.565C1888.58 469.901 1873.72 473.668 1857.04 475.765C1847.11 477.011 1836.88 477.637 1826.27 477.637Z" fill="#FFE492"/>
<path d="M451.88 483.027C430.423 483.027 407.058 480.515 380.688 475.386C354.486 470.29 328.574 463.255 304.473 456.413C300.109 455.167 295.778 453.923 291.476 452.688C270.064 446.54 249.838 440.733 230.936 436.209C155.563 418.178 83.7188 401.971 14.238 386.302L2.72559 383.704L3.30449 382.778L14.8169 385.375C84.3014 401.049 156.157 417.255 231.544 435.291C250.498 439.826 270.749 445.639 292.187 451.797C296.485 453.032 300.816 454.275 305.176 455.519C354.651 469.564 407.215 483.175 458.197 481.962C520.866 480.394 558.422 451.064 584.136 425.689C590.724 419.199 597.07 412.731 601.863 407.822C604.508 405.117 607.135 402.414 609.755 399.717C631.483 377.362 652.005 356.247 678.994 336.338C714.62 310.063 760.262 283.351 807.521 261.129C851.365 240.511 895.608 224.221 939.026 212.712C988.828 199.511 1037.47 192.66 1083.6 192.35C1153.02 191.729 1217.5 206.078 1275.21 234.992C1307.21 251.04 1335.89 268.4 1359.74 283.266C1372.71 291.356 1385.69 299.648 1398.24 307.668C1442.66 336.058 1488.59 365.413 1540.1 389.19C1563.11 399.814 1587.27 410.107 1611.88 419.782C1642.35 431.729 1673.29 442.696 1703.85 452.378C1751.61 467.51 1811.05 486.342 1870.77 479.659C1903.64 475.981 1927.84 466.119 1944.74 449.509C1978.18 416.817 1975.92 365.909 1974.1 325.003C1973.57 312.907 1973.06 301.48 1973.67 292.28C1975.04 271.541 1977.11 247.439 1984.28 223.831C1990.33 203.828 1999.45 185.73 2011.4 170.044C2024.92 152.299 2042.25 137.422 2062.89 125.825C2076.57 118.14 2091.9 111.618 2108.45 106.436C2132.06 99.0171 2158.57 94.3524 2187.22 92.5737C2214.06 90.9073 2242.35 91.7835 2271.32 95.1757C2295.74 98.0375 2319.82 102.744 2342.88 109.168C2366.08 115.631 2387.71 123.683 2407.17 133.101C2429.6 143.944 2450.22 156.75 2468.47 171.162C2485.75 184.817 2501.07 200.046 2514 216.424C2538.19 247.064 2554.11 281.991 2560.03 317.422L2558.39 317.521C2545.67 241.436 2490.18 174.499 2406.13 133.873C2367.64 115.245 2319.66 101.848 2271 96.1487C2210.84 89.1022 2154.9 92.9634 2109.21 107.314C2092.79 112.454 2077.58 118.926 2064.01 126.549C2025.12 148.4 1998.83 181.189 1985.9 224.01C1978.75 247.553 1976.68 271.614 1975.31 292.32C1974.71 301.486 1975.21 312.896 1975.75 324.977C1976.64 345.157 1977.66 368.031 1974.26 390.143C1970.31 415.802 1961.12 435.39 1946.15 450.027C1938 458.035 1927.88 464.628 1916.07 469.621C1903.32 475.014 1888.18 478.719 1871.08 480.632C1862.45 481.598 1853.83 482.037 1845.26 482.037C1793.93 482.037 1744.2 466.279 1703.08 453.252C1672.48 443.555 1641.49 432.572 1610.99 420.608C1586.33 410.92 1562.14 400.611 1539.1 389.972C1487.48 366.146 1441.5 336.761 1397.04 308.343C1384.49 300.326 1371.52 292.036 1358.56 283.95C1334.74 269.102 1306.1 251.767 1274.16 235.75C1216.76 206.989 1152.66 192.724 1083.63 193.336C975.223 194.067 874.199 231.025 808.539 261.904C761.376 284.082 715.825 310.736 680.277 336.959C653.368 356.808 632.875 377.891 611.181 400.21C608.561 402.907 605.93 405.61 603.285 408.318C598.488 413.229 592.139 419.701 585.547 426.197C574.753 436.849 557.807 452.356 535.361 463.979C524.46 469.623 512.86 474.059 500.882 477.165C487.527 480.628 473.186 482.574 458.266 482.946C456.152 483.001 454.023 483.027 451.88 483.027Z" fill="#FFE492"/>
<path d="M458.769 513.675C437.287 513.675 413.969 510.97 387.738 505.449C360.58 499.734 333.73 491.699 311.05 484.591C304.081 482.403 297.127 480.184 290.4 478.037C271.596 472.039 253.833 466.37 237.085 461.743C176.94 445.123 117.187 428.897 59.3977 413.203C40.2825 408.012 20.5188 402.646 1.36328 397.433L2.08142 396.48C21.2369 401.692 41.0007 407.059 60.1159 412.25C117.905 427.943 177.665 444.172 237.814 460.794C254.606 465.435 272.391 471.107 291.217 477.115C297.94 479.261 304.895 481.478 311.856 483.666C358.895 498.402 413.456 514.001 465.701 512.533C529.847 510.688 565.876 478.66 590.102 450.965C596.313 443.87 602.318 436.747 606.854 431.333C609.184 428.555 611.5 425.779 613.812 423.01C634.594 398.102 654.222 374.576 680.757 351.984C715.269 322.6 760.875 292.188 809.167 266.351C876.42 230.524 980.364 186.823 1093.63 182.084C1165.67 178.988 1231.97 192.271 1290.69 221.567C1317.07 234.735 1343.15 249.925 1375.28 270.822C1391.52 281.382 1407.63 292.327 1423.21 302.909C1463.74 330.441 1505.65 358.911 1552.88 382.675C1575.75 394.19 1599.74 405.388 1624.17 415.959C1653.76 428.747 1684.68 440.912 1716.09 452.116C1764.34 469.223 1824.38 490.517 1884.82 484.489C1917.95 481.254 1942.99 471.05 1959.25 454.166C1992.22 419.994 1985.15 364.089 1979.98 323.269C1978.53 311.813 1977.16 300.994 1976.89 292.265C1976.29 272.867 1976.34 247.29 1982.12 221.457C1992.09 176.692 2016.55 141.7 2054.81 117.456C2068.22 108.915 2083.61 101.494 2100.52 95.3988C2124.59 86.7167 2151.74 80.8765 2181.23 78.0434C2209.02 75.3753 2238.26 75.4172 2268.14 78.1689C2293.36 80.5419 2318.16 84.8434 2341.85 90.9499C2365.78 97.1181 2387.96 104.977 2407.8 114.308C2430.73 125.091 2451.68 137.94 2470.06 152.502C2487.49 166.302 2502.75 181.747 2515.44 198.411C2539.26 229.697 2553.95 265.328 2557.92 301.452L2556.18 301.52C2547.62 223.698 2493.15 155.762 2406.73 115.134C2367.55 96.702 2318.23 83.9408 2267.88 79.2035C2205.81 73.491 2148.25 79.4016 2101.42 96.297C2084.64 102.342 2069.39 109.703 2056.08 118.176C2018.07 142.259 1993.77 177.053 1983.85 221.598C1978.09 247.36 1978.04 272.887 1978.63 292.248C1978.91 300.945 1980.27 311.752 1981.72 323.192C1984.39 344.292 1987.42 368.21 1985.69 391.56C1983.67 418.748 1975.52 439.399 1960.76 454.692C1952.82 462.94 1942.78 469.677 1930.91 474.713C1918.05 480.175 1902.64 483.811 1885.11 485.524C1857.92 488.234 1828.66 485.799 1795.65 478.079C1766.96 471.367 1739.47 461.62 1715.21 453.021C1683.76 441.801 1652.79 429.619 1623.16 416.813C1598.69 406.227 1574.67 395.013 1551.76 383.483C1504.44 359.671 1462.48 331.17 1421.9 303.609C1406.33 293.029 1390.23 282.091 1374.01 271.54C1341.93 250.68 1315.89 235.519 1289.57 222.381C1231.21 193.253 1165.33 180.049 1093.75 183.125C980.969 187.847 877.369 231.414 810.317 267.133C762.121 292.917 716.61 323.265 682.172 352.587C655.71 375.115 636.111 398.608 615.362 423.479C613.05 426.251 610.734 429.026 608.404 431.805C603.864 437.222 597.855 444.352 591.637 451.454C567.198 479.396 530.807 511.709 465.778 513.578C463.466 513.642 461.125 513.675 458.769 513.675Z" fill="#FFE492"/>
<path d="M465.796 544.324C407.099 544.324 345.51 522.665 290.912 503.462C274.135 497.563 258.288 491.989 243.229 487.276L0 411.16L0.846411 410.185L244.075 486.301C259.175 491.025 275.04 496.605 291.839 502.514C348.548 522.458 412.825 545.064 473.205 543.104C538.765 540.98 573.302 506.256 596.067 476.245C603.512 466.429 610.701 456.442 617.655 446.782C636.675 420.366 656.34 393.049 682.512 367.626C703.294 347.44 729.111 326.269 757.17 306.406C787.952 284.615 820.91 264.623 855.121 246.985C892.842 227.541 931.197 211.456 969.116 199.179C1011.06 185.601 1052.38 176.736 1091.93 172.829C1171.18 165.003 1243.25 176.879 1306.14 208.132C1358.41 234.101 1402.83 266.214 1445.79 297.271C1483.19 324.303 1521.85 352.254 1565.64 376.147C1616.21 403.744 1670.95 429.211 1728.33 451.839C1776.68 470.904 1836.85 494.635 1898.86 489.301C1951.24 484.797 1981.52 463.744 1991.43 424.934C1999.87 391.922 1991.84 352.763 1985.4 321.299C1983.2 310.576 1981.13 300.447 1980.11 292.234C1974.49 246.957 1978.07 209.58 1991.06 177.971C1999.16 158.249 2011.12 140.669 2026.6 125.72C2043.89 109.02 2066.09 95.099 2092.59 84.3432C2115.5 75.0381 2141.33 68.28 2169.36 64.2559C2196.04 60.4255 2224.12 59.1422 2252.84 60.441C2309.32 62.9945 2364.57 75.4454 2408.41 95.4974C2431.84 106.216 2453.12 119.111 2471.65 133.823C2489.21 147.766 2504.42 163.429 2516.86 180.379C2540.3 212.31 2553.76 248.647 2555.79 285.461L2553.96 285.498C2549.64 207.104 2494.81 136.403 2407.3 96.3758C2314.36 53.8677 2182.43 49.1899 2093.6 85.2568C2005.61 120.985 1969.08 188.661 1981.93 292.153C1982.94 300.34 1985.02 310.455 1987.21 321.164C1993.67 352.696 2001.71 391.94 1993.24 425.101C1988.62 443.163 1979.35 457.679 1965.67 468.247C1957.97 474.189 1948.7 479.045 1938.1 482.677C1926.82 486.543 1913.7 489.138 1899.12 490.393C1893.16 490.906 1887.09 491.164 1880.93 491.164C1858.45 491.164 1834.52 487.749 1808.29 480.833C1778.74 473.04 1750.23 461.795 1727.32 452.761C1669.86 430.1 1615.05 404.6 1564.4 376.964C1520.51 353.02 1481.81 325.036 1444.37 297.975C1401.47 266.958 1357.1 234.885 1304.96 208.981C1242.49 177.942 1170.92 166.143 1092.22 173.916C933.032 189.638 769.053 285.652 684.058 368.207C657.956 393.56 638.317 420.839 619.322 447.22C612.364 456.884 605.172 466.878 597.719 476.703C582.605 496.627 567.678 510.894 550.743 521.597C540.172 528.276 528.704 533.542 516.657 537.247C503.261 541.365 488.671 543.708 473.289 544.207C470.805 544.284 468.302 544.324 465.796 544.324Z" fill="#FFE492"/>
</g>
</svg>
