<svg width="357" height="271" viewBox="0 0 357 271" fill="none" xmlns="http://www.w3.org/2000/svg">
<path d="M184.55 270.61C181.312 270.61 177.444 269.776 172.293 267.888C158.623 262.769 144.606 247.393 129.805 231.132C121.656 222.202 113.245 212.967 104.791 205.398C92.4467 191.722 71.518 182.299 51.263 173.166C36.4629 166.498 22.4887 160.188 11.6657 152.398L11.644 152.381C3.51588 146.326 -0.287368 140.474 0.0168923 134.504C0.603679 122.853 16.8381 112.478 35.6588 100.469L37.4626 99.3128C51.4151 90.3661 68.9317 78.3918 94.294 60.5154L96.4455 59.0527C119.135 43.6086 147.387 24.3885 183.985 12.7374C257.29 -14.2558 321.446 6.64817 341.701 29.3041C362.825 55.787 361 83.9027 334.746 136.818C307.254 191.977 246.359 234.619 221.453 250.386C211.26 255.591 204.871 260.2 200.22 263.568C194.309 267.82 190.462 270.61 184.55 270.61ZM13.5782 150.765C24.1621 158.385 38.0059 164.627 52.6539 171.244C73.1479 180.479 94.3592 190.038 106.964 204.02C115.44 211.589 123.894 220.876 132.066 229.839C146.67 245.862 160.471 261 173.467 265.881C186.311 270.559 189.332 268.382 198.307 261.918C203.045 258.499 209.543 253.805 219.801 248.566C244.403 232.969 304.864 190.651 332.117 135.984C358 83.8347 359.891 56.2292 339.354 30.4947C319.685 8.51914 257.03 -11.7555 185.116 14.7274C148.887 26.2765 120.83 45.3605 98.2928 60.6855L96.163 62.1483C70.779 80.0417 53.2406 92.033 39.2447 100.997L37.4409 102.153C19.1418 113.821 3.36375 123.908 2.82043 134.555C2.55964 139.879 6.08035 145.169 13.5782 150.765Z" fill="#CCCCCC"/>
<path d="M180.138 255.2C175.661 255.2 170.923 254.077 164.403 252.087L164.273 252.053C151.755 247.137 141.845 235.282 131.369 222.747C124.219 214.174 116.808 205.329 107.898 197.624C95.3363 185.123 79.5366 175.394 64.2801 165.988C54.0222 159.678 44.3293 153.707 35.8753 147.108L35.7231 146.972C18.5107 128.619 30.855 120.523 53.2398 105.81C55.6739 104.211 58.2384 102.528 60.9115 100.725C66.1708 97.68 71.7779 94.2782 77.7327 90.6723C104.182 74.6329 140.432 52.6744 191.569 34.849C254.073 16.1222 302.363 29.6613 322.532 51.3817C342.743 74.0206 334.898 101.269 312.187 146.785C287.303 192.811 241.881 222.611 217.475 238.616L214.758 240.402C196.611 250.947 188.831 255.2 180.138 255.2ZM165.49 250.046C183.289 255.455 186.31 254.162 213.02 238.684L215.671 236.949C239.882 221.063 284.955 191.484 309.579 145.985C331.92 101.235 339.722 74.4968 320.25 52.6914C300.733 31.6683 253.704 18.6225 192.656 36.9071C141.888 54.5964 105.812 76.4698 79.4496 92.4242C73.4948 96.0301 67.8877 99.4319 62.6719 102.46C60.0639 104.211 57.4994 105.895 55.0654 107.511C32.6588 122.241 22.4009 128.976 37.9399 145.611C46.2636 152.092 55.8695 157.994 66.0187 164.253C81.4273 173.727 97.3358 183.541 110.049 196.196C119.047 203.969 126.523 212.898 133.738 221.539C143.974 233.785 153.667 245.369 165.49 250.046Z" fill="#CCCCCC"/>
<path d="M176.315 242.341C170.599 242.341 165.296 240.742 158.689 238.021C147.649 232.816 138.782 222.049 129.394 210.67C123.83 203.901 118.049 196.91 111.442 190.498C102.206 180.428 91.2524 171.822 80.6903 163.488C72.0189 156.65 63.8256 150.204 57.3709 143.553L57.284 143.451C44.2008 126.204 57.7187 118.159 82.2768 103.548L82.5593 103.378L87.1015 100.946C112.964 87.1515 148.388 68.2546 196.918 54.5624C254.205 40.2579 290.673 54.8346 304.517 71.6394C319.317 89.5668 315.688 113.634 291.999 154.711C274.743 183.337 246.577 209.072 208.306 231.2C193.505 239.058 184.486 242.341 176.315 242.341ZM59.6529 142.243C65.9989 148.758 74.1052 155.153 82.6897 161.906C93.3388 170.291 104.357 178.983 113.681 189.137C120.353 195.583 126.155 202.642 131.762 209.463C140.955 220.638 149.649 231.183 160.08 236.099C175.119 242.324 182.617 242.205 206.676 229.397C244.534 207.49 272.396 182.044 289.434 153.776C312.667 113.481 316.361 90.026 302.148 72.813C287.783 55.3788 249.967 43.6087 197.809 56.6205C149.67 70.2106 114.42 89.0055 88.688 102.749L83.9719 105.283C59.24 119.996 47.9171 126.731 59.6529 142.243Z" fill="#CCCCCC"/>
<path d="M174.263 230.639C167.874 230.639 161.876 228.921 155.182 225.554L155.139 225.537C145.055 220.128 136.926 209.956 128.32 199.207C124.343 194.223 120.214 189.086 115.737 184.188C109.76 177.01 103.132 170.377 96.7207 163.981C88.8534 156.123 81.399 148.69 76.5308 141.478C68.0333 126.255 80.4645 118.295 101.937 106.95C124.061 96.2346 158.246 80.9606 200.147 71.9459C240.158 65.4995 270.127 70.6702 284.623 86.4885C300.271 103.531 296.38 130.559 273.952 160.647C250.459 196.06 213.317 216.828 202.494 222.339C190.976 227.918 182.305 230.639 174.263 230.639ZM156.703 223.7C169.221 229.976 179.045 231.098 200.973 220.468C211.622 215.042 248.286 194.546 271.475 159.576C293.338 130.235 297.293 104.076 282.319 87.7812C268.497 72.7113 239.549 67.8637 200.778 74.106C159.311 83.0357 125.365 98.1907 103.436 108.821C81.3338 120.489 71.7061 127.429 79.0301 140.543C83.7461 147.5 91.1136 154.847 98.9157 162.637C105.37 169.084 112.042 175.734 118.041 182.963C122.539 187.862 126.669 193.049 130.667 198.05C139.143 208.579 147.119 218.546 156.703 223.7Z" fill="#CCCCCC"/>
<path d="M173.12 219.957C166.339 219.957 160.102 218.137 153.625 214.497L153.452 214.378C128.654 194.733 99.3368 149.744 93.708 140.934L93.6211 140.73C89.231 128.109 99.1412 120.693 118.94 111.423C137.587 103.225 167.035 92.4073 201.546 87.3556C233.32 83.4436 257.117 88.7164 268.592 102.204C281.328 117.189 277.438 139.964 257.943 164.695C240.774 188.542 215.477 205.704 197.526 213.8C188.137 217.916 180.313 219.957 173.12 219.957ZM155.364 212.763C167.774 219.685 178.836 219.447 196.113 211.878C213.739 203.935 238.579 187.062 255.509 163.573C274.156 139.913 278.155 117.444 266.245 103.429C255.422 90.6894 232.603 85.7398 202.025 89.5328C167.926 94.5334 138.804 105.249 120.352 113.345C101.401 122.207 92.4692 128.789 96.2942 140.066C112.463 165.376 136.435 197.727 155.364 212.763Z" fill="#CCCCCC"/>
<path d="M171.948 210.109C164.689 210.109 158.408 208.221 153.649 204.564C134.611 190.124 114.79 159.661 108.944 141.342C107.988 137.107 109.357 132.974 112.965 129.027C124.092 116.866 157.061 106.372 201.178 100.963C226.062 99.0748 244.622 104.297 253.489 115.675C263.53 128.568 259.922 147.329 243.601 167.128C222.368 192.182 196.962 208.17 175.642 209.939C174.382 210.058 173.143 210.109 171.948 210.109ZM210.871 102.783C207.872 102.783 204.764 102.902 201.548 103.157C158.256 108.464 125.961 118.618 115.29 130.32C112.117 133.79 110.922 137.345 111.726 140.9C117.463 158.844 136.936 188.814 155.648 202.999C160.581 206.775 167.405 208.425 175.36 207.762C195.854 206.061 220.499 190.43 241.254 165.937C256.728 147.159 260.422 128.806 251.099 116.832C243.949 107.664 229.844 102.783 210.871 102.783Z" fill="#CCCCCC"/>
<path d="M172.62 200.754C165.883 200.754 159.95 199.053 155.321 195.754C138.804 184.034 123.526 159.252 122.657 142.737V142.703C122.548 127.48 154.886 114.978 199.526 113.005C218.542 112.648 232.646 117.614 239.275 127.037C246.881 137.838 243.752 152.823 230.69 168.165C214.543 186.807 194.331 198.917 176.597 200.567C175.228 200.686 173.903 200.754 172.62 200.754ZM125.482 142.669C126.351 158.691 141.173 182.742 157.233 194.121C162.123 197.607 168.687 199.07 176.25 198.373C193.18 196.791 212.652 185.038 228.343 166.923C240.796 152.296 243.882 138.127 236.797 128.075C230.691 119.417 217.52 114.825 199.634 115.182C157.299 117.07 125.395 128.891 125.482 142.669Z" fill="#CCCCCC"/>
<path d="M173.601 191.893C167.712 191.893 162.452 190.481 158.214 187.709C143.327 178.03 132.743 158.436 135.069 144.897C137.59 131.902 164.691 122.581 196.681 123.653C210.721 124.282 221.066 128.807 225.847 136.376C231.324 145.05 228.824 156.565 218.958 167.944C207.309 181.262 191.944 190.124 177.861 191.655C176.405 191.825 174.992 191.893 173.601 191.893ZM191.618 125.779C163.235 125.779 140.046 133.994 137.872 145.22C135.699 157.858 146.044 176.925 160.018 186.025C164.626 189.018 170.646 190.209 177.47 189.477C190.792 188.032 205.418 179.51 216.632 166.703C225.912 156.004 228.346 145.305 223.326 137.345C219.023 130.525 209.504 126.442 196.551 125.847C194.899 125.813 193.248 125.779 191.618 125.779Z" fill="#CCCCCC"/>
<path d="M174.725 183.422C169.987 183.422 165.684 182.351 162.076 180.259C149.58 172.996 142.56 158.385 146.429 147.687C150.362 137.107 170.791 130.746 192.893 133.195C202.695 134.335 209.889 138.145 213.148 143.928C216.843 150.476 215.017 158.777 208.15 166.703C200.261 175.751 189.677 181.739 179.115 183.116C177.637 183.32 176.159 183.422 174.725 183.422ZM149.145 148.299C145.624 158.011 152.318 171.839 163.75 178.49C167.814 180.854 172.964 181.705 178.658 180.956C188.33 179.681 198.5 173.897 205.846 165.478C212.149 158.198 213.866 150.68 210.584 144.829C207.737 139.761 201.304 136.41 192.502 135.389C172.095 133.11 152.644 138.91 149.145 148.299Z" fill="#CCCCCC"/>
<path d="M175.924 175.224C172.642 175.224 169.469 174.56 166.688 173.132C157.386 168.42 153.039 158.419 156.973 150.85C160.928 143.315 175.033 139.25 188.442 141.801C194.636 142.975 199.157 145.849 201.178 149.863C203.394 154.286 202.264 159.661 198.092 164.593C192.332 171.363 183.791 175.224 175.924 175.224ZM168.209 171.295C176.228 175.36 188.573 171.822 195.745 163.385C199.396 159.065 200.439 154.422 198.548 150.68C196.875 147.346 193.05 144.948 187.769 143.944C175.663 141.648 163.015 145.118 159.581 151.683C156.126 158.334 159.994 167.127 168.209 171.295Z" fill="#CCCCCC"/>
<path d="M176.922 167.179C175.14 167.179 173.402 166.855 171.815 166.175C166.382 163.845 164.187 158.487 166.947 154.218C169.664 150 177.118 147.976 183.529 149.71C186.615 150.544 188.875 152.211 189.853 154.422C190.897 156.752 190.397 159.474 188.463 161.872C185.702 165.257 181.247 167.179 176.922 167.179ZM178.661 151.292C174.727 151.292 171.011 152.772 169.425 155.221C167.36 158.436 169.012 162.484 173.141 164.236C177.248 166.005 183.051 164.406 186.05 160.681C187.55 158.827 187.941 156.871 187.159 155.136C186.463 153.571 184.833 152.381 182.573 151.769C181.291 151.445 179.965 151.292 178.661 151.292Z" fill="#CCCCCC"/>
</svg>
