<?xml version="1.0" encoding="UTF-8"?>
<svg xmlns="http://www.w3.org/2000/svg" xmlns:xlink="http://www.w3.org/1999/xlink" width="748px" height="547px" viewBox="0 0 748 547" version="1.1">
<g id="surface1">
<rect x="0" y="0" width="748" height="547" style="fill:rgb(100%,100%,100%);fill-opacity:1;stroke:none;"/>
<path style=" stroke:none;fill-rule:nonzero;fill:rgb(98.823529%,92.54902%,85.882354%);fill-opacity:1;" d="M 700.816406 420.304688 L 104.59375 420.304688 C 104.59375 420.304688 104.011719 410.242188 103.835938 401.199219 C 102.988281 355.546875 113.664062 306.011719 143.445312 271.867188 C 166.722656 245.167969 203.390625 225.617188 260.929688 226.1875 C 272.496094 226.300781 283.246094 226 293.277344 225.335938 L 293.292969 225.335938 C 296.34375 225.132812 299.328125 224.898438 302.246094 224.628906 L 302.277344 224.625 C 368.738281 218.511719 402.039062 195.707031 432.316406 173.46875 C 446.945312 162.714844 460.609375 152.316406 476.929688 143.847656 C 495.859375 134.03125 518.261719 126.898438 549.21875 125.363281 C 565.15625 124.566406 580.316406 128.519531 592.90625 138.089844 C 616.121094 155.734375 627.652344 190.25 621.617188 233.339844 C 617.527344 262.523438 626.761719 278.34375 642.574219 288.6875 C 686.34375 317.324219 744.285156 314.199219 700.816406 420.304688 Z M 700.816406 420.304688 "/>
<path style=" stroke:none;fill-rule:nonzero;fill:rgb(93.725491%,87.058824%,80.784315%);fill-opacity:1;" d="M 454.589844 304.171875 L 454.589844 290.847656 L 451.46875 290.847656 L 451.46875 267.9375 L 434.730469 267.9375 L 434.730469 290.847656 L 419.082031 290.847656 L 419.082031 253.515625 L 401.8125 253.515625 L 401.8125 277.75 L 397.875 277.75 L 397.875 248.820312 L 380.609375 248.820312 L 380.609375 303.0625 L 358.769531 303.0625 L 358.769531 334.695312 L 350.609375 334.695312 L 350.609375 320.613281 L 331.867188 320.613281 L 331.867188 328.941406 L 321.105469 328.941406 L 321.105469 291.65625 L 307.8125 291.65625 L 307.8125 319.253906 L 294.519531 319.253906 L 294.519531 420.378906 L 467.925781 420.378906 L 467.925781 304.171875 Z M 454.589844 304.171875 "/>
<path style=" stroke:none;fill-rule:nonzero;fill:rgb(93.725491%,87.058824%,80.784315%);fill-opacity:1;" d="M 686.628906 349.964844 L 686.628906 420.378906 L 474.4375 420.378906 L 474.4375 339.957031 L 487.285156 339.957031 L 487.285156 323.238281 L 500.128906 323.238281 L 500.128906 364.976562 L 510.53125 364.976562 L 510.53125 359.925781 L 528.640625 359.925781 L 528.640625 368.460938 L 536.527344 368.460938 L 536.527344 349.292969 L 557.632812 349.292969 L 557.632812 316.425781 L 574.316406 316.425781 L 574.316406 333.957031 L 578.125 333.957031 L 578.125 319.273438 L 594.8125 319.273438 L 594.8125 341.894531 L 609.933594 341.894531 L 609.933594 328.011719 L 670.726562 328.011719 L 670.726562 341.894531 L 673.742188 341.894531 L 673.742188 349.964844 Z M 686.628906 349.964844 "/>
<path style=" stroke:none;fill-rule:nonzero;fill:rgb(93.725491%,87.058824%,80.784315%);fill-opacity:1;" d="M 296.21875 322.363281 L 296.21875 420.019531 L 143.445312 420.019531 L 143.445312 335.039062 L 155.15625 335.039062 L 155.15625 311.847656 L 166.867188 311.847656 L 166.867188 343.179688 L 176.347656 343.179688 L 176.347656 336.179688 L 192.863281 336.179688 L 192.863281 348.015625 L 200.050781 348.015625 L 200.050781 321.433594 L 219.289062 321.433594 L 219.289062 275.851562 L 234.503906 275.851562 L 234.503906 300.160156 L 237.972656 300.160156 L 237.972656 279.796875 L 253.183594 279.796875 L 253.183594 311.167969 L 266.972656 311.167969 L 266.972656 291.914062 L 281.71875 291.914062 L 281.71875 311.167969 L 284.46875 311.167969 L 284.46875 322.363281 Z M 296.21875 322.363281 "/>
<path style=" stroke:none;fill-rule:nonzero;fill:rgb(86.666667%,78.039217%,71.372551%);fill-opacity:1;" d="M 476.929688 143.847656 L 476.929688 419.738281 L 467.925781 419.738281 L 467.925781 148.851562 C 470.847656 147.121094 473.84375 145.449219 476.929688 143.847656 Z M 476.929688 143.847656 "/>
<path style=" stroke:none;fill-rule:nonzero;fill:rgb(86.666667%,78.039217%,71.372551%);fill-opacity:1;" d="M 302.277344 224.625 L 302.277344 419.738281 L 293.277344 419.738281 L 293.277344 225.335938 Z M 302.277344 224.625 "/>
<path style=" stroke:none;fill-rule:nonzero;fill:rgb(100%,69.803923%,49.019608%);fill-opacity:1;" d="M 569.109375 227.808594 L 569.117188 229.277344 C 569.117188 229.277344 568.714844 233.878906 574.375 234.550781 C 580.035156 235.222656 584.679688 235.136719 584.523438 231.585938 C 584.015625 228.835938 583.101562 224.570312 583.0625 222.296875 C 583.050781 221.453125 583.105469 220.554688 583.265625 219.542969 L 572.296875 219.324219 L 569.066406 219.851562 Z M 569.109375 227.808594 "/>
<path style=" stroke:none;fill-rule:nonzero;fill:rgb(88.627452%,56.862748%,35.294119%);fill-opacity:1;" d="M 569.066406 219.851562 L 569.109375 227.808594 C 570.273438 228.351562 571.585938 228.679688 573.0625 228.679688 C 578.101562 228.679688 581.359375 224.984375 583.0625 222.296875 C 583.050781 221.453125 583.105469 220.554688 583.265625 219.542969 L 572.296875 219.324219 Z M 569.066406 219.851562 "/>
<path style=" stroke:none;fill-rule:nonzero;fill:rgb(100%,69.803923%,49.019608%);fill-opacity:1;" d="M 584.105469 217.777344 C 582.832031 224.628906 573.996094 224.40625 570.175781 223.976562 C 569.101562 223.855469 568.425781 223.71875 568.425781 223.71875 C 567.214844 223.394531 566.539062 221.484375 566.222656 218.984375 C 565.601562 214.03125 566.386719 206.765625 567.222656 204.90625 C 568.480469 202.109375 570.851562 199.082031 579.75 201.265625 C 588.652344 203.449219 585.738281 208.996094 584.105469 217.777344 Z M 584.105469 217.777344 "/>
<path style=" stroke:none;fill-rule:nonzero;fill:rgb(13.725491%,21.960784%,38.431373%);fill-opacity:1;" d="M 591.335938 420.671875 L 578.8125 420.671875 C 578.90625 420.015625 579.226562 418.015625 579.8125 416.171875 C 580.015625 415.53125 580.253906 414.910156 580.523438 414.367188 C 581.738281 411.9375 589.476562 413.484375 589.476562 413.484375 C 589.476562 413.484375 590.195312 414.097656 590.753906 416.453125 C 591.003906 417.488281 591.222656 418.863281 591.335938 420.671875 Z M 591.335938 420.671875 "/>
<path style=" stroke:none;fill-rule:nonzero;fill:rgb(13.725491%,21.960784%,38.431373%);fill-opacity:1;" d="M 553.496094 416.714844 C 553.460938 418.421875 553.246094 420.035156 552.628906 420.671875 L 527.859375 420.671875 C 528.171875 419.773438 529.066406 418.425781 531.609375 418.011719 C 534.496094 417.542969 539 416.152344 541.632812 413.371094 C 542.570312 412.382812 543.265625 411.21875 543.570312 409.855469 C 544.738281 404.664062 553.207031 411.445312 553.207031 411.445312 C 553.207031 411.445312 553.550781 414.179688 553.496094 416.714844 Z M 553.496094 416.714844 "/>
<path style=" stroke:none;fill-rule:nonzero;fill:rgb(16.862746%,27.843139%,54.509807%);fill-opacity:1;" d="M 569.96875 360.597656 C 569.625 362.5 569.40625 364.058594 569.347656 365.175781 C 568.558594 380.546875 556.417969 415.683594 554.246094 416.503906 C 550.886719 417.773438 545.597656 415.074219 542.828125 414.191406 C 541.679688 413.828125 540.90625 412.667969 541.160156 411.496094 C 547.175781 383.835938 549.382812 344.011719 550.1875 320.429688 C 550.59375 308.554688 552.628906 300.351562 552.628906 300.351562 C 552.628906 300.351562 582.242188 292.445312 582.417969 302.445312 C 582.574219 311.292969 572.609375 346 569.96875 360.597656 Z M 569.96875 360.597656 "/>
<path style=" stroke:none;fill-rule:nonzero;fill:rgb(13.725491%,21.960784%,38.431373%);fill-opacity:1;" d="M 569.96875 360.597656 L 550.1875 320.429688 C 550.59375 308.554688 552.628906 300.351562 552.628906 300.351562 C 552.628906 300.351562 582.242188 292.445312 582.417969 302.445312 C 582.574219 311.292969 572.609375 346 569.96875 360.597656 Z M 569.96875 360.597656 "/>
<path style=" stroke:none;fill-rule:nonzero;fill:rgb(16.862746%,27.843139%,54.509807%);fill-opacity:1;" d="M 563.378906 302.480469 L 579.035156 416.007812 C 579.035156 416.007812 585.910156 417.664062 591.257812 416.339844 C 591.257812 416.339844 595.839844 355.960938 595.457031 341.363281 C 595.074219 326.765625 598.746094 302.304688 594.621094 299.605469 C 590.492188 296.90625 563.378906 302.480469 563.378906 302.480469 Z M 563.378906 302.480469 "/>
<path style=" stroke:none;fill-rule:nonzero;fill:rgb(13.725491%,21.960784%,38.431373%);fill-opacity:1;" d="M 564.492188 198.382812 C 564.492188 198.382812 568.410156 198.082031 573.03125 196.070312 C 576.78125 194.4375 581.511719 196.234375 583.046875 197.046875 C 583.003906 196.796875 582.90625 196.460938 582.671875 196.121094 C 582.671875 196.121094 583.359375 196.609375 583.460938 197.292969 C 583.535156 197.347656 583.566406 197.382812 583.546875 197.394531 C 583.546875 197.394531 584.328125 197.25 584.832031 197.476562 C 584.832031 197.476562 584.480469 197.425781 584.355469 197.652344 C 584.339844 197.675781 584.320312 197.699219 584.296875 197.714844 C 590.148438 200.542969 590.6875 209.792969 588.804688 211.933594 C 586.539062 214.511719 583.824219 220.308594 583.824219 220.308594 C 583.824219 220.308594 582.835938 218.941406 583.246094 216.671875 C 583.65625 214.40625 581.703125 214.40625 579.230469 213.378906 C 576.761719 212.347656 578.820312 209.464844 576.65625 207.710938 C 574.496094 205.960938 566.570312 206.992188 566.671875 205.652344 C 563.730469 204.578125 564.492188 198.683594 564.492188 198.382812 Z M 564.492188 198.382812 "/>
<path style=" stroke:none;fill-rule:nonzero;fill:rgb(91.37255%,95.294118%,99.607843%);fill-opacity:1;" d="M 585.859375 233.558594 L 582.253906 310.9375 C 582.253906 310.9375 552.171875 311.429688 553.03125 304.617188 C 553.890625 297.808594 563.875 235.925781 563.875 235.925781 Z M 585.859375 233.558594 "/>
<path style=" stroke:none;fill-rule:nonzero;fill:rgb(13.333334%,25.098041%,47.843137%);fill-opacity:1;" d="M 596.597656 277.417969 C 594.808594 282.789062 598.183594 300.816406 599.386719 306.921875 C 599.652344 308.214844 599.828125 308.976562 599.828125 308.976562 C 595.660156 315.757812 580.402344 315.671875 580.402344 315.671875 C 577.46875 302.695312 575.945312 282.027344 575.945312 282.027344 L 587.648438 230.679688 L 602.378906 244.304688 C 602.378906 244.304688 601.265625 252.609375 599.886719 261.066406 C 598.800781 267.761719 597.566406 274.570312 596.597656 277.417969 Z M 596.597656 277.417969 "/>
<path style=" stroke:none;fill-rule:nonzero;fill:rgb(100%,100%,100%);fill-opacity:1;" d="M 571.566406 218.90625 C 571.566406 218.90625 571.277344 219.789062 569.050781 219.464844 C 569.050781 219.464844 567.175781 219.195312 567.316406 218.210938 C 567.316406 218.210938 569.199219 217.65625 571.566406 218.90625 Z M 571.566406 218.90625 "/>
<path style=" stroke:none;fill-rule:nonzero;fill:rgb(13.333334%,25.098041%,47.843137%);fill-opacity:1;" d="M 554.65625 234.660156 C 554.65625 234.660156 554.65625 234.675781 554.652344 234.695312 C 553.9375 235.382812 533.859375 254.890625 529.96875 262.535156 C 526.007812 270.285156 548.070312 285.726562 548.070312 285.726562 C 548.070312 285.726562 549.492188 286.289062 550.476562 286.066406 C 549.433594 294.636719 548.269531 302.546875 548.960938 305.921875 C 550.210938 312.023438 555.847656 314.070312 555.847656 313.601562 C 555.847656 313.453125 557.910156 291.433594 559.03125 279.945312 C 561.433594 255.308594 568.46875 230.835938 568.46875 230.835938 C 561.902344 231.519531 554.65625 234.660156 554.65625 234.660156 Z M 542.703125 265.882812 C 542.671875 265.851562 542.671875 265.792969 542.671875 265.761719 C 542.671875 264.648438 546.925781 262.179688 551.53125 259.277344 C 551.589844 259.214844 551.621094 259.1875 551.621094 259.1875 C 551.625 259.183594 551.625 259.183594 551.628906 259.179688 C 551.546875 261.554688 551.558594 263.886719 551.699219 266.054688 C 551.960938 270.074219 551.667969 274.882812 551.179688 279.777344 C 548.988281 276.351562 543.128906 267.144531 542.703125 265.882812 Z M 542.703125 265.882812 "/>
<path style=" stroke:none;fill-rule:nonzero;fill:rgb(85.09804%,91.37255%,97.647059%);fill-opacity:1;" d="M 586.710938 230.589844 C 586.75 229.851562 583.253906 228.828125 583.253906 228.828125 C 583.253906 228.828125 579.25 234.378906 572.660156 234.476562 C 572.660156 234.476562 574.539062 238.132812 576.753906 239.082031 C 576.753906 239.082031 586.492188 234.972656 586.710938 230.589844 Z M 586.710938 230.589844 "/>
<path style=" stroke:none;fill-rule:nonzero;fill:rgb(85.09804%,91.37255%,97.647059%);fill-opacity:1;" d="M 572.660156 234.347656 C 572.660156 234.347656 569.167969 232.273438 569.15625 230.027344 C 569.15625 230.027344 566.902344 229.746094 565.914062 230.839844 C 565.914062 230.839844 565.085938 234.691406 566.1875 236.925781 C 566.183594 236.925781 571.214844 236.160156 572.660156 234.347656 Z M 572.660156 234.347656 "/>
<path style=" stroke:none;fill-rule:nonzero;fill:rgb(72.941178%,29.803923%,26.274511%);fill-opacity:1;" d="M 575.03125 234.011719 L 570.296875 232.878906 C 570.296875 232.878906 569.675781 232.929688 569.695312 233.703125 C 569.710938 234.472656 571.027344 236.730469 571.609375 236.910156 C 572.195312 237.089844 576.148438 235.574219 575.03125 234.011719 Z M 575.03125 234.011719 "/>
<path style=" stroke:none;fill-rule:nonzero;fill:rgb(91.37255%,95.294118%,99.607843%);fill-opacity:1;" d="M 586.160156 230.207031 C 586.195312 229.46875 583.832031 227.945312 583.832031 227.945312 C 583.832031 227.945312 579.25 233.300781 572.660156 233.398438 C 572.660156 233.398438 574.539062 237.058594 576.753906 238.003906 C 576.753906 238.003906 585.941406 234.59375 586.160156 230.207031 Z M 586.160156 230.207031 "/>
<path style=" stroke:none;fill-rule:nonzero;fill:rgb(91.37255%,95.294118%,99.607843%);fill-opacity:1;" d="M 572.660156 233.398438 C 572.660156 233.398438 569.128906 231.523438 569.117188 229.277344 C 569.117188 229.277344 566.984375 230.21875 566 231.3125 C 566 231.3125 565.085938 233.742188 566.1875 235.976562 C 566.183594 235.976562 571.214844 235.210938 572.660156 233.398438 Z M 572.660156 233.398438 "/>
<path style=" stroke:none;fill-rule:nonzero;fill:rgb(77.64706%,32.941177%,27.843139%);fill-opacity:1;" d="M 563.402344 286.773438 C 563.5625 288.582031 564.390625 290.265625 565.726562 291.496094 L 567.824219 293.429688 C 568.351562 293.914062 569.179688 293.847656 569.621094 293.285156 L 572.21875 289.984375 C 572.917969 289.097656 573.246094 287.976562 573.136719 286.855469 C 572.894531 284.355469 572.441406 279.542969 572.078125 274.898438 C 571.785156 271.132812 571.546875 267.476562 571.53125 265.25 C 571.472656 258.148438 572.882812 235.496094 572.882812 235.496094 L 571.179688 235.585938 C 571.179688 235.585938 566.953125 244.378906 564.738281 256.339844 C 564.191406 259.285156 563.773438 262.421875 563.5625 265.667969 C 563.5625 265.667969 562.675781 278.605469 563.402344 286.773438 Z M 563.402344 286.773438 "/>
<path style=" stroke:none;fill-rule:nonzero;fill:rgb(72.941178%,29.803923%,26.274511%);fill-opacity:1;" d="M 563.402344 286.773438 C 563.5625 288.582031 564.390625 290.265625 565.726562 291.496094 L 567.824219 293.429688 C 568.351562 293.914062 569.179688 293.847656 569.621094 293.285156 L 572.21875 289.984375 C 572.917969 289.097656 573.246094 287.976562 573.136719 286.855469 C 572.894531 284.355469 572.441406 279.542969 572.078125 274.898438 C 567.375 269.609375 565.46875 262.304688 564.738281 256.339844 C 564.195312 259.285156 563.773438 262.421875 563.5625 265.667969 C 563.5625 265.667969 562.675781 278.605469 563.402344 286.773438 Z M 563.402344 286.773438 "/>
<path style=" stroke:none;fill-rule:nonzero;fill:rgb(100%,69.803923%,49.019608%);fill-opacity:1;" d="M 546.664062 286.984375 C 546.664062 285.011719 548.398438 283.429688 550.347656 283.722656 C 550.886719 283.804688 551.375 284.027344 551.714844 284.480469 C 553.054688 286.265625 554.332031 291.464844 551.953125 291.707031 C 550.988281 291.804688 549.746094 291.125 548.789062 290.398438 C 547.816406 289.660156 546.664062 288.5 546.664062 287.28125 Z M 546.664062 286.984375 "/>
<path style=" stroke:none;fill-rule:nonzero;fill:rgb(13.725491%,21.960784%,38.431373%);fill-opacity:1;" d="M 599.386719 306.921875 C 595.074219 302.429688 587.621094 293.59375 587.886719 286.34375 C 588.238281 276.183594 599.886719 261.066406 599.886719 261.066406 C 598.800781 267.761719 597.566406 274.570312 596.597656 277.417969 C 594.808594 282.789062 598.183594 300.816406 599.386719 306.921875 Z M 599.386719 306.921875 "/>
<path style=" stroke:none;fill-rule:nonzero;fill:rgb(100%,69.803923%,49.019608%);fill-opacity:1;" d="M 599.25 289.253906 C 599.25 289.253906 596.148438 290.804688 594.269531 290.03125 C 592.386719 289.253906 590.171875 288.671875 588.066406 291.070312 C 585.964844 293.464844 585.519531 295.128906 585.964844 296.011719 C 586.40625 296.898438 591.3125 296.566406 592.125 296.011719 C 592.941406 295.460938 594.226562 294.09375 595.042969 294.332031 C 597.296875 294.988281 599.195312 293.269531 600.253906 291.898438 C 600.898438 291.074219 599.167969 290.671875 599.25 289.253906 Z M 599.25 289.253906 "/>
<path style=" stroke:none;fill-rule:nonzero;fill:rgb(13.333334%,25.098041%,47.843137%);fill-opacity:1;" d="M 587.648438 230.679688 C 587.648438 230.679688 600 232.046875 602.910156 237.429688 C 605.824219 242.8125 620.96875 264.617188 620.472656 273.683594 C 619.976562 282.746094 599.8125 292.90625 599.8125 292.90625 C 599.8125 292.90625 595.347656 291.019531 595.28125 288.988281 C 595.214844 286.957031 609.222656 274.816406 608.371094 272.550781 C 607.523438 270.28125 592.101562 252.363281 590.613281 246.453125 C 589.125 240.542969 587.648438 230.679688 587.648438 230.679688 Z M 587.648438 230.679688 "/>
<path style=" stroke:none;fill-rule:nonzero;fill:rgb(13.725491%,21.960784%,38.431373%);fill-opacity:1;" d="M 551.621094 259.1875 C 551.621094 259.1875 551.589844 259.214844 551.53125 259.277344 C 546.925781 262.179688 542.671875 264.648438 542.671875 265.761719 C 542.054688 263.796875 548.042969 255.574219 549.976562 253.902344 C 551.945312 252.199219 551.621094 259.1875 551.621094 259.1875 Z M 551.621094 259.1875 "/>
<path style=" stroke:none;fill-rule:nonzero;fill:rgb(13.725491%,21.960784%,38.431373%);fill-opacity:1;" d="M 583.832031 227.945312 C 583.832031 227.945312 574.457031 267.238281 575.949219 282.039062 C 575.949219 282.039062 579.394531 266.222656 587.691406 253.265625 C 587.691406 253.265625 584.664062 250.601562 584.828125 249.621094 C 584.828125 249.621094 587.074219 248.953125 589.253906 249.402344 C 589.253906 249.402344 589.011719 232.464844 587.652344 230.675781 C 586.292969 228.886719 583.832031 227.945312 583.832031 227.945312 Z M 583.832031 227.945312 "/>
<path style=" stroke:none;fill-rule:nonzero;fill:rgb(13.725491%,21.960784%,38.431373%);fill-opacity:1;" d="M 569.117188 229.277344 C 569.304688 229.167969 559.824219 267.671875 559.03125 279.945312 C 559.03125 279.945312 559.972656 258.046875 559.878906 251.738281 C 559.878906 251.738281 563.773438 249.675781 563.773438 248.949219 C 563.773438 248.226562 559.621094 246.269531 559.621094 246.269531 C 559.621094 246.269531 562.25 232.785156 563.683594 231.300781 C 565.121094 229.8125 569.117188 229.277344 569.117188 229.277344 Z M 569.117188 229.277344 "/>
<path style=" stroke:none;fill-rule:nonzero;fill:rgb(13.333334%,25.098041%,47.843137%);fill-opacity:1;" d="M 651.113281 230.128906 C 651.113281 230.128906 636.835938 230.007812 633.398438 234.828125 C 629.960938 239.652344 622.425781 265.59375 626.359375 274.226562 C 630.292969 282.859375 637.648438 270.65625 641.730469 265.367188 C 645.816406 260.082031 651.113281 230.128906 651.113281 230.128906 Z M 651.113281 230.128906 "/>
<path style=" stroke:none;fill-rule:nonzero;fill:rgb(100%,69.803923%,49.019608%);fill-opacity:1;" d="M 650.96875 227.945312 L 650.976562 229.425781 C 650.976562 229.425781 650.574219 234.042969 656.257812 234.71875 C 661.945312 235.394531 666.25 232.917969 666.097656 229.351562 C 665.582031 226.59375 665.023438 224.695312 664.984375 222.414062 C 664.96875 221.5625 665.027344 220.664062 665.1875 219.648438 L 654.171875 219.425781 L 650.925781 219.957031 Z M 650.96875 227.945312 "/>
<path style=" stroke:none;fill-rule:nonzero;fill:rgb(88.627452%,56.862748%,35.294119%);fill-opacity:1;" d="M 650.925781 219.957031 L 650.96875 227.945312 C 652.136719 228.492188 653.457031 228.824219 654.9375 228.824219 C 660 228.824219 663.273438 225.109375 664.984375 222.414062 C 664.96875 221.566406 665.027344 220.664062 665.183594 219.648438 L 654.171875 219.425781 Z M 650.925781 219.957031 "/>
<path style=" stroke:none;fill-rule:nonzero;fill:rgb(100%,69.803923%,49.019608%);fill-opacity:1;" d="M 666.03125 217.875 C 664.75 224.757812 655.875 224.53125 652.042969 224.097656 C 650.960938 223.976562 650.28125 223.839844 650.28125 223.839844 C 649.066406 223.515625 648.386719 221.597656 648.070312 219.082031 C 647.445312 214.113281 648.238281 206.8125 649.074219 204.945312 C 650.339844 202.136719 652.71875 199.097656 661.65625 201.289062 C 670.59375 203.484375 667.667969 209.054688 666.03125 217.875 Z M 666.03125 217.875 "/>
<path style=" stroke:none;fill-rule:nonzero;fill:rgb(13.725491%,21.960784%,38.431373%);fill-opacity:1;" d="M 660.683594 420.726562 C 660.683594 420.726562 661.210938 416.617188 662.433594 414.175781 C 663.652344 411.730469 671.421875 413.285156 671.421875 413.285156 C 671.421875 413.285156 672.976562 414.617188 673.308594 420.839844 Z M 660.683594 420.726562 "/>
<path style=" stroke:none;fill-rule:nonzero;fill:rgb(13.725491%,21.960784%,38.431373%);fill-opacity:1;" d="M 634.214844 420.671875 C 636.039062 419.554688 635 411.238281 635 411.238281 C 635 411.238281 626.496094 404.429688 625.324219 409.644531 C 624.15625 414.855469 617.242188 417.195312 613.308594 417.835938 C 610.59375 418.277344 609.753906 419.78125 609.492188 420.671875 Z M 634.214844 420.671875 "/>
<path style=" stroke:none;fill-rule:nonzero;fill:rgb(13.725491%,21.960784%,38.431373%);fill-opacity:1;" d="M 636.511719 249.460938 C 636.511719 249.460938 629.3125 264.453125 629.472656 268.109375 C 629.472656 268.109375 632.019531 265.695312 636.511719 266.011719 C 641.007812 266.332031 636.511719 249.460938 636.511719 249.460938 Z M 636.511719 249.460938 "/>
<path style=" stroke:none;fill-rule:nonzero;fill:rgb(88.627452%,56.862748%,35.294119%);fill-opacity:1;" d="M 652.042969 224.097656 C 650.960938 223.976562 650.285156 223.839844 650.285156 223.839844 C 649.066406 223.515625 648.386719 221.597656 648.070312 219.082031 C 650.355469 219.644531 651.398438 221.410156 651.835938 222.160156 C 652.03125 222.5 652.070312 223.257812 652.042969 224.097656 Z M 652.042969 224.097656 "/>
<path style=" stroke:none;fill-rule:nonzero;fill:rgb(100%,69.803923%,49.019608%);fill-opacity:1;" d="M 646.242188 227.988281 C 646.242188 227.988281 641.273438 219.785156 645.140625 219.425781 C 649.003906 219.070312 650.554688 221.6875 651.113281 222.648438 C 651.671875 223.609375 650.96875 227.945312 650.96875 227.945312 Z M 646.242188 227.988281 "/>
<path style=" stroke:none;fill-rule:nonzero;fill:rgb(16.862746%,27.843139%,54.509807%);fill-opacity:1;" d="M 651.832031 360.175781 C 651.488281 362.082031 651.269531 363.648438 651.210938 364.773438 C 650.417969 380.207031 638.226562 415.496094 636.042969 416.320312 C 632.671875 417.59375 627.355469 414.886719 624.574219 414 C 623.421875 413.628906 622.644531 412.46875 622.902344 411.289062 C 628.941406 383.511719 631.160156 343.515625 631.96875 319.835938 C 632.375 307.90625 634.421875 299.667969 634.421875 299.667969 C 634.421875 299.667969 664.160156 291.726562 664.335938 301.773438 C 664.492188 310.660156 654.484375 345.515625 651.832031 360.175781 Z M 651.832031 360.175781 "/>
<path style=" stroke:none;fill-rule:nonzero;fill:rgb(13.725491%,21.960784%,38.431373%);fill-opacity:1;" d="M 651.832031 360.175781 L 631.96875 319.835938 C 632.375 307.90625 634.421875 299.667969 634.421875 299.667969 C 634.421875 299.667969 664.160156 291.726562 664.335938 301.773438 C 664.492188 310.660156 654.484375 345.515625 651.832031 360.175781 Z M 651.832031 360.175781 "/>
<path style=" stroke:none;fill-rule:nonzero;fill:rgb(16.862746%,27.843139%,54.509807%);fill-opacity:1;" d="M 645.21875 301.808594 L 660.9375 415.820312 C 660.9375 415.820312 667.84375 417.484375 673.210938 416.152344 C 673.210938 416.152344 677.816406 355.515625 677.429688 340.855469 C 677.046875 326.195312 680.734375 301.628906 676.589844 298.921875 C 672.445312 296.210938 645.21875 301.808594 645.21875 301.808594 Z M 645.21875 301.808594 "/>
<path style=" stroke:none;fill-rule:nonzero;fill:rgb(13.333334%,25.098041%,47.843137%);fill-opacity:1;" d="M 678.871094 295.683594 C 678.828125 295.191406 678.785156 294.703125 678.746094 294.214844 C 678.738281 294.085938 678.726562 293.960938 678.71875 293.832031 C 678.6875 293.449219 678.660156 293.070312 678.628906 292.691406 C 678.621094 292.578125 678.613281 292.46875 678.605469 292.359375 C 678.535156 291.390625 678.472656 290.4375 678.410156 289.496094 C 678.40625 289.390625 678.398438 289.285156 678.394531 289.179688 C 678.367188 288.789062 678.347656 288.402344 678.324219 288.011719 C 678.320312 287.929688 678.316406 287.84375 678.308594 287.757812 C 678.285156 287.285156 678.257812 286.816406 678.234375 286.351562 C 678.234375 286.339844 678.234375 286.332031 678.234375 286.324219 C 678.207031 285.878906 678.1875 285.4375 678.167969 285 C 678.164062 284.894531 678.15625 284.792969 678.152344 284.691406 C 678.136719 284.316406 678.117188 283.941406 678.101562 283.570312 C 678.097656 283.492188 678.09375 283.417969 678.089844 283.339844 C 678.070312 282.894531 678.054688 282.453125 678.035156 282.015625 C 678.03125 281.953125 678.03125 281.898438 678.027344 281.835938 C 678.011719 281.464844 678 281.097656 677.984375 280.730469 C 677.980469 280.605469 677.976562 280.480469 677.96875 280.351562 C 677.960938 280.039062 677.949219 279.730469 677.933594 279.417969 C 677.929688 279.300781 677.925781 279.183594 677.921875 279.066406 C 677.910156 278.6875 677.894531 278.3125 677.882812 277.941406 C 677.871094 277.65625 677.863281 277.375 677.851562 277.089844 C 677.851562 277.03125 677.851562 276.972656 677.847656 276.910156 C 677.796875 275.433594 677.75 273.996094 677.699219 272.597656 C 677.695312 272.574219 677.695312 272.554688 677.695312 272.535156 C 677.664062 271.714844 677.632812 270.90625 677.601562 270.109375 C 677.597656 270.0625 677.59375 270.015625 677.59375 269.964844 C 677.582031 269.640625 677.566406 269.316406 677.550781 268.992188 C 677.546875 268.910156 677.542969 268.824219 677.539062 268.738281 C 677.523438 268.398438 677.507812 268.054688 677.488281 267.71875 C 677.488281 267.6875 677.488281 267.660156 677.484375 267.632812 C 677.46875 267.28125 677.449219 266.929688 677.429688 266.585938 C 677.421875 266.476562 677.414062 266.371094 677.410156 266.265625 C 677.394531 266.023438 677.382812 265.785156 677.367188 265.546875 C 677.359375 265.421875 677.351562 265.296875 677.34375 265.171875 C 677.324219 264.917969 677.308594 264.671875 677.292969 264.421875 C 677.28125 264.273438 677.269531 264.121094 677.257812 263.972656 C 677.242188 263.761719 677.226562 263.546875 677.210938 263.339844 C 677.207031 263.3125 677.203125 263.289062 677.203125 263.261719 C 677.179688 262.976562 677.15625 262.699219 677.132812 262.417969 C 677.121094 262.332031 677.117188 262.242188 677.109375 262.15625 C 677.082031 261.859375 677.054688 261.566406 677.023438 261.277344 C 677.121094 261.164062 677.21875 261.046875 677.316406 260.929688 C 684.121094 252.71875 687.621094 242.117188 684.875 238.191406 C 680.390625 231.78125 666.097656 229.351562 666.097656 229.351562 C 666.097656 231.722656 660.953125 234.695312 656.835938 234.425781 C 656.152344 234.382812 655.515625 234.242188 654.9375 234.039062 C 653.597656 230.738281 652.675781 228.550781 652.675781 228.550781 C 652.675781 228.550781 651.039062 225.199219 645.214844 227.128906 C 645.214844 227.128906 645.039062 230.09375 645.214844 234.511719 C 645.21875 234.59375 645.222656 234.675781 645.226562 234.757812 C 640.789062 238.789062 635.46875 244.890625 635.460938 250.734375 C 635.453125 258.984375 635.351562 265.941406 635.199219 271.796875 C 635.03125 278.304688 634.796875 283.453125 634.554688 287.515625 C 633.839844 299.503906 633.046875 302.027344 633.566406 302.019531 C 633.566406 302.019531 638.125 306.171875 650.167969 306.09375 C 657.738281 306.046875 663.902344 305.207031 668.480469 304.253906 C 674.640625 302.976562 677.933594 301.5 677.933594 301.5 C 679.253906 301.480469 678.980469 296.933594 678.871094 295.683594 Z M 678.871094 295.683594 "/>
<path style=" stroke:none;fill-rule:nonzero;fill:rgb(10.980392%,27.450982%,54.11765%);fill-opacity:1;" d="M 646.332031 198.394531 C 646.332031 198.394531 650.265625 198.09375 654.90625 196.074219 C 658.671875 194.433594 663.425781 196.238281 664.96875 197.050781 C 664.925781 196.804688 664.828125 196.464844 664.589844 196.125 C 664.589844 196.125 665.285156 196.617188 665.386719 197.300781 C 665.457031 197.355469 665.488281 197.390625 665.46875 197.402344 C 665.46875 197.402344 666.253906 197.257812 666.757812 197.488281 C 666.757812 197.488281 666.40625 197.4375 666.28125 197.664062 C 666.265625 197.6875 666.246094 197.707031 666.222656 197.726562 C 672.097656 200.566406 672.640625 209.855469 670.75 212.003906 C 668.476562 214.59375 665.75 220.417969 665.75 220.417969 C 665.75 220.417969 664.753906 219.039062 665.167969 216.765625 C 665.582031 214.488281 663.617188 214.488281 661.136719 213.453125 C 658.65625 212.417969 660.722656 209.523438 658.550781 207.765625 C 656.378906 206.007812 648.417969 207.039062 648.523438 205.695312 C 645.566406 204.617188 646.332031 198.699219 646.332031 198.394531 Z M 646.332031 198.394531 "/>
<path style=" stroke:none;fill-rule:nonzero;fill:rgb(13.725491%,21.960784%,38.431373%);fill-opacity:1;" d="M 667.828125 272.324219 C 665.5 281.691406 640.285156 286.53125 634.554688 287.515625 C 634.796875 283.453125 635.03125 278.304688 635.199219 271.796875 Z M 667.828125 272.324219 "/>
<path style=" stroke:none;fill-rule:nonzero;fill:rgb(100%,69.803923%,49.019608%);fill-opacity:1;" d="M 662.296875 275.367188 C 662.535156 275.367188 667.898438 274.566406 668.859375 274.085938 C 669.820312 273.605469 674.21875 267.355469 671.339844 265.753906 C 668.460938 264.148438 660.734375 270.558594 660.734375 270.558594 Z M 662.296875 275.367188 "/>
<path style=" stroke:none;fill-rule:nonzero;fill:rgb(13.333334%,25.098041%,47.843137%);fill-opacity:1;" d="M 629.664062 277.222656 C 629.664062 277.222656 650.414062 278.351562 664.339844 275.367188 C 664.339844 275.367188 664.691406 271.34375 660.3125 269.554688 C 660.3125 269.554688 638.613281 264.953125 633.398438 266.234375 C 628.1875 267.515625 629.664062 277.222656 629.664062 277.222656 Z M 629.664062 277.222656 "/>
<path style=" stroke:none;fill-rule:nonzero;fill:rgb(13.725491%,21.960784%,38.431373%);fill-opacity:1;" d="M 677.316406 260.929688 C 673.007812 266.125 667.378906 270.367188 661.175781 271.359375 L 661.171875 271.359375 C 648.265625 265.53125 645.652344 245.511719 645.214844 234.511719 C 645.214844 234.511719 651.324219 256.679688 659.636719 264.425781 C 661.140625 265.828125 662.714844 266.757812 664.339844 267 C 664.339844 267 674.820312 264.035156 677.019531 261.242188 C 677.175781 261.042969 677.273438 260.945312 677.316406 260.929688 Z M 677.316406 260.929688 "/>
<path style=" stroke:none;fill-rule:nonzero;fill:rgb(13.725491%,21.960784%,38.431373%);fill-opacity:1;" d="M 673.035156 248.347656 C 673.035156 248.347656 666.558594 256.476562 662.691406 249.238281 C 662.691406 249.238281 666.738281 253.171875 673.035156 248.347656 Z M 673.035156 248.347656 "/>
<path style=" stroke:none;fill-rule:nonzero;fill:rgb(50.980395%,70.19608%,47.058824%);fill-opacity:1;" d="M 141.976562 380.617188 C 141.976562 380.617188 148.441406 373.070312 142.375 368.277344 C 142.375 368.277344 137.945312 365.59375 134.332031 365.8125 C 134.332031 365.8125 139.449219 374.402344 137.792969 375.253906 C 136.136719 376.109375 132.78125 365.273438 132.78125 365.273438 C 132.78125 365.273438 122.695312 364.292969 119.453125 365.855469 C 119.453125 365.855469 128.074219 372.914062 126.257812 373.332031 C 124.441406 373.753906 115.132812 366.824219 115.132812 366.824219 C 115.132812 366.824219 105.746094 368.421875 106.246094 374.152344 C 106.75 379.878906 109.980469 381.648438 111.402344 381.496094 C 112.824219 381.34375 121.136719 378.167969 121.320312 379.332031 C 121.5 380.5 116.496094 384.308594 112.992188 384.484375 C 112.992188 384.484375 119.609375 391.785156 124.003906 389.679688 C 128.402344 387.570312 128.777344 384.230469 131.519531 382.980469 C 134.257812 381.726562 136.597656 381.730469 135.46875 383.007812 C 134.335938 384.285156 129.375 385.527344 127.808594 388.300781 C 126.242188 391.074219 124.835938 392.945312 129.382812 392.261719 C 133.933594 391.578125 141.328125 388.246094 141.652344 384.429688 C 141.976562 380.617188 141.976562 380.617188 141.976562 380.617188 Z M 141.976562 380.617188 "/>
<path style=" stroke:none;fill-rule:nonzero;fill:rgb(50.980395%,70.19608%,47.058824%);fill-opacity:1;" d="M 110.859375 374.304688 C 110.859375 374.304688 136.347656 373.324219 141.976562 380.617188 C 141.976562 380.617188 143.222656 384.347656 147.050781 387.746094 L 147.648438 389.375 C 147.648438 389.375 143.234375 384.714844 141.652344 384.433594 C 141.652344 384.433594 144.125 375.394531 110.859375 374.304688 Z M 110.859375 374.304688 "/>
<path style=" stroke:none;fill-rule:nonzero;fill:rgb(50.980395%,70.19608%,47.058824%);fill-opacity:1;" d="M 147.050781 387.746094 C 147.050781 387.746094 152.523438 391.792969 152.902344 399.027344 L 151.910156 399.117188 C 151.910156 399.117188 150.164062 391.636719 147.003906 388.710938 C 143.847656 385.785156 147.050781 387.746094 147.050781 387.746094 Z M 147.050781 387.746094 "/>
<path style=" stroke:none;fill-rule:nonzero;fill:rgb(65.882355%,82.352942%,62.352943%);fill-opacity:1;" d="M 164.578125 371.125 C 164.578125 371.125 154.296875 365.363281 159.09375 357.542969 C 159.09375 357.542969 162.933594 352.742188 167.046875 351.507812 C 167.046875 351.507812 164.851562 363.167969 167.046875 363.445312 C 169.242188 363.71875 168.554688 350.273438 168.554688 350.273438 C 168.554688 350.273438 179.386719 345.058594 183.636719 345.472656 C 183.636719 345.472656 176.917969 356.859375 179.113281 356.585938 C 181.308594 356.308594 188.847656 344.785156 188.847656 344.785156 C 188.847656 344.785156 199.953125 342.726562 201.738281 349.3125 C 203.519531 355.898438 200.640625 359.191406 198.996094 359.601562 C 197.347656 360.015625 186.792969 359.878906 187.066406 361.25 C 187.339844 362.621094 194.46875 364.816406 198.445312 363.582031 C 198.445312 363.582031 194.058594 374.421875 188.300781 373.871094 C 182.542969 373.324219 180.757812 369.753906 177.195312 369.480469 C 173.628906 369.207031 171.023438 370.167969 172.804688 371.128906 C 174.589844 372.085938 180.621094 371.441406 183.5 373.890625 C 186.378906 376.339844 188.710938 377.851562 183.363281 378.949219 C 178.015625 380.046875 168.417969 379.359375 166.5 375.242188 C 164.578125 371.125 164.578125 371.125 164.578125 371.125 Z M 164.578125 371.125 "/>
<path style=" stroke:none;fill-rule:nonzero;fill:rgb(50.980395%,70.19608%,47.058824%);fill-opacity:1;" d="M 196.664062 351.371094 C 196.664062 351.371094 167.871094 360.699219 164.578125 371.125 C 164.578125 371.125 164.714844 375.792969 161.835938 381.140625 L 161.835938 383.199219 C 161.835938 383.199219 164.855469 376.203125 166.5 375.242188 C 166.5 375.242188 160.054688 366.1875 196.664062 351.371094 Z M 196.664062 351.371094 "/>
<path style=" stroke:none;fill-rule:nonzero;fill:rgb(50.980395%,70.19608%,47.058824%);fill-opacity:1;" d="M 161.835938 381.140625 C 161.835938 381.140625 157.398438 387.890625 159.929688 396.101562 L 161.070312 395.796875 C 161.070312 395.796875 159.960938 386.75 162.285156 382.199219 C 164.609375 377.648438 161.835938 381.140625 161.835938 381.140625 Z M 161.835938 381.140625 "/>
<path style=" stroke:none;fill-rule:nonzero;fill:rgb(65.882355%,82.352942%,62.352943%);fill-opacity:1;" d="M 148.21875 363.179688 C 148.21875 363.179688 161.773438 355.585938 155.449219 345.277344 C 155.449219 345.277344 150.386719 338.945312 144.964844 337.316406 C 144.964844 337.316406 147.859375 352.691406 144.964844 353.050781 C 142.074219 353.414062 142.976562 335.691406 142.976562 335.691406 C 142.976562 335.691406 128.699219 328.816406 123.097656 329.359375 C 123.097656 329.359375 131.953125 344.371094 129.0625 344.007812 C 126.167969 343.648438 116.226562 328.457031 116.226562 328.457031 C 116.226562 328.457031 101.585938 325.742188 99.238281 334.425781 C 96.890625 343.105469 100.683594 347.445312 102.851562 347.988281 C 105.023438 348.53125 118.9375 348.351562 118.578125 350.160156 C 118.214844 351.96875 108.816406 354.859375 103.574219 353.234375 C 103.574219 353.234375 109.359375 367.519531 116.949219 366.796875 C 124.542969 366.074219 126.890625 361.371094 131.589844 361.011719 C 136.289062 360.648438 139.722656 361.914062 137.375 363.179688 C 135.023438 364.445312 127.074219 363.59375 123.277344 366.824219 C 119.480469 370.050781 116.410156 372.042969 123.457031 373.488281 C 130.507812 374.933594 143.160156 374.03125 145.6875 368.605469 C 148.21875 363.179688 148.21875 363.179688 148.21875 363.179688 Z M 148.21875 363.179688 "/>
<path style=" stroke:none;fill-rule:nonzero;fill:rgb(50.980395%,70.19608%,47.058824%);fill-opacity:1;" d="M 105.925781 337.136719 C 105.925781 337.136719 143.882812 349.433594 148.21875 363.179688 C 148.21875 363.179688 148.039062 369.328125 151.832031 376.382812 L 151.832031 379.09375 C 151.832031 379.09375 147.859375 369.871094 145.6875 368.605469 C 145.6875 368.605469 154.183594 356.667969 105.925781 337.136719 Z M 105.925781 337.136719 "/>
<path style=" stroke:none;fill-rule:nonzero;fill:rgb(50.980395%,70.19608%,47.058824%);fill-opacity:1;" d="M 151.832031 376.382812 C 151.832031 376.382812 157.6875 385.277344 154.351562 396.101562 L 152.84375 395.699219 C 152.84375 395.699219 154.304688 383.773438 151.242188 377.777344 C 148.179688 371.777344 151.832031 376.382812 151.832031 376.382812 Z M 151.832031 376.382812 "/>
<path style=" stroke:none;fill-rule:nonzero;fill:rgb(94.509804%,63.921571%,30.980393%);fill-opacity:1;" d="M 148.675781 419.582031 C 134.011719 419.582031 122.121094 407.683594 122.121094 393.011719 L 175.230469 393.011719 C 175.230469 407.683594 163.339844 419.582031 148.675781 419.582031 Z M 148.675781 419.582031 "/>
<path style=" stroke:none;fill-rule:nonzero;fill:rgb(100%,72.549021%,45.09804%);fill-opacity:1;" d="M 155.59375 419.378906 C 154.511719 419.511719 153.410156 419.582031 152.292969 419.582031 C 137.628906 419.582031 125.742188 407.683594 125.742188 393.011719 L 132.339844 393.011719 C 132.339844 406.566406 142.484375 417.753906 155.59375 419.378906 Z M 155.59375 419.378906 "/>
<path style=" stroke:none;fill-rule:nonzero;fill:rgb(94.509804%,63.921571%,30.980393%);fill-opacity:1;" d="M 121.753906 420.933594 L 175.59375 420.933594 C 175.59375 419.121094 174.128906 417.65625 172.320312 417.65625 L 125.03125 417.65625 C 123.222656 417.65625 121.753906 419.121094 121.753906 420.933594 Z M 121.753906 420.933594 "/>
<path style=" stroke:none;fill-rule:nonzero;fill:rgb(84.705883%,40.392157%,7.450981%);fill-opacity:1;" d="M 176.101562 393.824219 L 121.519531 393.824219 L 121.519531 393.011719 L 176.101562 393.011719 Z M 176.101562 393.824219 "/>
<path style=" stroke:none;fill-rule:nonzero;fill:rgb(82.352942%,89.411765%,100%);fill-opacity:1;" d="M 195.214844 168.476562 L 487.195312 168.476562 C 491.457031 168.476562 494.90625 171.929688 494.90625 176.191406 L 494.90625 343.832031 C 494.90625 348.09375 491.457031 351.550781 487.195312 351.550781 L 195.214844 351.550781 C 190.957031 351.550781 187.503906 348.09375 187.503906 343.832031 L 187.503906 176.191406 C 187.503906 171.929688 190.957031 168.476562 195.214844 168.476562 Z M 195.214844 168.476562 "/>
<path style=" stroke:none;fill-rule:nonzero;fill:rgb(95.294118%,97.647059%,100%);fill-opacity:1;" d="M 368.203125 343.785156 L 209.726562 343.785156 L 209.726562 236.644531 L 368.203125 236.644531 Z M 368.203125 343.785156 "/>
<path style=" stroke:none;fill-rule:nonzero;fill:rgb(65.098041%,78.039217%,97.647059%);fill-opacity:1;" d="M 361.667969 291.328125 C 361.667969 291.328125 334.609375 287.953125 318.074219 303.195312 C 301.539062 318.4375 270.738281 304.546875 258.335938 303.195312 C 236.773438 300.847656 219.871094 307.90625 214.855469 315.667969 L 214.855469 338.945312 L 361.667969 338.945312 Z M 361.667969 291.328125 "/>
<path style=" stroke:none;fill-rule:nonzero;fill:rgb(65.098041%,78.039217%,97.647059%);fill-opacity:1;" d="M 340.695312 290.214844 L 339.5625 290.214844 L 339.5625 253.867188 L 340.695312 253.867188 Z M 340.695312 290.214844 "/>
<path style=" stroke:none;fill-rule:nonzero;fill:rgb(65.098041%,78.039217%,97.647059%);fill-opacity:1;" d="M 296.199219 305.8125 L 295.0625 305.8125 L 295.0625 269.464844 L 296.199219 269.464844 Z M 296.199219 305.8125 "/>
<path style=" stroke:none;fill-rule:nonzero;fill:rgb(65.098041%,78.039217%,97.647059%);fill-opacity:1;" d="M 250.285156 297.589844 L 249.148438 297.589844 L 249.148438 261.238281 L 250.285156 261.238281 Z M 250.285156 297.589844 "/>
<path style=" stroke:none;fill-rule:nonzero;fill:rgb(65.098041%,78.039217%,97.647059%);fill-opacity:1;" d="M 326.902344 259.441406 L 335.59375 259.441406 C 336.113281 259.441406 336.539062 259.019531 336.539062 258.496094 C 336.539062 257.976562 336.113281 257.554688 335.59375 257.554688 L 326.902344 257.554688 C 326.382812 257.554688 325.957031 257.976562 325.957031 258.496094 C 325.957031 259.019531 326.382812 259.441406 326.902344 259.441406 Z M 326.902344 259.441406 "/>
<path style=" stroke:none;fill-rule:nonzero;fill:rgb(65.098041%,78.039217%,97.647059%);fill-opacity:1;" d="M 326.902344 262.847656 L 335.59375 262.847656 C 336.113281 262.847656 336.539062 262.421875 336.539062 261.902344 C 336.539062 261.382812 336.113281 260.957031 335.59375 260.957031 L 326.902344 260.957031 C 326.382812 260.957031 325.957031 261.382812 325.957031 261.902344 C 325.957031 262.421875 326.382812 262.847656 326.902344 262.847656 Z M 326.902344 262.847656 "/>
<path style=" stroke:none;fill-rule:nonzero;fill:rgb(65.098041%,78.039217%,97.647059%);fill-opacity:1;" d="M 283.066406 277.972656 L 291.757812 277.972656 C 292.277344 277.972656 292.703125 277.546875 292.703125 277.027344 C 292.703125 276.507812 292.277344 276.082031 291.757812 276.082031 L 283.066406 276.082031 C 282.546875 276.082031 282.121094 276.507812 282.121094 277.027344 C 282.121094 277.546875 282.546875 277.972656 283.066406 277.972656 Z M 283.066406 277.972656 "/>
<path style=" stroke:none;fill-rule:nonzero;fill:rgb(65.098041%,78.039217%,97.647059%);fill-opacity:1;" d="M 283.066406 281.304688 L 291.757812 281.304688 C 292.277344 281.304688 292.703125 280.878906 292.703125 280.359375 C 292.703125 279.839844 292.277344 279.414062 291.757812 279.414062 L 283.066406 279.414062 C 282.546875 279.414062 282.121094 279.839844 282.121094 280.359375 C 282.121094 280.878906 282.546875 281.304688 283.066406 281.304688 Z M 283.066406 281.304688 "/>
<path style=" stroke:none;fill-rule:nonzero;fill:rgb(65.098041%,78.039217%,97.647059%);fill-opacity:1;" d="M 236.394531 264.265625 L 245.085938 264.265625 C 245.605469 264.265625 246.03125 263.839844 246.03125 263.320312 C 246.03125 262.800781 245.605469 262.375 245.085938 262.375 L 236.394531 262.375 C 235.875 262.375 235.453125 262.800781 235.453125 263.320312 C 235.453125 263.839844 235.875 264.265625 236.394531 264.265625 Z M 236.394531 264.265625 "/>
<path style=" stroke:none;fill-rule:nonzero;fill:rgb(65.098041%,78.039217%,97.647059%);fill-opacity:1;" d="M 236.394531 267.597656 L 245.085938 267.597656 C 245.605469 267.597656 246.03125 267.171875 246.03125 266.652344 C 246.03125 266.132812 245.605469 265.707031 245.085938 265.707031 L 236.394531 265.707031 C 235.875 265.707031 235.453125 266.132812 235.453125 266.652344 C 235.453125 267.171875 235.875 267.597656 236.394531 267.597656 Z M 236.394531 267.597656 "/>
<path style=" stroke:none;fill-rule:nonzero;fill:rgb(95.294118%,97.647059%,100%);fill-opacity:1;" d="M 421.222656 215.371094 C 421.222656 206.722656 414.21875 199.714844 405.578125 199.714844 C 396.933594 199.714844 389.929688 206.726562 389.929688 215.371094 C 389.929688 224.019531 396.933594 231.027344 405.578125 231.027344 C 414.21875 231.027344 421.222656 224.019531 421.222656 215.371094 Z M 421.222656 215.371094 "/>
<path style=" stroke:none;fill-rule:nonzero;fill:rgb(65.098041%,78.039217%,97.647059%);fill-opacity:1;" d="M 391.253906 215.371094 C 391.253906 223.285156 397.667969 229.699219 405.578125 229.699219 C 409.308594 229.699219 412.710938 228.273438 415.257812 225.929688 L 405.578125 215.371094 L 405.578125 201.042969 C 397.667969 201.042969 391.253906 207.457031 391.253906 215.371094 Z M 391.253906 215.371094 "/>
<path style=" stroke:none;fill-rule:nonzero;fill:rgb(65.098041%,78.039217%,97.647059%);fill-opacity:1;" d="M 411.03125 212.847656 L 416.171875 212.847656 C 416.410156 212.847656 416.605469 212.652344 416.605469 212.414062 C 416.605469 212.179688 416.410156 211.984375 416.171875 211.984375 L 411.03125 211.984375 C 410.792969 211.984375 410.601562 212.179688 410.601562 212.414062 C 410.601562 212.652344 410.792969 212.847656 411.03125 212.847656 Z M 411.03125 212.847656 "/>
<path style=" stroke:none;fill-rule:nonzero;fill:rgb(95.294118%,97.647059%,100%);fill-opacity:1;" d="M 460.074219 215.371094 C 460.074219 206.722656 453.070312 199.714844 444.425781 199.714844 C 435.785156 199.714844 428.777344 206.726562 428.777344 215.371094 C 428.777344 224.019531 435.785156 231.027344 444.425781 231.027344 C 453.070312 231.027344 460.074219 224.019531 460.074219 215.371094 Z M 460.074219 215.371094 "/>
<path style=" stroke:none;fill-rule:nonzero;fill:rgb(65.882355%,82.352942%,62.7451%);fill-opacity:1;" d="M 444.425781 215.371094 L 435.625 226.675781 C 438.054688 228.574219 441.109375 229.699219 444.425781 229.699219 C 452.335938 229.699219 458.75 223.285156 458.75 215.371094 C 458.75 207.457031 452.335938 201.042969 444.425781 201.042969 C 436.957031 201.042969 430.824219 206.761719 430.164062 214.0625 Z M 444.425781 215.371094 "/>
<path style=" stroke:none;fill-rule:nonzero;fill:rgb(65.098041%,78.039217%,97.647059%);fill-opacity:1;" d="M 433.398438 218.914062 L 436.976562 218.914062 C 437.214844 218.914062 437.410156 218.71875 437.410156 218.484375 C 437.410156 218.246094 437.214844 218.050781 436.976562 218.050781 L 433.398438 218.050781 C 433.160156 218.050781 432.96875 218.246094 432.96875 218.484375 C 432.96875 218.71875 433.160156 218.914062 433.398438 218.914062 Z M 433.398438 218.914062 "/>
<path style=" stroke:none;fill-rule:nonzero;fill:rgb(95.294118%,97.647059%,100%);fill-opacity:1;" d="M 421.222656 258.496094 C 421.222656 249.847656 414.21875 242.839844 405.578125 242.839844 C 396.933594 242.839844 389.929688 249.847656 389.929688 258.496094 C 389.929688 267.144531 396.933594 274.152344 405.578125 274.152344 C 414.21875 274.152344 421.222656 267.144531 421.222656 258.496094 Z M 421.222656 258.496094 "/>
<path style=" stroke:none;fill-rule:nonzero;fill:rgb(65.882355%,82.352942%,62.7451%);fill-opacity:1;" d="M 391.253906 258.496094 C 391.253906 266.410156 397.667969 272.824219 405.578125 272.824219 C 409.308594 272.824219 412.710938 271.398438 415.257812 269.054688 L 405.578125 258.496094 L 405.578125 244.164062 C 397.667969 244.164062 391.253906 250.582031 391.253906 258.496094 Z M 391.253906 258.496094 "/>
<path style=" stroke:none;fill-rule:nonzero;fill:rgb(65.098041%,78.039217%,97.647059%);fill-opacity:1;" d="M 411.03125 255.972656 L 416.171875 255.972656 C 416.410156 255.972656 416.605469 255.777344 416.605469 255.539062 C 416.605469 255.300781 416.410156 255.109375 416.171875 255.109375 L 411.03125 255.109375 C 410.792969 255.109375 410.601562 255.300781 410.601562 255.539062 C 410.601562 255.777344 410.792969 255.972656 411.03125 255.972656 Z M 411.03125 255.972656 "/>
<path style=" stroke:none;fill-rule:nonzero;fill:rgb(95.294118%,97.647059%,100%);fill-opacity:1;" d="M 460.074219 258.496094 C 460.074219 249.847656 453.070312 242.839844 444.425781 242.839844 C 435.785156 242.839844 428.777344 249.847656 428.777344 258.496094 C 428.777344 267.144531 435.785156 274.152344 444.425781 274.152344 C 453.070312 274.152344 460.074219 267.144531 460.074219 258.496094 Z M 460.074219 258.496094 "/>
<path style=" stroke:none;fill-rule:nonzero;fill:rgb(65.098041%,78.039217%,97.647059%);fill-opacity:1;" d="M 430.164062 257.1875 C 430.824219 249.886719 436.957031 244.164062 444.425781 244.164062 C 452.335938 244.164062 458.75 250.582031 458.75 258.496094 C 458.75 266.410156 452.335938 272.824219 444.425781 272.824219 C 441.109375 272.824219 438.054688 271.695312 435.625 269.800781 L 444.425781 258.496094 Z M 430.164062 257.1875 "/>
<path style=" stroke:none;fill-rule:nonzero;fill:rgb(65.098041%,78.039217%,97.647059%);fill-opacity:1;" d="M 433.398438 262.039062 L 436.976562 262.039062 C 437.214844 262.039062 437.410156 261.84375 437.410156 261.605469 C 437.410156 261.371094 437.214844 261.175781 436.976562 261.175781 L 433.398438 261.175781 C 433.160156 261.175781 432.96875 261.371094 432.96875 261.605469 C 432.96875 261.84375 433.160156 262.039062 433.398438 262.039062 Z M 433.398438 262.039062 "/>
<path style=" stroke:none;fill-rule:nonzero;fill:rgb(95.294118%,97.647059%,100%);fill-opacity:1;" d="M 468.039062 343.75 L 382.988281 343.75 L 382.988281 286.546875 L 468.039062 286.546875 Z M 468.039062 343.75 "/>
<path style=" stroke:none;fill-rule:nonzero;fill:rgb(65.098041%,78.039217%,97.647059%);fill-opacity:1;" d="M 386.652344 339.753906 L 464.722656 339.753906 L 464.722656 293.597656 L 463.75 293.597656 L 463.75 338.78125 L 386.652344 338.78125 Z M 386.652344 339.753906 "/>
<path style=" stroke:none;fill-rule:nonzero;fill:rgb(65.882355%,82.352942%,62.7451%);fill-opacity:1;" d="M 440.316406 323.0625 C 449.875 315.449219 460.039062 323.0625 460.039062 323.0625 L 460.039062 336.074219 L 388.589844 336.074219 L 388.589844 302.4375 C 408.007812 302.925781 430.761719 330.671875 440.316406 323.0625 Z M 440.316406 323.0625 "/>
<path style=" stroke:none;fill-rule:nonzero;fill:rgb(65.098041%,78.039217%,97.647059%);fill-opacity:1;" d="M 459.21875 297.117188 L 425.925781 297.117188 C 425.476562 297.117188 425.109375 296.746094 425.109375 296.296875 C 425.109375 295.847656 425.476562 295.480469 425.925781 295.480469 L 459.21875 295.480469 C 459.667969 295.480469 460.039062 295.847656 460.039062 296.296875 C 460.039062 296.746094 459.667969 297.117188 459.21875 297.117188 Z M 459.21875 297.117188 "/>
<path style=" stroke:none;fill-rule:nonzero;fill:rgb(65.098041%,78.039217%,97.647059%);fill-opacity:1;" d="M 459.21875 301.117188 L 425.925781 301.117188 C 425.476562 301.117188 425.109375 300.746094 425.109375 300.296875 C 425.109375 299.847656 425.476562 299.480469 425.925781 299.480469 L 459.21875 299.480469 C 459.667969 299.480469 460.039062 299.847656 460.039062 300.296875 C 460.039062 300.746094 459.667969 301.117188 459.21875 301.117188 Z M 459.21875 301.117188 "/>
<path style=" stroke:none;fill-rule:nonzero;fill:rgb(65.098041%,78.039217%,97.647059%);fill-opacity:1;" d="M 459.367188 304.890625 L 437.324219 304.890625 C 436.957031 304.890625 436.65625 304.589844 436.65625 304.222656 L 436.65625 303.925781 C 436.65625 303.554688 436.957031 303.253906 437.324219 303.253906 L 459.367188 303.253906 C 459.738281 303.253906 460.039062 303.554688 460.039062 303.925781 L 460.039062 304.222656 C 460.039062 304.589844 459.738281 304.890625 459.367188 304.890625 Z M 459.367188 304.890625 "/>
<path style=" stroke:none;fill-rule:nonzero;fill:rgb(65.882355%,82.352942%,62.7451%);fill-opacity:1;" d="M 364.390625 225.679688 L 213.535156 225.679688 C 211.433594 225.679688 209.726562 223.972656 209.726562 221.867188 C 209.726562 219.761719 211.433594 218.054688 213.535156 218.054688 L 364.390625 218.054688 C 366.496094 218.054688 368.203125 219.761719 368.203125 221.867188 C 368.203125 223.972656 366.496094 225.679688 364.390625 225.679688 Z M 364.390625 225.679688 "/>
<path style=" stroke:none;fill-rule:nonzero;fill:rgb(65.882355%,82.352942%,62.7451%);fill-opacity:1;" d="M 364.390625 208.246094 L 213.535156 208.246094 C 211.433594 208.246094 209.726562 206.539062 209.726562 204.433594 C 209.726562 202.328125 211.433594 200.621094 213.535156 200.621094 L 364.390625 200.621094 C 366.496094 200.621094 368.203125 202.328125 368.203125 204.433594 C 368.203125 206.539062 366.496094 208.246094 364.390625 208.246094 Z M 364.390625 208.246094 "/>
<path style=" stroke:none;fill-rule:nonzero;fill:rgb(65.882355%,82.352942%,62.7451%);fill-opacity:1;" d="M 457.59375 189.800781 L 213.703125 189.800781 C 211.734375 189.800781 210.140625 188.207031 210.140625 186.238281 C 210.140625 184.269531 211.738281 182.675781 213.703125 182.675781 L 457.59375 182.675781 C 459.5625 182.675781 461.15625 184.269531 461.15625 186.238281 C 461.15625 188.207031 459.5625 189.800781 457.59375 189.800781 Z M 457.59375 189.800781 "/>
<path style=" stroke:none;fill-rule:nonzero;fill:rgb(10.980392%,27.450982%,54.11765%);fill-opacity:1;" d="M 339.066406 351.550781 L 343.34375 351.550781 L 343.34375 420.578125 L 339.066406 420.578125 Z M 339.066406 351.550781 "/>
<path style=" stroke:none;fill-rule:nonzero;fill:rgb(10.980392%,27.450982%,54.11765%);fill-opacity:1;" d="M 478.679688 172.605469 L 203.730469 172.605469 C 202.046875 172.605469 200.683594 171.242188 200.683594 169.558594 C 200.683594 167.871094 202.046875 166.507812 203.730469 166.507812 L 478.679688 166.507812 C 480.363281 166.507812 481.726562 167.871094 481.726562 169.558594 C 481.726562 171.242188 480.363281 172.605469 478.679688 172.605469 Z M 478.679688 172.605469 "/>
<path style=" stroke:none;fill-rule:nonzero;fill:rgb(13.725491%,21.960784%,38.431373%);fill-opacity:1;" d="M 386.230469 417.4375 L 296.179688 417.4375 C 295.175781 417.4375 294.363281 418.253906 294.363281 419.257812 C 294.363281 420.261719 295.175781 421.078125 296.179688 421.078125 L 386.230469 421.078125 C 387.234375 421.078125 388.046875 420.261719 388.046875 419.257812 C 388.046875 418.253906 387.234375 417.4375 386.230469 417.4375 Z M 386.230469 417.4375 "/>
<path style=" stroke:none;fill-rule:nonzero;fill:rgb(89.411765%,60.000002%,38.82353%);fill-opacity:1;" d="M 180.972656 394.804688 L 184.542969 409.851562 L 189.894531 409.820312 L 190.089844 394.804688 Z M 180.972656 394.804688 "/>
<path style=" stroke:none;fill-rule:nonzero;fill:rgb(89.411765%,60.000002%,38.82353%);fill-opacity:1;" d="M 225.957031 395.445312 L 236.117188 409.851562 L 240.074219 404.761719 L 233.960938 393.464844 Z M 225.957031 395.445312 "/>
<path style=" stroke:none;fill-rule:nonzero;fill:rgb(8.627451%,20.784314%,37.64706%);fill-opacity:1;" d="M 199.546875 197.085938 C 197.703125 196.035156 195.488281 195.921875 193.941406 196.011719 C 194.339844 195.601562 195.125 195.449219 195.125 195.449219 C 194.164062 195.308594 192.023438 196.261719 192.023438 196.261719 C 178.675781 191.113281 176.578125 210.78125 176.855469 215.347656 C 177.136719 219.917969 172.371094 221.410156 165.425781 225.007812 C 152.175781 231.878906 151.011719 241.074219 151.011719 241.074219 C 151.117188 241.136719 151.222656 241.203125 151.339844 241.285156 C 151.996094 240.167969 153.347656 238.078125 154.492188 237.761719 C 154.449219 237.863281 153.140625 240.640625 152.65625 242.234375 C 156.5625 245.210938 163.875 251.804688 168.972656 256.476562 C 168.949219 255.5625 168.988281 254.265625 169.320312 253.582031 L 169.949219 257.375 C 172.675781 259.882812 174.558594 261.648438 174.558594 261.648438 C 174.222656 257.957031 191.246094 238.472656 200.128906 232.636719 C 202.289062 229.453125 203.058594 223.824219 203.117188 223.382812 C 202.742188 227.84375 201.980469 230.347656 201.300781 231.757812 C 208.820312 224.832031 204.441406 199.867188 199.546875 197.085938 Z M 199.546875 197.085938 "/>
<path style=" stroke:none;fill-rule:nonzero;fill:rgb(89.411765%,60.000002%,38.82353%);fill-opacity:1;" d="M 199.601562 232.929688 C 199.648438 232.949219 195.3125 235.199219 192.054688 234.308594 C 188.988281 233.472656 186.984375 229.492188 187.027344 229.484375 C 188.324219 229.226562 188.699219 227.441406 188.671875 219.769531 L 189.257812 219.886719 L 199.128906 221.839844 C 199.128906 221.839844 198.902344 224.949219 198.898438 227.875 C 198.890625 230.335938 199.039062 232.667969 199.601562 232.929688 Z M 199.601562 232.929688 "/>
<path style=" stroke:none;fill-rule:nonzero;fill:rgb(83.92157%,55.29412%,36.470589%);fill-opacity:1;" d="M 199.128906 221.839844 C 199.128906 221.839844 198.902344 224.949219 198.898438 227.875 C 193.375 227.722656 190.457031 222.679688 189.257812 219.886719 Z M 199.128906 221.839844 "/>
<path style=" stroke:none;fill-rule:nonzero;fill:rgb(8.627451%,20.784314%,37.64706%);fill-opacity:1;" d="M 188.238281 218.8125 C 188.238281 218.8125 185.347656 214.234375 184.652344 210.324219 C 184.15625 207.527344 185.578125 197.175781 195.976562 198.667969 C 195.976562 198.667969 198.996094 198.964844 201.835938 200.882812 C 204.09375 202.410156 207.351562 205.703125 203.707031 214.738281 L 202.761719 217.789062 Z M 188.238281 218.8125 "/>
<path style=" stroke:none;fill-rule:nonzero;fill:rgb(16.862746%,27.843139%,54.509807%);fill-opacity:1;" d="M 238.464844 400.816406 L 233.234375 400.976562 L 227.570312 401.148438 C 227.570312 401.148438 214.492188 386.578125 207.152344 363.21875 C 206.984375 362.675781 206.800781 362.125 206.609375 361.570312 C 202.597656 349.855469 194.273438 335.148438 189.886719 321.839844 C 189.1875 319.71875 188.5625 317.726562 188 315.835938 C 187.816406 315.230469 187.640625 314.636719 187.476562 314.050781 C 184.242188 302.8125 183.308594 295.433594 182.445312 287.550781 L 214.121094 287.804688 C 214.121094 287.804688 219.234375 341.640625 238.464844 400.816406 Z M 238.464844 400.816406 "/>
<path style=" stroke:none;fill-rule:nonzero;fill:rgb(90.588236%,94.509804%,99.215686%);fill-opacity:1;" d="M 209.683594 269.589844 C 209.605469 284.671875 211.894531 291.144531 211.894531 291.144531 C 211.894531 291.144531 198.332031 298.039062 182.214844 292.964844 C 182.023438 292.902344 169.773438 290.105469 169.773438 290.105469 C 170.042969 289.496094 174.203125 279.371094 174.464844 278.8125 C 177.867188 271.496094 177.789062 268.046875 178.191406 265.796875 C 178.941406 261.601562 178.957031 257.257812 178.582031 253.160156 C 177.601562 242.320312 174.675781 233.320312 174.675781 233.320312 C 179.066406 232.320312 183.179688 230.5625 187.75 228.847656 C 188.800781 230.15625 192.015625 231.527344 194.804688 231.464844 C 198.015625 231.394531 199.054688 230.019531 198.890625 228.515625 C 202.3125 230.421875 205.042969 232.222656 205.042969 232.222656 C 207.949219 237.277344 213.847656 242.183594 214.273438 249.9375 C 214.378906 251.84375 209.6875 269.167969 209.683594 269.589844 Z M 209.683594 269.589844 "/>
<path style=" stroke:none;fill-rule:nonzero;fill:rgb(77.64706%,32.941177%,27.843139%);fill-opacity:1;" d="M 225.8125 257.1875 C 223.050781 250.589844 214.863281 235.644531 203.472656 230.460938 L 207.609375 253.6875 C 207.609375 253.6875 207.085938 257.285156 209.472656 260.246094 C 215.316406 267.5 224.042969 272.683594 224.042969 272.683594 C 224.042969 272.683594 231.316406 271.949219 242.089844 268.359375 C 245.472656 267.234375 252.738281 261.128906 252.738281 261.128906 L 252.835938 256.367188 C 252.835938 256.367188 243.203125 258.308594 239.863281 258.6875 C 237.960938 258.90625 233.558594 259.464844 230.457031 259.867188 C 228.480469 260.121094 226.582031 259.023438 225.8125 257.1875 Z M 225.8125 257.1875 "/>
<path style=" stroke:none;fill-rule:nonzero;fill:rgb(89.411765%,60.000002%,38.82353%);fill-opacity:1;" d="M 200.972656 224.613281 C 200.972656 224.613281 187.90625 224.828125 187.898438 216.683594 C 187.886719 208.539062 186.195312 203.082031 194.539062 202.601562 C 202.878906 202.121094 204.503906 205.226562 205.167969 207.941406 C 205.832031 210.660156 204.371094 224.347656 200.972656 224.613281 Z M 200.972656 224.613281 "/>
<path style=" stroke:none;fill-rule:nonzero;fill:rgb(8.627451%,20.784314%,37.64706%);fill-opacity:1;" d="M 200.488281 202.402344 C 200.488281 202.402344 196.910156 211.957031 191.421875 213.371094 C 185.929688 214.78125 183.550781 213.3125 183.550781 213.3125 C 183.550781 213.3125 184.332031 204.988281 185.203125 199.144531 C 185.203125 199.144531 197.789062 197.855469 200.488281 202.402344 Z M 200.488281 202.402344 "/>
<path style=" stroke:none;fill-rule:nonzero;fill:rgb(8.627451%,20.784314%,37.64706%);fill-opacity:1;" d="M 199.601562 203.179688 C 199.601562 203.179688 202.273438 205.3125 202.925781 207.386719 C 203.578125 209.457031 203.871094 213.726562 205.113281 213.582031 C 205.113281 213.582031 207.808594 207.089844 204.78125 203.414062 C 201.566406 199.519531 199.601562 203.179688 199.601562 203.179688 Z M 199.601562 203.179688 "/>
<path style=" stroke:none;fill-rule:nonzero;fill:rgb(89.411765%,60.000002%,38.82353%);fill-opacity:1;" d="M 252.839844 256.367188 C 252.839844 256.367188 256.625 250.605469 263.285156 253.734375 C 264 254.242188 266.03125 255.921875 263.742188 257.9375 C 262.050781 259.425781 261.882812 258.324219 259.359375 260.238281 C 256.839844 262.15625 254.785156 262.113281 252.738281 261.128906 Z M 252.839844 256.367188 "/>
<path style=" stroke:none;fill-rule:nonzero;fill:rgb(89.411765%,60.000002%,38.82353%);fill-opacity:1;" d="M 184.367188 409.007812 C 184.367188 409.007812 184.796875 411.988281 183.683594 415.179688 C 183.683594 415.179688 182.808594 419.167969 186.738281 419.242188 C 190.664062 419.316406 191.628906 418.945312 191.183594 416.5 C 190.738281 414.050781 189.894531 409.820312 189.894531 409.820312 Z M 184.367188 409.007812 "/>
<path style=" stroke:none;fill-rule:nonzero;fill:rgb(61.960787%,19.607843%,16.470589%);fill-opacity:1;" d="M 191.554688 420.945312 C 191.554688 420.945312 191.46875 421 191.308594 421.078125 L 183.617188 421.078125 C 183.472656 421 183.402344 420.945312 183.402344 420.945312 C 182.957031 418.945312 183.683594 415.175781 183.683594 415.175781 C 188.132812 419.253906 190.914062 415.074219 190.914062 415.074219 C 191.636719 416.820312 191.554688 420.945312 191.554688 420.945312 Z M 191.554688 420.945312 "/>
<path style=" stroke:none;fill-rule:nonzero;fill:rgb(89.411765%,60.000002%,38.82353%);fill-opacity:1;" d="M 249.539062 416.898438 C 249.539062 416.898438 242.300781 408.855469 240.074219 404.761719 L 234.691406 407.523438 L 246.726562 418.835938 L 249.542969 418.464844 Z M 249.539062 416.898438 "/>
<path style=" stroke:none;fill-rule:nonzero;fill:rgb(61.960787%,19.607843%,16.470589%);fill-opacity:1;" d="M 254.035156 421.078125 L 244.125 421.078125 C 243.167969 420.363281 242.277344 418.710938 241.171875 416.496094 C 240.582031 415.3125 239.253906 414.660156 237.890625 414.300781 L 237.890625 421 L 235.835938 421 L 233.890625 413.878906 C 232.609375 411.523438 233.789062 409.382812 234.691406 407.523438 C 235.742188 407.519531 238.5625 408.238281 243.914062 414.269531 C 245.671875 416.25 247.613281 416.960938 249.539062 416.898438 C 249.566406 416.914062 249.59375 416.929688 249.621094 416.941406 C 252.847656 418.390625 253.769531 420.195312 254.035156 421.078125 Z M 254.035156 421.078125 "/>
<path style=" stroke:none;fill-rule:nonzero;fill:rgb(77.64706%,32.941177%,27.843139%);fill-opacity:1;" d="M 198.890625 228.515625 C 198.890625 228.515625 206.449219 247.203125 206.671875 250.984375 C 206.894531 254.769531 207.5625 312.832031 207.5625 312.832031 C 207.5625 312.832031 207.117188 315.5 212.230469 314.386719 C 217.34375 313.277344 218.675781 312.164062 218.675781 312.164062 C 218.675781 312.164062 213.785156 276.347656 215.121094 263.886719 C 216.28125 253.042969 207.621094 236.183594 205.359375 232 C 205.023438 231.378906 204.488281 230.894531 203.835938 230.617188 Z M 198.890625 228.515625 "/>
<path style=" stroke:none;fill-rule:nonzero;fill:rgb(13.725491%,21.960784%,38.431373%);fill-opacity:1;" d="M 233.234375 400.976562 L 227.570312 401.148438 C 227.570312 401.148438 214.492188 386.578125 207.152344 363.21875 C 206.980469 362.675781 206.800781 362.125 206.609375 361.570312 C 202.597656 349.855469 194.273438 335.148438 189.886719 321.839844 C 189.1875 319.71875 188.558594 317.726562 187.996094 315.835938 C 187.816406 315.230469 187.640625 314.636719 187.476562 314.050781 L 192.140625 310.511719 C 192.140625 310.511719 206.144531 333.203125 210.480469 354.554688 C 214.246094 373.105469 229.328125 395.425781 233.234375 400.976562 Z M 233.234375 400.976562 "/>
<path style=" stroke:none;fill-rule:nonzero;fill:rgb(16.862746%,27.843139%,54.509807%);fill-opacity:1;" d="M 192.625 356.542969 C 192.707031 366.929688 192.183594 390.804688 190.832031 400.6875 L 185.816406 400.6875 C 183.042969 400.6875 181.660156 400.648438 181.660156 400.648438 C 178.269531 383.460938 175.855469 369.242188 174.101562 356.988281 C 172.660156 346.933594 171.378906 338.3125 170.394531 330.890625 C 169.402344 323.425781 168.714844 317.171875 168.464844 311.886719 C 168.429688 311.054688 168.398438 310.246094 168.382812 309.460938 C 168.367188 308.671875 168.363281 307.902344 168.371094 307.15625 L 195.738281 304.488281 C 195.394531 322.683594 192.582031 350.507812 192.625 356.542969 Z M 192.625 356.542969 "/>
<path style=" stroke:none;fill-rule:nonzero;fill:rgb(13.725491%,21.960784%,38.431373%);fill-opacity:1;" d="M 185.816406 400.6875 C 183.042969 400.6875 181.660156 400.648438 181.660156 400.648438 C 178.269531 383.460938 175.855469 369.242188 174.101562 356.988281 C 172.660156 346.933594 171.378906 338.3125 170.394531 330.890625 C 169.402344 323.425781 168.714844 317.171875 168.464844 311.886719 L 178.507812 317.796875 C 178.507812 317.796875 172.097656 320.058594 174.546875 337.191406 C 176.992188 354.320312 182.410156 398.261719 185.816406 400.6875 Z M 185.816406 400.6875 "/>
<path style=" stroke:none;fill-rule:nonzero;fill:rgb(77.64706%,32.941177%,27.843139%);fill-opacity:1;" d="M 187.105469 311.71875 C 187.105469 311.71875 185.179688 318.6875 178.511719 317.796875 C 171.839844 316.910156 162.355469 312.902344 162.355469 312.902344 C 162.355469 312.902344 165.207031 303.890625 168.75 292.050781 C 173.039062 277.71875 178.351562 259.242188 180.855469 247.585938 C 181.558594 244.320312 182.039062 241.59375 182.214844 239.640625 L 187.75 228.898438 C 187.75 228.898438 196 247.425781 196.445312 252.097656 C 196.890625 256.769531 187.105469 311.71875 187.105469 311.71875 Z M 187.105469 311.71875 "/>
<path style=" stroke:none;fill-rule:nonzero;fill:rgb(89.411765%,60.000002%,38.82353%);fill-opacity:1;" d="M 180.449219 251.402344 L 187.75 228.898438 C 187.730469 228.90625 178.527344 231.636719 173.894531 233.980469 C 173.894531 233.980469 171.003906 237.710938 169.210938 246.324219 C 169.210938 246.324219 167.320312 267.003906 171.542969 274.566406 C 171.542969 274.566406 184.882812 277.238281 206.226562 269.894531 L 206.226562 265 C 206.226562 265 182.882812 266.226562 178.101562 266.78125 Z M 180.449219 251.402344 "/>
<path style=" stroke:none;fill-rule:nonzero;fill:rgb(61.960787%,19.607843%,16.470589%);fill-opacity:1;" d="M 186.8125 261.886719 C 186.511719 269.449219 184.734375 284.132812 168.875 291.992188 C 168.835938 292.011719 168.792969 292.035156 168.75 292.050781 C 173.039062 277.71875 178.351562 259.242188 180.855469 247.585938 C 183.769531 251.941406 186.972656 257.722656 186.8125 261.886719 Z M 186.8125 261.886719 "/>
<path style=" stroke:none;fill-rule:nonzero;fill:rgb(77.64706%,32.941177%,27.843139%);fill-opacity:1;" d="M 187.75 228.898438 C 187.75 228.898438 174.210938 229.851562 170.953125 237.121094 C 167.691406 244.386719 166.652344 268.5625 170.804688 275.679688 C 170.804688 275.679688 176.515625 277.308594 186.621094 275.417969 C 186.746094 275.394531 186.871094 275.371094 186.996094 275.347656 C 186.996094 275.347656 190.21875 267.449219 187.328125 265.890625 C 187.328125 265.890625 178.808594 266.335938 179.695312 263.519531 C 180.585938 260.699219 187.75 228.898438 187.75 228.898438 Z M 187.75 228.898438 "/>
<path style=" stroke:none;fill-rule:nonzero;fill:rgb(89.411765%,60.000002%,38.82353%);fill-opacity:1;" d="M 203.835938 266.304688 C 203.835938 266.304688 205.695312 264.046875 206.089844 261.746094 C 206.488281 259.441406 207.71875 257.734375 210.929688 257.3125 C 214.136719 256.890625 215.519531 256.84375 215.507812 257.75 C 215.5 258.65625 212.886719 264.976562 208.28125 268.753906 C 203.675781 272.527344 203.835938 266.304688 203.835938 266.304688 Z M 203.835938 266.304688 "/>
<path style=" stroke:none;fill-rule:nonzero;fill:rgb(13.725491%,21.960784%,38.431373%);fill-opacity:1;" d="M 256.824219 258.792969 C 256.925781 258.828125 257.039062 258.835938 257.15625 258.808594 L 314.472656 245.089844 C 314.804688 245.011719 315.007812 244.679688 314.929688 244.347656 C 314.847656 244.015625 314.515625 243.8125 314.183594 243.890625 L 256.867188 257.605469 C 256.535156 257.6875 256.332031 258.019531 256.410156 258.351562 C 256.464844 258.570312 256.625 258.730469 256.824219 258.792969 Z M 256.824219 258.792969 "/>
<path style=" stroke:none;fill-rule:nonzero;fill:rgb(91.37255%,95.294118%,99.607843%);fill-opacity:1;" d="M 642.765625 305.535156 C 642.765625 305.535156 651.496094 307.164062 661.265625 305.417969 C 661.265625 305.417969 653.304688 306.683594 652.015625 303.996094 C 651.082031 302.050781 649.554688 291.519531 649.285156 285.488281 C 649.285156 285.488281 646.707031 306.472656 642.765625 305.535156 Z M 642.765625 305.535156 "/>
<path style=" stroke:none;fill-rule:nonzero;fill:rgb(13.725491%,21.960784%,38.431373%);fill-opacity:1;" d="M 646.449219 247.359375 C 646.496094 248.191406 643.734375 250.132812 643.734375 250.132812 C 646.398438 255.507812 648.128906 261.296875 649.222656 265.957031 L 651.703125 266.039062 C 651.792969 261.519531 651.601562 256.355469 651.289062 251.359375 C 647.222656 242.78125 645.65625 236.871094 645.128906 233.035156 C 643.980469 237.136719 642.785156 246.773438 642.785156 246.773438 C 644.640625 246.601562 646.449219 247.359375 646.449219 247.359375 Z M 646.449219 247.359375 "/>
<path style=" stroke:none;fill-rule:nonzero;fill:rgb(91.37255%,95.294118%,99.607843%);fill-opacity:1;" d="M 665.125 231.292969 L 660.460938 247.058594 L 654.9375 234.039062 C 654.9375 234.039062 662.148438 234.347656 665.125 231.292969 Z M 665.125 231.292969 "/>
<path style=" stroke:none;fill-rule:nonzero;fill:rgb(85.09804%,91.37255%,97.647059%);fill-opacity:1;" d="M 668.410156 231.34375 C 668.445312 230.675781 665.269531 229.746094 665.269531 229.746094 C 665.269531 229.746094 660.976562 234.070312 654.988281 234.160156 C 654.988281 234.160156 657.351562 238.199219 659.363281 239.0625 C 659.363281 239.0625 668.214844 235.328125 668.410156 231.34375 Z M 668.410156 231.34375 "/>
<path style=" stroke:none;fill-rule:nonzero;fill:rgb(91.37255%,95.294118%,99.607843%);fill-opacity:1;" d="M 667.910156 231 C 667.945312 230.328125 665.96875 228.691406 665.96875 228.691406 C 665.96875 228.691406 660.925781 233.949219 654.9375 234.039062 C 654.9375 234.039062 657.351562 237.222656 659.363281 238.082031 C 659.363281 238.082031 667.714844 234.984375 667.910156 231 Z M 667.910156 231 "/>
<path style=" stroke:none;fill-rule:nonzero;fill:rgb(13.725491%,21.960784%,38.431373%);fill-opacity:1;" d="M 665.984375 252.152344 C 665.480469 251.457031 665.089844 250.757812 665.1875 250.371094 C 665.1875 250.371094 667.566406 248.535156 669.703125 249.160156 C 669.703125 249.160156 670.753906 233.613281 669.542969 231.722656 C 668.332031 229.828125 665.96875 228.691406 665.96875 228.691406 C 665.96875 228.691406 663.296875 236.824219 660.460938 247.058594 C 661.382812 248.742188 663.316406 251.621094 665.984375 252.152344 Z M 665.984375 252.152344 "/>
<path style=" stroke:none;fill-rule:nonzero;fill:rgb(13.333334%,25.098041%,47.843137%);fill-opacity:1;" d="M 649.285156 285.488281 C 649.285156 285.488281 649.921875 301.398438 653.339844 308.304688 C 653.339844 308.304688 678.417969 305.839844 681.082031 304.0625 L 677.863281 277.433594 Z M 649.285156 285.488281 "/>
<path style=" stroke:none;fill-rule:nonzero;fill:rgb(13.333334%,25.098041%,47.843137%);fill-opacity:1;" d="M 634.335938 290.863281 C 634.285156 296.054688 632.15625 302.660156 632.15625 302.660156 C 634.207031 304.507812 642.613281 307.585938 642.613281 307.585938 C 647.703125 301.703125 649.285156 285.488281 649.285156 285.488281 Z M 634.335938 290.863281 "/>
<path style=" stroke:none;fill-rule:nonzero;fill:rgb(18.039216%,20.784314%,32.156864%);fill-opacity:1;" d="M 726.003906 421.738281 L 93.996094 421.738281 C 93.625 421.738281 93.320312 421.433594 93.320312 421.058594 L 93.320312 420.917969 C 93.320312 420.542969 93.625 420.238281 93.996094 420.238281 L 726.003906 420.238281 C 726.375 420.238281 726.679688 420.542969 726.679688 420.917969 L 726.679688 421.058594 C 726.679688 421.433594 726.375 421.738281 726.003906 421.738281 Z M 726.003906 421.738281 "/>
</g>
</svg>
