<svg width="603" height="449" viewBox="0 0 603 449" fill="none" xmlns="http://www.w3.org/2000/svg">
<g style="mix-blend-mode:multiply" opacity="0.2">
<path d="M312.385 448.518C306.904 448.518 300.356 447.137 291.637 444.007C268.498 435.522 244.771 410.037 219.719 383.086C205.924 368.286 191.688 352.978 177.377 340.433C156.483 317.767 121.057 302.149 86.7717 287.011C61.72 275.96 38.0661 265.501 19.7463 252.589L19.7095 252.561C5.95125 242.525 -0.486421 232.827 0.0285933 222.932C1.02184 203.621 28.5015 186.425 60.3589 166.522L63.4121 164.605C87.0292 149.776 116.679 129.929 159.609 100.3L163.251 97.876C201.657 72.2784 249.479 40.4223 311.428 21.1114C435.51 -23.6281 544.104 11.0189 578.39 48.5696C614.146 92.4633 611.056 139.063 566.618 226.766C520.083 318.19 417.006 388.865 374.849 414.999C357.596 423.625 346.78 431.265 338.908 436.847C328.902 443.895 322.391 448.518 312.385 448.518ZM22.9835 249.883C40.8987 262.513 64.3318 272.859 89.1261 283.825C123.816 299.133 159.72 314.976 181.056 338.15C195.403 350.695 209.713 366.087 223.545 380.944C248.266 407.5 271.625 432.59 293.624 440.681C315.365 448.433 320.478 444.825 335.671 434.112C343.69 428.446 354.69 420.665 372.053 411.982C413.695 386.131 516.036 315.991 562.167 225.385C605.98 138.951 609.18 93.1962 574.417 50.5429C541.125 14.1199 435.069 -19.484 313.341 24.4097C252.018 43.5515 204.526 75.182 166.378 100.582L162.773 103.007C119.806 132.664 90.1193 152.539 66.4286 167.395L63.3754 169.312C32.4009 188.652 5.69376 205.369 4.77409 223.017C4.33265 231.84 10.2921 240.608 22.9835 249.883Z" fill="#CCCCCC"/>
<path d="M305.245 422.977C297.667 422.977 289.647 421.116 278.611 417.818L278.391 417.761C257.201 409.614 240.427 389.965 222.696 369.188C210.593 354.98 198.048 340.32 182.966 327.549C161.703 306.829 134.959 290.704 109.135 275.114C91.7715 264.655 75.3646 254.76 61.0546 243.822L60.7971 243.596C31.662 213.178 52.5568 199.759 90.4472 175.373C94.5673 172.723 98.9081 169.932 103.433 166.944C112.335 161.898 121.826 156.26 131.906 150.283C176.675 123.699 238.036 87.3041 324.595 57.7597C430.393 26.7212 512.134 49.1614 546.272 85.1615C580.483 122.684 567.203 167.846 528.761 243.286C486.64 319.571 409.756 368.962 368.445 395.49L363.846 398.45C333.129 415.929 319.96 422.977 305.245 422.977ZM280.451 414.435C310.579 423.4 315.692 421.257 360.903 395.603L365.391 392.728C406.372 366.397 482.667 317.372 524.347 241.961C562.164 167.79 575.37 123.473 542.409 87.3323C509.375 52.4879 429.768 30.8653 326.434 61.1708C240.5 90.4897 179.434 126.744 134.812 153.187C124.732 159.163 115.241 164.802 106.413 169.82C101.998 172.723 97.6574 175.514 93.5373 178.193C55.6101 202.606 38.2468 213.77 64.5493 241.341C78.6386 252.082 94.8984 261.864 112.078 272.238C138.16 287.941 165.087 304.207 186.608 325.181C201.837 338.065 214.492 352.865 226.705 367.186C244.032 387.484 260.439 406.682 280.451 414.435Z" fill="#CCCCCC"/>
<path d="M299.076 401.664C289.401 401.664 280.425 399.014 269.242 394.504C250.554 385.877 235.545 368.032 219.653 349.172C210.236 337.952 200.45 326.366 189.267 315.737C173.633 299.048 155.092 284.784 137.214 270.97C122.536 259.637 108.667 248.953 97.7417 237.93L97.5946 237.761C75.449 209.175 98.3303 195.84 139.899 171.624L140.378 171.342L148.066 167.311C191.842 144.448 251.805 113.127 333.949 90.4335C430.919 66.7247 492.647 90.8845 516.081 118.737C541.132 148.451 534.989 188.341 494.891 256.423C465.683 303.869 418.007 346.522 353.226 383.199C328.174 396.223 312.907 401.664 299.076 401.664ZM101.604 235.759C112.346 246.556 126.068 257.156 140.598 268.348C158.624 282.246 177.275 296.652 193.056 313.482C204.35 324.167 214.172 335.866 223.663 347.171C239.224 365.692 253.938 383.171 271.596 391.318C297.052 401.636 309.744 401.439 350.467 380.211C414.549 343.901 461.71 301.726 490.551 254.873C529.876 188.088 536.129 149.212 512.071 120.683C487.755 91.7866 423.746 72.2783 335.458 93.8446C253.975 116.369 194.307 147.521 150.751 170.299L142.769 174.5C100.905 198.885 81.7395 210.049 101.604 235.759Z" fill="#CCCCCC"/>
<path d="M295.62 382.269C284.805 382.269 274.651 379.422 263.321 373.84L263.248 373.812C246.179 364.847 232.42 347.989 217.853 330.172C211.121 321.912 204.131 313.398 196.553 305.279C186.437 293.383 175.217 282.388 164.365 271.788C151.048 258.764 138.43 246.444 130.19 234.491C115.806 209.26 136.848 196.067 173.194 177.263C210.643 159.503 268.508 134.187 339.433 119.245C407.157 108.561 457.886 117.131 482.423 143.349C508.909 171.597 502.325 216.392 464.361 266.263C424.594 324.957 361.726 359.378 343.406 368.512C323.909 377.759 309.231 382.269 295.62 382.269ZM265.896 370.767C287.085 381.17 303.713 383.031 340.831 365.411C358.856 356.418 420.916 322.448 460.167 264.487C497.174 215.857 503.87 172.499 478.524 145.491C455.127 120.514 406.127 112.48 340.5 122.826C270.311 137.626 212.85 162.745 175.732 180.364C138.32 199.703 122.023 211.205 134.42 232.941C142.403 244.471 154.874 256.649 168.08 269.561C179.006 280.245 190.299 291.268 200.453 303.249C208.067 311.369 215.057 319.967 221.826 328.255C236.173 345.705 249.673 362.225 265.896 370.767Z" fill="#CCCCCC"/>
<path d="M293.336 364.564C281.859 364.564 271.301 361.548 260.338 355.515L260.044 355.317C218.07 322.757 168.445 248.191 158.917 233.588L158.77 233.25C151.339 212.332 168.114 200.04 201.627 184.676C233.19 171.088 283.036 153.158 341.453 144.786C395.235 138.302 435.517 147.041 454.94 169.396C476.497 194.233 469.912 231.981 436.915 272.971C407.853 312.495 365.033 340.94 334.648 354.359C318.756 361.181 305.512 364.564 293.336 364.564ZM263.281 352.639C284.287 364.113 303.011 363.718 332.256 351.173C362.091 338.008 404.138 310.042 432.795 271.11C464.358 231.896 471.126 194.656 450.967 171.426C432.647 150.311 394.021 142.107 342.262 148.394C284.544 156.682 235.25 174.443 204.018 187.862C171.94 202.549 156.82 213.459 163.295 232.15C190.664 274.099 231.24 327.718 263.281 352.639Z" fill="#CCCCCC"/>
<path d="M291.657 348.243C279.37 348.243 268.739 345.113 260.683 339.052C228.457 315.118 194.908 264.627 185.012 234.266C183.394 227.246 185.711 220.395 191.818 213.855C210.653 193.698 266.458 176.304 341.135 167.34C383.256 164.21 414.672 172.865 429.681 191.725C446.676 213.094 440.57 244.189 412.943 277.003C377.002 318.529 333.999 345.029 297.911 347.961C295.777 348.158 293.68 348.243 291.657 348.243ZM357.542 170.356C352.465 170.356 347.205 170.553 341.761 170.976C268.481 179.772 213.816 196.602 195.754 215.998C190.383 221.749 188.36 227.641 189.721 233.533C199.433 263.274 232.393 312.947 264.067 336.459C272.417 342.717 283.969 345.452 297.432 344.352C332.122 341.533 373.839 315.625 408.97 275.03C435.162 243.907 441.416 213.489 425.634 193.642C413.531 178.447 389.657 170.356 357.542 170.356Z" fill="#CCCCCC"/>
<path d="M292.64 332.737C281.236 332.737 271.193 329.918 263.357 324.449C235.399 305.025 209.538 263.95 208.067 236.577V236.52C207.883 211.289 262.622 190.569 338.182 187.298C370.37 186.706 394.245 194.938 405.465 210.556C418.34 228.458 413.043 253.294 390.934 278.722C363.601 309.62 329.39 329.692 299.372 332.427C297.054 332.624 294.81 332.737 292.64 332.737ZM212.849 236.464C214.321 263.02 239.409 302.882 266.595 321.742C274.872 327.521 285.981 329.946 298.783 328.79C327.44 326.168 360.401 306.688 386.961 276.664C408.04 252.42 413.263 228.937 401.271 212.276C390.934 197.926 368.641 190.315 338.366 190.907C266.705 194.036 212.702 213.629 212.849 236.464Z" fill="#CCCCCC"/>
<path d="M293.461 318.049C283.492 318.049 274.59 315.709 267.416 311.114C242.217 295.073 224.302 262.597 228.238 240.157C232.506 218.619 278.379 203.17 332.529 204.946C356.293 205.989 373.803 213.488 381.896 226.033C391.167 240.411 386.936 259.496 370.235 278.356C350.517 300.43 324.509 315.117 300.671 317.654C298.207 317.936 295.816 318.049 293.461 318.049ZM323.957 208.47C275.914 208.47 236.662 222.086 232.984 240.693C229.305 261.639 246.816 293.241 270.469 308.323C278.268 313.285 288.458 315.258 300.009 314.046C322.559 311.65 347.317 297.526 366.299 276.298C382.007 258.566 386.127 240.833 377.629 227.64C370.345 216.335 354.233 209.569 332.308 208.583C329.512 208.526 326.716 208.47 323.957 208.47Z" fill="#CCCCCC"/>
<path d="M295.712 304.011C287.692 304.011 280.409 302.235 274.302 298.767C253.15 286.73 241.268 262.513 247.816 244.781C254.474 227.246 289.053 216.703 326.466 220.762C343.056 222.651 355.233 228.966 360.751 238.551C367.005 249.404 363.914 263.162 352.29 276.299C338.936 291.296 321.021 301.22 303.143 303.503C300.641 303.842 298.14 304.011 295.712 304.011ZM252.414 245.796C246.454 261.893 257.785 284.812 277.135 295.835C284.014 299.754 292.732 301.163 302.37 299.923C318.74 297.809 335.957 288.224 348.39 274.269C359.059 262.203 361.965 249.743 356.41 240.045C351.591 231.644 340.702 226.09 325.803 224.399C291.261 220.621 258.337 230.234 252.414 245.796Z" fill="#CCCCCC"/>
<path d="M297.559 290.422C292.004 290.422 286.634 289.322 281.925 286.954C266.18 279.145 258.823 262.569 265.481 250.024C272.176 237.535 296.051 230.797 318.748 235.026C329.233 236.971 336.884 241.736 340.305 248.389C344.058 255.718 342.145 264.627 335.082 272.802C325.333 284.022 310.876 290.422 297.559 290.422ZM284.5 283.91C298.074 290.647 318.969 284.784 331.109 270.801C337.289 263.64 339.055 255.944 335.854 249.742C333.022 244.216 326.547 240.241 317.608 238.578C297.118 234.772 275.708 240.523 269.896 251.405C264.046 262.428 270.594 277.003 284.5 283.91Z" fill="#CCCCCC"/>
<path d="M298.944 277.088C295.927 277.088 292.984 276.552 290.299 275.424C281.102 271.562 277.387 262.682 282.059 255.606C286.657 248.614 299.275 245.26 310.127 248.135C315.351 249.517 319.176 252.279 320.832 255.944C322.598 259.806 321.752 264.317 318.478 268.292C313.806 273.902 306.264 277.088 298.944 277.088ZM301.887 250.757C295.228 250.757 288.938 253.21 286.252 257.269C282.758 262.597 285.553 269.307 292.543 272.211C299.496 275.142 309.318 272.492 314.394 266.319C316.932 263.246 317.595 260.004 316.27 257.128C315.093 254.535 312.334 252.561 308.508 251.546C306.338 251.011 304.094 250.757 301.887 250.757Z" fill="#CCCCCC"/>
</g>
</svg>
