<svg width="169" height="210" viewBox="0 0 169 210" fill="none" xmlns="http://www.w3.org/2000/svg">
<g opacity="0.2">
<path d="M87.444 209.541C85.9096 209.541 84.0767 208.896 81.6362 207.434C75.1591 203.47 68.5172 191.564 61.5046 178.973C57.643 172.058 53.6579 164.906 49.6522 159.046C43.8032 148.456 33.8867 141.16 24.2895 134.087C17.2769 128.925 10.6556 124.038 5.52746 118.006L5.51716 117.993C1.6659 113.304 -0.136161 108.774 0.00800394 104.151C0.286036 95.1289 7.97826 87.0949 16.8959 77.7965L17.7506 76.9009C24.3616 69.9732 32.6613 60.7012 44.6785 46.8589L45.698 45.7263C56.4485 33.7674 69.8353 18.8847 87.1762 9.86293C121.91 -11.0387 152.308 5.14788 161.905 22.691C171.914 43.1975 171.049 64.9684 158.61 105.942C145.584 148.654 116.73 181.673 104.929 193.882C100.1 197.912 97.0721 201.481 94.8685 204.089C92.0675 207.381 90.2449 209.541 87.444 209.541ZM6.43363 116.742C11.4485 122.642 18.008 127.476 24.9485 132.599C34.659 139.751 44.7094 147.153 50.6819 157.979C54.698 163.84 58.7037 171.031 62.5755 177.972C69.4954 190.378 76.0344 202.1 82.1923 205.88C88.2781 209.502 89.7094 207.816 93.9623 202.811C96.2071 200.164 99.2861 196.529 104.146 192.472C115.803 180.395 144.451 147.627 157.364 105.297C169.628 64.9157 170.524 43.54 160.793 23.613C151.474 6.59663 121.786 -9.10264 87.7117 11.4039C70.5458 20.3467 57.2517 35.124 46.5732 46.9907L45.5641 48.1233C33.5366 61.9787 25.2265 71.2639 18.595 78.2048L17.7403 79.1004C9.06979 88.1354 1.59382 95.9455 1.33638 104.19C1.21281 108.313 2.881 112.409 6.43363 116.742Z" fill="#CCCCCC"/>
<path d="M85.354 197.609C83.2327 197.609 80.9879 196.74 77.8986 195.199L77.8369 195.172C71.9055 191.366 67.2098 182.186 62.2465 172.48C58.8586 165.842 55.3471 158.993 51.1252 153.027C45.1732 143.346 37.687 135.813 30.4581 128.529C25.5977 123.643 21.005 119.02 16.9993 113.91L16.9272 113.805C8.77161 99.5938 14.6206 93.3246 25.227 81.9321C26.3803 80.6941 27.5954 79.3902 28.862 77.9941C31.354 75.6366 34.0108 73.0025 36.8323 70.2104C49.3643 57.7905 66.5405 40.7874 90.7705 26.9847C120.386 12.4839 143.267 22.9677 152.823 39.7864C162.4 57.3164 158.682 78.4156 147.922 113.66C136.131 149.299 114.609 172.374 103.045 184.768L101.758 186.151C93.1595 194.316 89.473 197.609 85.354 197.609ZM78.4135 193.618C86.8472 197.806 88.2785 196.805 100.934 184.82L102.19 183.477C113.662 171.176 135.019 148.272 146.686 113.041C157.272 78.3893 160.968 57.6852 151.742 40.8006C142.495 24.5218 120.211 14.42 91.2854 28.5783C67.2304 42.2757 50.1366 59.213 37.6458 71.5669C34.8242 74.3591 32.1675 76.9932 29.6961 79.3375C28.4604 80.6941 27.2453 81.998 26.092 83.2492C15.4753 94.6549 10.6149 99.8704 17.9776 112.751C21.9215 117.769 26.473 122.339 31.2819 127.186C38.5828 134.522 46.1206 142.121 52.1446 151.92C56.4078 157.939 59.9501 164.854 63.3689 171.544C68.219 181.027 72.8117 189.996 78.4135 193.618Z" fill="#CCCCCC"/>
<path d="M83.5439 187.653C80.8357 187.653 78.3231 186.414 75.1926 184.307C69.9615 180.277 65.7601 171.94 61.3116 163.129C58.6755 157.887 55.9363 152.474 52.8059 147.509C48.4295 139.712 43.2396 133.048 38.235 126.594C34.1263 121.299 30.2441 116.308 27.1858 111.158L27.1446 111.079C20.9455 97.7241 27.3505 91.4945 38.9867 80.181L39.1206 80.0493L41.2727 78.1659C53.5267 67.4846 70.3116 52.8521 93.3059 42.2499C120.45 31.1735 137.729 42.4606 144.289 55.4731C151.301 69.3548 149.582 87.9911 138.357 119.798C130.181 141.964 116.836 161.891 98.7018 179.026C91.6892 185.111 87.4158 187.653 83.5439 187.653ZM28.267 110.144C31.2739 115.188 35.1148 120.14 39.1823 125.369C44.2281 131.862 49.4489 138.592 53.8666 146.455C57.0279 151.447 59.7773 156.913 62.4341 162.194C66.7899 170.847 70.9089 179.013 75.8517 182.819C82.9776 187.639 86.5302 187.547 97.9295 177.63C115.868 160.666 129.069 140.963 137.142 119.074C148.15 87.8726 149.901 69.7104 143.166 56.3818C136.36 42.8821 118.442 33.768 93.7281 43.8435C70.9192 54.3668 54.2167 68.9202 42.0244 79.562L39.7899 81.5244C28.0714 92.9169 22.7064 98.1324 28.267 110.144Z" fill="#CCCCCC"/>
<path d="M82.57 178.591C79.5425 178.591 76.7004 177.26 73.5288 174.653L73.5082 174.639C68.7302 170.451 64.8789 162.575 60.8011 154.251C58.9167 150.392 56.9601 146.415 54.8389 142.622C52.0071 137.064 48.8663 131.927 45.8286 126.975C42.1009 120.89 38.5688 115.135 36.2622 109.551C32.2359 97.763 38.1261 91.5992 48.3 82.8144C58.7828 74.517 74.9808 62.6898 94.8343 55.7095C113.792 50.7178 127.992 54.7217 134.861 66.9703C142.275 80.1671 140.432 101.095 129.805 124.394C118.673 151.815 101.075 167.896 95.9465 172.163C90.4888 176.483 86.3801 178.591 82.57 178.591ZM74.2496 173.217C80.181 178.077 84.8354 178.946 95.2256 170.715C100.271 166.513 117.643 150.643 128.631 123.564C138.99 100.845 140.864 80.5886 133.769 67.9712C127.22 56.3021 113.504 52.5485 95.1329 57.3821C75.4853 64.2966 59.4007 76.0316 49.0105 84.2632C38.538 93.2982 33.9762 98.6717 37.4464 108.826C39.681 114.213 43.1718 119.903 46.8686 125.935C49.927 130.926 53.0883 136.076 55.9304 141.674C58.062 145.467 60.0185 149.484 61.9133 153.356C65.9293 161.508 69.7084 169.226 74.2496 173.217Z" fill="#CCCCCC"/>
<path d="M82.028 170.32C78.8152 170.32 75.8598 168.911 72.7912 166.092L72.7088 166C60.9594 150.788 47.068 115.952 44.401 109.129L44.3598 108.971C42.2797 99.1989 46.9754 93.4565 56.3564 86.2786C65.1916 79.9304 79.1447 71.5539 95.4971 67.6423C110.552 64.6131 121.828 68.6959 127.265 79.1402C133.299 90.7434 131.456 108.379 122.219 127.529C114.084 145.994 102.098 159.283 93.5921 165.552C89.1436 168.739 85.4365 170.32 82.028 170.32ZM73.615 164.749C79.4949 170.109 84.7363 169.925 92.9228 164.064C101.274 157.913 113.044 144.848 121.066 126.659C129.901 108.339 131.796 90.941 126.153 80.0884C121.025 70.2237 110.212 66.3911 95.7237 69.3281C79.5669 73.2002 65.7683 81.4977 57.0257 87.7669C48.0463 94.6287 43.814 99.7257 45.6264 108.458C53.2877 128.056 64.6459 153.106 73.615 164.749Z" fill="#CCCCCC"/>
<path d="M81.473 162.694C78.0336 162.694 75.0576 161.232 72.8025 158.4C63.7819 147.219 54.3906 123.63 51.6206 109.446C51.1675 106.166 51.8162 102.966 53.5256 99.91C58.7979 90.4931 74.4192 82.3669 95.3231 78.1787C107.114 76.7167 115.908 80.7601 120.109 89.5712C124.867 99.5544 123.157 114.082 115.424 129.412C105.363 148.812 93.3254 161.193 83.2236 162.562C82.6263 162.654 82.0393 162.694 81.473 162.694ZM99.9158 79.5879C98.4947 79.5879 97.0222 79.6801 95.4982 79.8777C74.9856 83.9869 59.6835 91.8497 54.6274 100.911C53.124 103.598 52.5576 106.35 52.9386 109.103C55.6572 122.998 64.8837 146.204 73.7499 157.189C76.0874 160.113 79.3208 161.39 83.0897 160.876C92.8002 159.559 104.478 147.456 114.312 128.49C121.644 113.95 123.394 99.7388 118.976 90.4668C115.589 83.3678 108.906 79.5879 99.9158 79.5879Z" fill="#CCCCCC"/>
<path d="M81.7912 155.45C78.599 155.45 75.7878 154.133 73.5944 151.578C65.7683 142.503 58.5292 123.314 58.1173 110.525V110.499C58.0658 98.7113 73.3885 89.031 94.5395 87.5032C103.55 87.2266 110.233 91.0724 113.374 98.3689C116.978 106.732 115.495 118.335 109.306 130.215C101.655 144.65 92.0784 154.028 83.6757 155.305C83.0269 155.397 82.3988 155.45 81.7912 155.45ZM59.456 110.473C59.8679 122.879 66.8908 141.502 74.5006 150.313C76.8176 153.013 79.9274 154.146 83.5109 153.606C91.5327 152.381 100.759 143.28 108.194 129.254C114.094 117.927 115.557 106.956 112.2 99.1723C109.306 92.4685 103.066 88.9124 94.591 89.189C74.5315 90.651 59.4148 99.8045 59.456 110.473Z" fill="#CCCCCC"/>
<path d="M82.2551 148.588C79.4645 148.588 76.9725 147.495 74.9645 145.348C67.9107 137.854 62.8959 122.682 63.9977 112.198C65.1922 102.136 78.0332 94.9183 93.1911 95.748C99.8433 96.2353 104.745 99.7387 107.01 105.6C109.605 112.317 108.421 121.233 103.746 130.044C98.2265 140.357 90.9462 147.218 84.2734 148.404C83.5835 148.536 82.9142 148.588 82.2551 148.588ZM90.7918 97.3943C77.3432 97.3943 66.3558 103.756 65.3261 112.448C64.2963 122.234 69.1979 136.998 75.8192 144.044C78.0023 146.362 80.8547 147.284 84.0881 146.718C90.4005 145.598 97.3307 139 102.644 129.083C107.041 120.798 108.195 112.514 105.816 106.35C103.777 101.069 99.2666 97.908 93.1293 97.447C92.3467 97.4207 91.5641 97.3943 90.7918 97.3943Z" fill="#CCCCCC"/>
<path d="M82.7881 142.03C80.5433 142.03 78.5044 141.2 76.795 139.58C70.8739 133.956 67.5478 122.643 69.3808 114.358C71.2446 106.166 80.9243 101.24 91.3968 103.137C96.041 104.019 99.4495 106.97 100.994 111.448C102.745 116.518 101.88 122.945 98.6257 129.083C94.8877 136.09 89.8728 140.726 84.8682 141.792C84.168 141.951 83.4677 142.03 82.7881 142.03ZM70.668 114.832C68.9998 122.353 72.1714 133.06 77.5879 138.21C79.5135 140.041 81.954 140.699 84.652 140.12C89.2344 139.132 94.0536 134.654 97.5341 128.135C100.52 122.498 101.334 116.676 99.779 112.146C98.43 108.221 95.382 105.626 91.2115 104.836C81.5421 103.071 72.3259 107.562 70.668 114.832Z" fill="#CCCCCC"/>
<path d="M83.3557 135.68C81.8008 135.68 80.2974 135.167 78.9793 134.06C74.572 130.412 72.5125 122.668 74.3763 116.807C76.2505 110.973 82.9336 107.825 89.2871 109.8C92.2219 110.709 94.3638 112.935 95.3214 116.043C96.3718 119.467 95.8363 123.629 93.8592 127.449C91.1303 132.691 87.0834 135.68 83.3557 135.68ZM79.7001 132.638C83.4999 135.786 89.3489 133.046 92.7471 126.514C94.477 123.168 94.9713 119.573 94.0754 116.675C93.2825 114.094 91.4702 112.237 88.9679 111.46C83.2322 109.682 77.239 112.369 75.612 117.452C73.9747 122.602 75.8077 129.411 79.7001 132.638Z" fill="#CCCCCC"/>
<path d="M83.8309 129.452C82.9865 129.452 82.1627 129.201 81.411 128.675C78.8366 126.87 77.7966 122.721 79.1044 119.416C80.3916 116.149 83.9236 114.582 86.9614 115.925C88.4236 116.571 89.4945 117.862 89.9579 119.574C90.4522 121.378 90.2154 123.485 89.2989 125.342C87.9911 127.963 85.8801 129.452 83.8309 129.452ZM84.6547 117.15C82.7909 117.15 81.03 118.296 80.2783 120.193C79.3 122.682 80.0826 125.816 82.0392 127.173C83.9854 128.543 86.7348 127.305 88.1559 124.42C88.8664 122.985 89.0518 121.47 88.681 120.127C88.3515 118.915 87.5792 117.993 86.5083 117.519C85.9007 117.269 85.2726 117.15 84.6547 117.15Z" fill="#CCCCCC"/>
</g>
</svg>
