<svg width="280" height="71" viewBox="0 0 280 71" fill="none" xmlns="http://www.w3.org/2000/svg">
<g clip-path="url(#clip0_9_2505)">
<path d="M89.6797 55.626L93.1656 47.5757C96.9327 50.3709 101.937 51.8245 106.885 51.8245C110.539 51.8245 112.844 50.4268 112.844 48.3024C112.788 42.3764 90.9729 47.0166 90.8042 32.1457C90.748 24.5985 97.4949 18.7843 107.053 18.7843C112.732 18.7843 118.411 20.182 122.459 23.3686L119.198 31.5867C115.487 29.2386 110.876 27.5615 106.491 27.5615C103.511 27.5615 101.543 28.9591 101.543 30.7481C101.599 36.5623 123.583 33.3757 123.808 47.5757C123.808 55.2906 117.23 60.7134 107.784 60.7134C100.868 60.7134 94.515 59.0922 89.6797 55.626ZM223.439 44.6686C221.696 47.6875 218.435 49.756 214.668 49.756C209.101 49.756 204.603 45.2835 204.603 39.7489C204.603 34.2142 209.101 29.7418 214.668 29.7418C218.435 29.7418 221.696 31.8103 223.439 34.8292L233.053 29.5182C229.455 23.1449 222.539 18.7843 214.668 18.7843C203.029 18.7843 193.583 28.1764 193.583 39.7489C193.583 51.3213 203.029 60.7134 214.668 60.7134C222.595 60.7134 229.455 56.4087 233.053 49.9796L223.439 44.6686ZM128.644 1.39771H140.676V59.9308H128.644V1.39771ZM237.776 1.39771V59.9308H249.808V42.3764L264.089 59.9308H279.495L261.334 39.078L278.146 19.6229H263.415L249.808 35.7796V1.39771H237.776ZM176.435 44.7804C174.692 47.6316 171.093 49.756 167.045 49.756C161.479 49.756 156.981 45.2835 156.981 39.7489C156.981 34.2142 161.479 29.7418 167.045 29.7418C171.093 29.7418 174.692 31.978 176.435 34.8851V44.7804ZM176.435 19.6229V24.3749C174.467 21.0764 169.575 18.7843 164.459 18.7843C153.889 18.7843 145.567 28.0646 145.567 39.693C145.567 51.3213 153.889 60.7134 164.459 60.7134C169.575 60.7134 174.467 58.4213 176.435 55.1229V59.8749H188.467V19.6229H176.435Z" fill="black"/>
<path d="M15.2944 44.7243C15.2944 48.8054 11.9772 52.1038 7.87274 52.1038C3.76832 52.1038 0.45105 48.8054 0.45105 44.7243C0.45105 40.6431 3.76832 37.3447 7.87274 37.3447H15.2944V44.7243ZM19.0053 44.7243C19.0053 40.6431 22.3225 37.3447 26.427 37.3447C30.5314 37.3447 33.8486 40.6431 33.8486 44.7243V63.1731C33.8486 67.2542 30.5314 70.5526 26.427 70.5526C22.3225 70.5526 19.0053 67.2542 19.0053 63.1731V44.7243Z" fill="#E01E5A"/>
<path d="M26.4267 15.0945C22.3222 15.0945 19.005 11.7961 19.005 7.71498C19.005 3.63387 22.3222 0.335449 26.4267 0.335449C30.5311 0.335449 33.8483 3.63387 33.8483 7.71498V15.0945H26.4267ZM26.4267 18.8402C30.5311 18.8402 33.8483 22.1386 33.8483 26.2197C33.8483 30.3008 30.5311 33.5992 26.4267 33.5992H7.81622C3.7118 33.5992 0.394531 30.3008 0.394531 26.2197C0.394531 22.1386 3.7118 18.8402 7.81622 18.8402H26.4267Z" fill="#36C5F0"/>
<path d="M56.1697 26.2197C56.1697 22.1386 59.487 18.8402 63.5914 18.8402C67.6958 18.8402 71.0131 22.1386 71.0131 26.2197C71.0131 30.3008 67.6958 33.5992 63.5914 33.5992H56.1697V26.2197ZM52.4588 26.2197C52.4588 30.3008 49.1416 33.5992 45.0372 33.5992C40.9327 33.5992 37.6155 30.3008 37.6155 26.2197V7.71498C37.6155 3.63387 40.9327 0.335449 45.0372 0.335449C49.1416 0.335449 52.4588 3.63387 52.4588 7.71498V26.2197Z" fill="#2EB67D"/>
<path d="M45.0372 55.7935C49.1416 55.7935 52.4588 59.092 52.4588 63.1731C52.4588 67.2542 49.1416 70.5526 45.0372 70.5526C40.9327 70.5526 37.6155 67.2542 37.6155 63.1731V55.7935H45.0372ZM45.0372 52.1038C40.9327 52.1038 37.6155 48.8054 37.6155 44.7243C37.6155 40.6431 40.9327 37.3447 45.0372 37.3447H63.6476C67.752 37.3447 71.0693 40.6431 71.0693 44.7243C71.0693 48.8054 67.752 52.1038 63.6476 52.1038H45.0372Z" fill="#ECB22E"/>
</g>
<defs>
<clipPath id="clip0_9_2505">
<rect width="280" height="71" fill="white"/>
</clipPath>
</defs>
</svg>
