<svg width="647" height="657" viewBox="0 0 647 657" fill="none" xmlns="http://www.w3.org/2000/svg">
<g opacity="0.2">
<path d="M574.494 250.803C575.763 255.536 575.715 261.609 574.193 270.085C569.949 292.637 546.615 320.849 521.929 350.649C508.381 367.047 494.361 383.979 483.483 400.137C462.682 425.049 453.214 460.372 444.024 494.565C437.321 519.547 430.965 543.141 420.6 562.873L420.576 562.914C412.408 577.835 402.929 586.333 391.618 588.887C369.547 593.882 343.739 575.365 313.857 553.888L310.982 551.833C288.746 535.934 259.439 516.346 215.994 488.255L212.41 485.845C174.572 460.44 127.476 428.799 91.3015 381.159C11.9903 287.574 26.0516 183.303 60.5902 142.318C101.963 98.1395 155.384 86.685 264.861 98.4781C379.033 110.954 482.818 178.541 522.13 207.024C535.879 219.308 547.022 226.331 555.157 231.437C565.444 237.941 572.179 242.163 574.494 250.803ZM416.79 560.898C426.929 541.601 433.209 518.231 439.876 493.498C449.164 458.904 458.776 423.1 480.049 397.653C490.919 381.463 505.017 364.441 518.62 347.995C542.937 318.601 565.91 290.826 569.971 269.378C573.709 248.255 568.445 244.934 552.813 235.061C544.549 229.854 533.204 222.714 519.365 210.352C480.492 182.229 377.482 115.115 264.329 102.74C156.431 91.1028 103.941 102.206 63.7414 145.15C30.2484 184.936 16.7796 286.699 94.5895 378.508C130.428 425.659 177.192 457.082 214.747 482.325L218.323 484.703C261.808 512.817 291.156 532.428 313.441 548.382L316.316 550.438C345.356 571.323 370.443 589.318 390.616 584.764C400.698 582.471 409.236 574.668 416.79 560.898Z" fill="#A7CEFC"/>
<path d="M547.334 264.992C549.088 271.536 548.839 279.024 547.662 289.554L547.649 289.761C543.337 310.527 524.994 330.967 505.597 352.574C492.327 367.331 478.649 382.606 467.695 399.5C449.178 424.14 437.128 452.12 425.47 479.144C417.658 497.307 410.263 514.473 401.202 530.144L401.006 530.435C373.343 564.812 353.331 550.836 316.984 525.508C313.033 522.753 308.872 519.851 304.445 516.849C296.678 510.692 288.105 504.205 279.013 497.312C238.587 466.711 183.226 424.756 129.782 358.967C70.1976 277.017 76.6659 199.634 109.485 159.245C144.009 118.332 198.162 116.112 292.381 126.444C388.409 139.696 462.061 191.117 501.624 218.75L506.035 221.823C532.911 243.05 543.93 252.286 547.334 264.992ZM543.41 288.991C546.579 260.258 542.972 256.492 503.496 225.227L499.205 222.223C459.943 194.817 386.841 143.793 291.904 130.657C199.264 120.481 146.085 122.508 112.834 161.923C81.0668 201.008 75.0295 276.301 133.215 356.345C186.258 421.663 241.392 463.406 281.625 493.923C290.717 500.815 299.29 507.302 307.008 513.405C311.314 516.337 315.475 519.239 319.457 521.985C355.845 547.336 372.489 558.946 397.587 527.878C406.476 512.457 413.778 495.452 421.537 477.474C433.263 450.194 445.43 422.012 464.174 397.073C475.221 380.018 489.033 364.605 502.405 349.719C521.354 328.606 539.272 308.62 543.41 288.991Z" fill="#A7CEFC"/>
<path d="M524.728 277.041C526.967 285.396 526.046 293.949 523.532 304.973C518.099 323.724 501.388 342.092 483.734 361.531C473.222 373.063 462.381 385.024 452.948 397.902C437.689 416.46 425.845 436.792 414.358 456.417C404.936 472.525 396.06 487.739 386.121 500.514L385.964 500.692C358.756 528.478 338.38 512.761 301.372 484.206L300.943 483.878L294.604 478.461C258.617 447.589 209.318 405.304 164.645 341.25C115.393 264.702 128.436 204.078 154.517 175.403C182.328 144.766 228.867 137.981 315.148 151.972C375.569 162.815 434.843 191.056 491.314 235.879C511.842 253.564 521.528 265.098 524.728 277.041ZM382.772 497.836C392.499 485.289 401.313 470.228 410.609 454.289C422.158 434.512 434.136 414.041 449.521 395.313C458.992 382.323 469.952 370.296 480.542 358.675C497.89 339.625 514.255 321.622 519.384 303.905C525.164 278.797 522.005 267.898 488.573 239.167C432.677 194.836 374.065 166.895 314.399 156.19C229.763 142.473 184.347 148.855 157.645 178.276C130.589 208.03 123.334 269.213 168.154 338.914C212.483 402.447 261.522 444.53 297.363 475.236L303.961 480.856C341.228 509.615 358.289 522.781 382.772 497.836Z" fill="#A7CEFC"/>
<path d="M503.589 285.905C506.091 295.244 505.22 304.874 501.528 316.35L501.513 316.422C495.323 333.878 479.439 350.867 462.658 368.846C454.873 377.162 446.861 385.778 439.431 394.782C428.316 407.123 418.477 420.143 408.999 432.726C397.349 448.172 386.334 462.801 374.722 473.539C349.512 493.606 329.721 479.435 300.044 453.749C271.292 426.795 229.27 384.501 195.961 327.785C168.207 272.544 166.163 226.142 190.139 197.009C215.96 165.578 268.149 157.688 333.338 175.356C408.925 191.906 462.403 235.761 476.972 248.812C491.942 262.845 500.44 274.152 503.589 285.905ZM497.457 315.057C504.32 293.608 502.577 278.686 474.061 251.975C459.719 239.136 406.938 195.843 332.3 179.515C268.735 162.297 218.146 169.656 193.464 199.727C170.627 227.499 172.877 272.246 199.764 325.779C232.743 381.902 274.448 423.907 302.965 450.618C333.494 477.062 350.274 487.648 371.989 470.356C383.183 459.969 394.072 445.51 405.62 430.193C415.177 417.521 425.031 404.428 436.233 392.03C443.654 382.994 451.762 374.353 459.57 365.996C475.988 348.319 491.549 331.655 497.457 315.057Z" fill="#A7CEFC"/>
<path d="M484.018 292.954C486.673 302.865 485.704 312.896 481.417 324.19L481.262 324.504C454.146 370.616 381.291 436.065 366.979 448.718L366.63 448.948C344.691 461.704 326.908 450.944 301.776 426.662C279.105 403.525 247.292 365.917 224.306 318.012C204.529 273.536 205.093 236.105 225.884 212.558C248.988 186.416 293.206 180.662 347.202 196.733C398.629 209.849 440.709 238.203 462.917 260.375C474.31 272.03 481.2 282.44 484.018 292.954ZM477.484 322.52C485.601 300.905 480.823 284.856 459.867 263.405C438.074 241.633 396.715 213.801 346.051 200.855C294.395 185.484 250.709 190.926 229.099 215.373C209.456 237.591 209.114 273.431 228.2 316.219C250.929 363.547 282.422 400.73 304.826 423.632C328.86 446.88 344.698 456.629 364.34 445.374C405.453 409.027 456.711 357.74 477.484 322.52Z" fill="#A7CEFC"/>
<path d="M466.016 299.616C468.859 310.226 467.779 320.354 462.788 329.148C443.173 364.228 393.829 408.499 361.778 426.246C354.213 429.771 345.929 429.846 337.118 426.555C309.962 416.4 277.377 373.483 249.959 311.717C236.674 276.294 239.194 246.544 257.053 227.868C277.29 206.716 313.872 202.566 357.379 216.476C412.662 234.926 452.584 264.029 464.25 294.302C464.967 296.084 465.548 297.869 466.016 299.616ZM249.575 296.635C250.75 301.019 252.19 305.502 253.928 310.075C280.831 370.685 312.515 412.788 338.631 422.507C346.378 425.401 353.51 425.363 359.859 422.402C391.251 405.002 439.807 361.487 459.071 327.012C464.218 317.904 464.638 307.101 460.279 295.808C449.064 266.708 410.11 238.538 356.066 220.505C314.805 207.321 278.953 211.139 260.158 230.781C245.772 245.837 242.144 268.904 249.575 296.635Z" fill="#A7CEFC"/>
<path d="M448.215 303.33C450.854 313.178 449.989 322.704 445.616 331.127C430.116 361.156 389.642 395.935 359.022 405.501L358.958 405.518C330.463 413.324 294.362 372.337 273.181 308.082C265.064 280.467 268.851 257.356 283.919 242.935C301.187 226.392 330.504 223.439 364.38 234.824C405.65 249.061 436.268 272.52 446.307 297.611C447.066 299.553 447.713 301.456 448.215 303.33ZM357.788 401.406C387.483 392.087 426.764 358.342 441.806 329.152C446.427 320.254 446.599 309.926 442.33 299.222C432.734 275.271 403.075 252.713 362.972 238.878C330.673 228.024 302.904 230.63 286.834 246.035C272.997 259.31 269.545 280.866 277.22 306.83C297.34 367.76 331.995 408.453 357.788 401.406Z" fill="#A7CEFC"/>
<path d="M431.219 306.352C433.525 314.961 432.939 323.357 429.401 330.944C417.089 357.564 384.502 382.876 358.21 386.278C332.862 389.121 304.775 354.191 294.255 306.895C289.937 286.058 294.367 268.665 306.683 257.875C320.8 245.513 343.365 243.382 368.561 252.088C398.089 262.424 420.719 280.431 429.104 300.246C429.993 302.289 430.674 304.319 431.219 306.352ZM300.224 313.228C311.34 354.713 335.823 384.48 357.718 382.018C382.26 378.847 413.952 354.149 425.538 329.153C429.345 320.915 429.22 311.518 425.176 301.911C417.248 283.165 395.545 266.068 367.144 256.11C343.453 247.92 322.444 249.737 309.488 261.073C298.387 270.788 294.463 286.752 298.42 305.983C299.003 308.414 299.586 310.846 300.224 313.228Z" fill="#A7CEFC"/>
<path d="M414.898 308.956C416.754 315.881 416.43 322.708 413.921 329.032C405.2 350.945 380.56 368.545 358.989 368.264C337.616 367.829 317.69 341.165 313.625 307.63C311.923 292.731 316.248 280.303 325.812 272.633C336.641 263.944 352.916 262.443 370.464 268.499C390.517 275.485 405.886 287.947 412.605 302.693C413.567 304.751 414.337 306.859 414.898 308.956ZM359.073 363.986C378.658 364.254 401.96 347.524 409.95 327.475C412.79 320.347 412.367 312.392 408.734 304.445C402.555 290.95 387.731 278.989 369.071 272.482C352.956 266.926 338.19 268.193 328.507 275.929C320.12 282.636 316.358 293.722 317.892 307.099C321.611 338.072 340.102 363.588 359.073 363.986Z" fill="#A7CEFC"/>
<path d="M399.06 311.326C400.345 316.123 400.345 321.094 398.756 325.877C393.566 341.839 376.52 353.216 360.79 351.269C345.116 349.272 331.972 330.698 331.503 309.818C331.277 300.175 334.895 292.124 341.629 287.154C349.051 281.692 359.569 280.644 370.45 284.266C385.396 289.283 395.979 299.827 399.06 311.326ZM394.716 324.576C399.196 310.813 387.729 294.548 369.106 288.303C359.577 285.136 350.463 285.944 344.189 290.587C338.595 294.708 335.597 301.503 335.784 309.726C336.221 328.573 347.679 345.317 361.331 347.038C375.152 348.748 390.122 338.677 394.716 324.576Z" fill="#A7CEFC"/>
<path d="M383.587 313.906C384.285 316.511 384.36 319.215 383.706 321.875C381.465 330.987 372.281 336.886 363.197 334.997C354.225 333.145 347.511 323.266 348.253 313.024C348.607 308.095 350.846 303.954 354.608 301.414C358.568 298.718 363.865 298.082 369.119 299.705C376.545 302.039 381.893 307.585 383.587 313.906ZM353.125 319.345C354.665 325.094 358.895 329.783 364.108 330.871C370.943 332.274 377.884 327.827 379.551 320.911C381.259 314.019 375.989 306.341 367.832 303.829C363.769 302.568 359.949 302.979 357.003 304.994C354.342 306.796 352.748 309.777 352.486 313.388C352.382 315.424 352.614 317.439 353.125 319.345Z" fill="#A7CEFC"/>
</g>
</svg>
